Disorientation Sans-Vertical Max Advance.ufo
<glyph name="zero" format="2">
  <advance width="611"/>
  <unicode hex="0030"/>
  <outline>
    <contour>
      <point x="302" y="-208" type="curve" smooth="yes"/>
      <point x="497" y="-208"/>
      <point x="581" y="-65"/>
      <point x="581" y="150" type="curve" smooth="yes"/>
      <point x="581" y="365"/>
      <point x="497" y="508"/>
      <point x="302" y="508" type="curve" smooth="yes"/>
      <point x="107" y="508"/>
      <point x="30" y="365"/>
      <point x="30" y="150" type="curve" smooth="yes"/>
      <point x="30" y="-65"/>
      <point x="107" y="-208"/>
    </contour>
    <contour>
      <point x="302" y="-118" type="curve" smooth="yes"/>
      <point x="162" y="-118"/>
      <point x="135" y="-15"/>
      <point x="135" y="150" type="curve" smooth="yes"/>
      <point x="135" y="315"/>
      <point x="162" y="418"/>
      <point x="302" y="418" type="curve" smooth="yes"/>
      <point x="442" y="418"/>
      <point x="476" y="315"/>
      <point x="476" y="150" type="curve" smooth="yes"/>
      <point x="476" y="-15"/>
      <point x="442" y="-118"/>
    </contour>
  </outline>
</glyph>
<glyph name="one" format="2">
  <advance width="345"/>
  <unicode hex="0031"/>
  <outline>
    <contour>
      <point x="225" y="490" type="line"/>
      <point x="225" y="390"/>
      <point x="200" y="365"/>
      <point x="30" y="365" type="curve"/>
      <point x="30" y="285" type="line"/>
      <point x="215" y="285" type="line"/>
      <point x="215" y="-210" type="line"/>
      <point x="315" y="-210" type="line"/>
      <point x="315" y="490" type="line"/>
    </contour>
  </outline>
</glyph>
<glyph name="two" format="2">
  <advance width="573"/>
  <unicode hex="0032"/>
  <outline>
    <contour>
      <point x="163" y="-111" type="line"/>
      <point x="414" y="43"/>
      <point x="514" y="175"/>
      <point x="514" y="323" type="curve" smooth="yes"/>
      <point x="514" y="469"/>
      <point x="417" y="507"/>
      <point x="277" y="507" type="curve" smooth="yes"/>
      <point x="137" y="507"/>
      <point x="39" y="421"/>
      <point x="39" y="266" type="curve"/>
      <point x="139" y="261" type="line"/>
      <point x="139" y="371"/>
      <point x="187" y="417"/>
      <point x="277" y="417" type="curve" smooth="yes"/>
      <point x="367" y="417"/>
      <point x="414" y="378"/>
      <point x="414" y="318" type="curve" smooth="yes"/>
      <point x="414" y="214"/>
      <point x="253" y="44"/>
      <point x="30" y="-111" type="curve"/>
      <point x="31" y="-201" type="line"/>
      <point x="543" y="-201" type="line"/>
      <point x="543" y="-111" type="line"/>
    </contour>
  </outline>
</glyph>
<glyph name="three" format="2">
  <advance width="660"/>
  <unicode hex="0033"/>
  <outline>
    <contour>
      <point x="167" y="62" type="curve"/>
      <point x="62" y="78" type="line"/>
      <point x="54" y="40"/>
      <point x="52" y="15"/>
      <point x="52" y="-3" type="curve" smooth="yes"/>
      <point x="52" y="-118"/>
      <point x="138" y="-218"/>
      <point x="328" y="-218" type="curve" smooth="yes"/>
      <point x="518" y="-218"/>
      <point x="603" y="-118"/>
      <point x="603" y="-3" type="curve" smooth="yes"/>
      <point x="603" y="87"/>
      <point x="546" y="137"/>
      <point x="475" y="169" type="curve"/>
      <point x="526" y="203"/>
      <point x="565" y="253"/>
      <point x="565" y="314" type="curve" smooth="yes"/>
      <point x="565" y="419"/>
      <point x="468" y="498"/>
      <point x="328" y="498" type="curve" smooth="yes"/>
      <point x="188" y="498"/>
      <point x="90" y="419"/>
      <point x="90" y="314" type="curve" smooth="yes"/>
      <point x="90" y="297" type="line"/>
      <point x="190" y="290" type="line"/>
      <point x="190" y="309" type="line" smooth="yes"/>
      <point x="190" y="369"/>
      <point x="238" y="408"/>
      <point x="328" y="408" type="curve" smooth="yes"/>
      <point x="418" y="408"/>
      <point x="465" y="369"/>
      <point x="465" y="309" type="curve" smooth="yes"/>
      <point x="465" y="249"/>
      <point x="418" y="210"/>
      <point x="328" y="210" type="curve" smooth="yes"/>
      <point x="297" y="210" type="line"/>
      <point x="297" y="120" type="line"/>
      <point x="328" y="120" type="line" smooth="yes"/>
      <point x="428" y="120"/>
      <point x="498" y="92"/>
      <point x="498" y="-3" type="curve" smooth="yes"/>
      <point x="498" y="-98"/>
      <point x="428" y="-128"/>
      <point x="328" y="-128" type="curve" smooth="yes"/>
      <point x="228" y="-128"/>
      <point x="157" y="-98"/>
      <point x="157" y="-3" type="curve" smooth="yes"/>
      <point x="157" y="22"/>
      <point x="162" y="46"/>
    </contour>
  </outline>
</glyph>
<glyph name="four" format="2">
  <advance width="660"/>
  <unicode hex="0034"/>
  <outline>
    <contour>
      <point x="52" y="65" type="line"/>
      <point x="52" y="-25" type="line"/>
      <point x="395" y="-25" type="line"/>
      <point x="395" y="-201" type="line"/>
      <point x="500" y="-201" type="line"/>
      <point x="500" y="-25" type="line"/>
      <point x="612" y="-25" type="line"/>
      <point x="612" y="65" type="line"/>
      <point x="500" y="65" type="line"/>
      <point x="500" y="499" type="line"/>
      <point x="324" y="499" type="line"/>
    </contour>
    <contour>
      <point x="168" y="65" type="line"/>
      <point x="395" y="423" type="line"/>
      <point x="395" y="65" type="line"/>
    </contour>
  </outline>
</glyph>
<glyph name="five" format="2">
  <advance width="660"/>
  <unicode hex="0035"/>
  <outline>
    <contour>
      <point x="0" y="0"/>
    </contour>
    <contour>
      <point x="138" y="490" type="line"/>
      <point x="97" y="205" type="line"/>
      <point x="178" y="133" type="line"/>
      <point x="216" y="400" type="line"/>
      <point x="554" y="400" type="line"/>
      <point x="554" y="490" type="line"/>
    </contour>
    <contour>
      <point x="328" y="254" type="curve"/>
      <point x="270" y="254"/>
      <point x="218" y="237"/>
      <point x="160" y="194" type="curve"/>
      <point x="178" y="133" type="line"/>
      <point x="228" y="163"/>
      <point x="278" y="164"/>
      <point x="328" y="164" type="curve" smooth="yes"/>
      <point x="468" y="164"/>
      <point x="498" y="92"/>
      <point x="498" y="-3" type="curve" smooth="yes"/>
      <point x="498" y="-98"/>
      <point x="428" y="-128"/>
      <point x="328" y="-128" type="curve" smooth="yes"/>
      <point x="228" y="-128"/>
      <point x="167" y="-88"/>
      <point x="167" y="7" type="curve"/>
      <point x="62" y="17" type="line"/>
      <point x="62" y="-98"/>
      <point x="138" y="-218"/>
      <point x="328" y="-218" type="curve" smooth="yes"/>
      <point x="518" y="-218"/>
      <point x="603" y="-118"/>
      <point x="603" y="-3" type="curve" smooth="yes"/>
      <point x="603" y="132"/>
      <point x="539" y="254"/>
    </contour>
  </outline>
</glyph>
<glyph name="six" format="2">
  <advance width="660"/>
  <unicode hex="0036"/>
  <outline>
    <contour>
      <point x="498" y="296" type="curve"/>
      <point x="603" y="296" type="line"/>
      <point x="603" y="366"/>
      <point x="530" y="499"/>
      <point x="340" y="499" type="curve" smooth="yes"/>
      <point x="150" y="499"/>
      <point x="55" y="356"/>
      <point x="55" y="141" type="curve" smooth="yes"/>
      <point x="55" y="-74"/>
      <point x="145" y="-217"/>
      <point x="340" y="-217" type="curve" smooth="yes"/>
      <point x="535" y="-217"/>
      <point x="606" y="-110"/>
      <point x="606" y="11" type="curve" smooth="yes"/>
      <point x="606" y="171"/>
      <point x="480" y="233"/>
      <point x="340" y="233" type="curve" smooth="yes"/>
      <point x="261" y="233"/>
      <point x="183" y="213"/>
      <point x="155" y="164" type="curve"/>
      <point x="168" y="363"/>
      <point x="240" y="409"/>
      <point x="340" y="409" type="curve" smooth="yes"/>
      <point x="440" y="409"/>
      <point x="498" y="363"/>
    </contour>
    <contour>
      <point x="506" y="11" type="curve" smooth="yes"/>
      <point x="506" y="-84"/>
      <point x="440" y="-127"/>
      <point x="340" y="-127" type="curve" smooth="yes"/>
      <point x="240" y="-127"/>
      <point x="181" y="-84"/>
      <point x="181" y="11" type="curve"/>
      <point x="181" y="106"/>
      <point x="240" y="143"/>
      <point x="340" y="143" type="curve" smooth="yes"/>
      <point x="440" y="143"/>
      <point x="506" y="106"/>
    </contour>
  </outline>
</glyph>
<glyph name="seven" format="2">
  <advance width="477"/>
  <unicode hex="0037"/>
  <outline>
    <contour>
      <point x="477" y="490" type="line"/>
      <point x="0" y="490" type="line"/>
      <point x="0" y="400" type="line"/>
      <point x="352" y="400" type="line"/>
      <point x="252" y="292"/>
      <point x="175" y="87"/>
      <point x="175" y="-210" type="curve"/>
      <point x="275" y="-210" type="line"/>
      <point x="275" y="87"/>
      <point x="365" y="292"/>
      <point x="475" y="400" type="curve"/>
    </contour>
  </outline>
</glyph>
<glyph name="eight" format="2">
  <advance width="611"/>
  <unicode hex="0038"/>
  <outline>
    <contour>
      <point x="306" y="-217" type="curve" smooth="yes"/>
      <point x="496" y="-217"/>
      <point x="581" y="-117"/>
      <point x="581" y="-2" type="curve" smooth="yes"/>
      <point x="581" y="88"/>
      <point x="524" y="143"/>
      <point x="453" y="175" type="curve"/>
      <point x="504" y="209"/>
      <point x="543" y="259"/>
      <point x="543" y="320" type="curve" smooth="yes"/>
      <point x="543" y="425"/>
      <point x="446" y="504"/>
      <point x="306" y="504" type="curve" smooth="yes"/>
      <point x="166" y="504"/>
      <point x="68" y="425"/>
      <point x="68" y="320" type="curve" smooth="yes"/>
      <point x="68" y="259"/>
      <point x="107" y="209"/>
      <point x="159" y="175" type="curve"/>
      <point x="88" y="143"/>
      <point x="30" y="88"/>
      <point x="30" y="-2" type="curve" smooth="yes"/>
      <point x="30" y="-117"/>
      <point x="116" y="-217"/>
    </contour>
    <contour>
      <point x="306" y="-127" type="curve" smooth="yes"/>
      <point x="206" y="-127"/>
      <point x="135" y="-97"/>
      <point x="135" y="-2" type="curve" smooth="yes"/>
      <point x="135" y="93"/>
      <point x="206" y="126"/>
      <point x="306" y="126" type="curve" smooth="yes"/>
      <point x="406" y="126"/>
      <point x="476" y="93"/>
      <point x="476" y="-2" type="curve" smooth="yes"/>
      <point x="476" y="-97"/>
      <point x="406" y="-127"/>
    </contour>
    <contour>
      <point x="306" y="216" type="curve" smooth="yes"/>
      <point x="216" y="216"/>
      <point x="168" y="255"/>
      <point x="168" y="315" type="curve" smooth="yes"/>
      <point x="168" y="375"/>
      <point x="216" y="414"/>
      <point x="306" y="414" type="curve" smooth="yes"/>
      <point x="396" y="414"/>
      <point x="443" y="375"/>
      <point x="443" y="315" type="curve" smooth="yes"/>
      <point x="443" y="255"/>
      <point x="396" y="216"/>
    </contour>
  </outline>
</glyph>
<glyph name="nine" format="2">
  <advance width="660"/>
  <unicode hex="0039"/>
  <outline>
    <contour>
      <point x="160" y="-15" type="curve"/>
      <point x="55" y="-15" type="line"/>
      <point x="55" y="-85"/>
      <point x="128" y="-218"/>
      <point x="318" y="-218" type="curve" smooth="yes"/>
      <point x="508" y="-218"/>
      <point x="603" y="-75"/>
      <point x="603" y="140" type="curve" smooth="yes"/>
      <point x="603" y="355"/>
      <point x="513" y="498"/>
      <point x="318" y="498" type="curve" smooth="yes"/>
      <point x="123" y="498"/>
      <point x="52" y="391"/>
      <point x="52" y="270" type="curve" smooth="yes"/>
      <point x="52" y="110"/>
      <point x="178" y="48"/>
      <point x="318" y="48" type="curve" smooth="yes"/>
      <point x="397" y="48"/>
      <point x="475" y="68"/>
      <point x="503" y="117" type="curve"/>
      <point x="490" y="-82"/>
      <point x="418" y="-128"/>
      <point x="318" y="-128" type="curve" smooth="yes"/>
      <point x="218" y="-128"/>
      <point x="160" y="-82"/>
    </contour>
    <contour>
      <point x="152" y="270" type="curve" smooth="yes"/>
      <point x="152" y="365"/>
      <point x="218" y="408"/>
      <point x="318" y="408" type="curve" smooth="yes"/>
      <point x="418" y="408"/>
      <point x="477" y="365"/>
      <point x="477" y="270" type="curve"/>
      <point x="477" y="175"/>
      <point x="418" y="138"/>
      <point x="318" y="138" type="curve" smooth="yes"/>
      <point x="218" y="138"/>
      <point x="152" y="175"/>
    </contour>
  </outline>
</glyph>
<glyph name="A" format="2">
  <advance width="770"/>
  <unicode hex="0041"/>
  <outline>
    <contour>
      <point x="50" y="0" type="line"/>
      <point x="155" y="0" type="line"/>
      <point x="384" y="591" type="line"/>
      <point x="615" y="0" type="line"/>
      <point x="720" y="0" type="line"/>
      <point x="456" y="701" type="line"/>
      <point x="316" y="701" type="line"/>
    </contour>
    <contour>
      <point x="192" y="300" type="line"/>
      <point x="192" y="210" type="line"/>
      <point x="572" y="210" type="line"/>
      <point x="572" y="300" type="line"/>
    </contour>
  </outline>
</glyph>
<glyph name="B" format="2">
  <advance width="598"/>
  <unicode hex="0042"/>
  <outline>
    <contour>
      <point x="50" y="0" type="line"/>
      <point x="307" y="0" type="line" smooth="yes"/>
      <point x="483" y="0"/>
      <point x="568" y="67"/>
      <point x="568" y="212" type="curve" smooth="yes"/>
      <point x="568" y="276"/>
      <point x="541" y="334"/>
      <point x="466" y="373" type="curve"/>
      <point x="514" y="409"/>
      <point x="541" y="456"/>
      <point x="541" y="524" type="curve" smooth="yes"/>
      <point x="541" y="640"/>
      <point x="449" y="700"/>
      <point x="307" y="700" type="curve" smooth="yes"/>
      <point x="50" y="700" type="line"/>
    </contour>
    <contour>
      <point x="155" y="89" type="line"/>
      <point x="155" y="327" type="line"/>
      <point x="307" y="327" type="line" smooth="yes"/>
      <point x="403" y="327"/>
      <point x="463" y="277"/>
      <point x="463" y="212" type="curve" smooth="yes"/>
      <point x="463" y="136"/>
      <point x="418" y="91"/>
      <point x="307" y="90" type="curve" smooth="yes"/>
    </contour>
    <contour>
      <point x="155" y="417" type="line"/>
      <point x="155" y="610" type="line"/>
      <point x="307" y="610" type="line" smooth="yes"/>
      <point x="379" y="610"/>
      <point x="436" y="580"/>
      <point x="436" y="524" type="curve" smooth="yes"/>
      <point x="436" y="452"/>
      <point x="396" y="417"/>
      <point x="307" y="417" type="curve" smooth="yes"/>
    </contour>
  </outline>
</glyph>
<glyph name="C" format="2">
  <advance width="711"/>
  <unicode hex="0043"/>
  <outline>
    <contour>
      <point x="681" y="243" type="curve"/>
      <point x="576" y="260" type="line"/>
      <point x="560" y="187"/>
      <point x="492" y="82"/>
      <point x="352" y="82" type="curve" smooth="yes"/>
      <point x="212" y="82"/>
      <point x="135" y="185"/>
      <point x="135" y="350" type="curve" smooth="yes"/>
      <point x="135" y="515"/>
      <point x="212" y="618"/>
      <point x="352" y="618" type="curve" smooth="yes"/>
      <point x="492" y="618"/>
      <point x="563" y="517"/>
      <point x="576" y="435" type="curve"/>
      <point x="681" y="452" type="line"/>
      <point x="641" y="610"/>
      <point x="547" y="708"/>
      <point x="352" y="708" type="curve" smooth="yes"/>
      <point x="157" y="708"/>
      <point x="30" y="565"/>
      <point x="30" y="350" type="curve" smooth="yes"/>
      <point x="30" y="135"/>
      <point x="157" y="-8"/>
      <point x="352" y="-8" type="curve" smooth="yes"/>
      <point x="547" y="-8"/>
      <point x="641" y="97"/>
    </contour>
  </outline>
</glyph>
<glyph name="D" format="2">
  <advance width="660"/>
  <unicode hex="0044"/>
  <outline>
    <contour>
      <point x="70" y="700" type="line"/>
      <point x="70" y="0" type="line"/>
      <point x="299" y="0" type="line" smooth="yes"/>
      <point x="494" y="0"/>
      <point x="636" y="140"/>
      <point x="636" y="350" type="curve" smooth="yes"/>
      <point x="636" y="560"/>
      <point x="495" y="700"/>
      <point x="300" y="700" type="curve" smooth="yes"/>
    </contour>
    <contour>
      <point x="175" y="90" type="line"/>
      <point x="175" y="610" type="line"/>
      <point x="300" y="610" type="line" smooth="yes"/>
      <point x="433" y="610"/>
      <point x="531" y="510"/>
      <point x="531" y="350" type="curve" smooth="yes"/>
      <point x="531" y="190"/>
      <point x="432" y="90"/>
      <point x="299" y="90" type="curve" smooth="yes"/>
    </contour>
  </outline>
</glyph>
<glyph name="G" format="2">
  <advance width="711"/>
  <unicode hex="0047"/>
  <outline>
    <contour>
      <point x="681" y="0" type="line"/>
      <point x="681" y="370" type="line"/>
      <point x="339" y="369" type="line"/>
      <point x="339" y="279" type="line"/>
      <point x="560" y="279" type="line"/>
      <point x="559" y="184"/>
      <point x="492" y="82"/>
      <point x="352" y="82" type="curve" smooth="yes"/>
      <point x="212" y="82"/>
      <point x="135" y="185"/>
      <point x="135" y="350" type="curve" smooth="yes"/>
      <point x="135" y="515"/>
      <point x="212" y="618"/>
      <point x="352" y="618" type="curve" smooth="yes"/>
      <point x="471" y="618"/>
      <point x="562" y="543"/>
      <point x="580" y="461" type="curve"/>
      <point x="681" y="478" type="line"/>
      <point x="636" y="636"/>
      <point x="493" y="708"/>
      <point x="352" y="708" type="curve" smooth="yes"/>
      <point x="157" y="708"/>
      <point x="30" y="565"/>
      <point x="30" y="350" type="curve" smooth="yes"/>
      <point x="30" y="135"/>
      <point x="157" y="-8"/>
      <point x="352" y="-8" type="curve" smooth="yes"/>
      <point x="547" y="-8"/>
      <point x="600" y="136"/>
      <point x="590" y="279" type="curve"/>
      <point x="590" y="0" type="line"/>
    </contour>
  </outline>
</glyph>
<glyph name="J" format="2">
  <advance width="660"/>
  <unicode hex="004A"/>
  <outline>
    <contour>
      <point x="486" y="700" type="line"/>
      <point x="486" y="260" type="line"/>
      <point x="486" y="132"/>
      <point x="441" y="92"/>
      <point x="376" y="92" type="curve"/>
      <point x="310" y="92"/>
      <point x="246" y="133"/>
      <point x="246" y="225" type="curve"/>
      <point x="141" y="225" type="line"/>
      <point x="141" y="88"/>
      <point x="224" y="-8"/>
      <point x="384" y="-8" type="curve"/>
      <point x="588" y="-8"/>
      <point x="591" y="151"/>
      <point x="591" y="240" type="curve"/>
      <point x="591" y="700" type="line"/>
    </contour>
  </outline>
</glyph>
<glyph name="P" format="2">
  <advance width="571"/>
  <unicode hex="0050"/>
  <outline>
    <contour>
      <point x="50" y="700" type="line"/>
      <point x="50" y="0" type="line"/>
      <point x="155" y="0" type="line"/>
      <point x="155" y="700" type="line"/>
    </contour>
    <contour>
      <point x="155" y="378" type="line"/>
      <point x="155" y="288" type="line"/>
      <point x="317" y="288" type="line"/>
      <point x="317" y="378" type="line"/>
    </contour>
    <contour>
      <point x="155" y="700" type="line"/>
      <point x="155" y="610" type="line"/>
      <point x="317" y="610" type="line"/>
      <point x="317" y="700" type="line"/>
    </contour>
    <contour>
      <point x="317" y="700" type="curve"/>
      <point x="317" y="610" type="line"/>
      <point x="383" y="610"/>
      <point x="441" y="566"/>
      <point x="441" y="495" type="curve"/>
      <point x="441" y="425"/>
      <point x="384" y="380"/>
      <point x="317" y="378" type="curve"/>
      <point x="317" y="288" type="line"/>
      <point x="436" y="290"/>
      <point x="541" y="344"/>
      <point x="541" y="495" type="curve" smooth="yes"/>
      <point x="541" y="646"/>
      <point x="436" y="700"/>
    </contour>
  </outline>
</glyph>
<glyph name="Q" format="2">
  <advance width="736"/>
  <unicode hex="0051"/>
  <outline>
    <contour>
      <point x="377" y="-8" type="curve" smooth="yes"/>
      <point x="574" y="-8"/>
      <point x="706" y="135"/>
      <point x="706" y="350" type="curve" smooth="yes"/>
      <point x="706" y="566"/>
      <point x="574" y="710"/>
      <point x="377" y="710" type="curve" smooth="yes"/>
      <point x="184" y="710"/>
      <point x="55" y="566"/>
      <point x="55" y="350" type="curve" smooth="yes"/>
      <point x="55" y="135"/>
      <point x="184" y="-8"/>
    </contour>
    <contour>
      <point x="377" y="82" type="curve" smooth="yes"/>
      <point x="245" y="82"/>
      <point x="160" y="181"/>
      <point x="160" y="350" type="curve" smooth="yes"/>
      <point x="160" y="513"/>
      <point x="241" y="620"/>
      <point x="377" y="620" type="curve" smooth="yes"/>
      <point x="512" y="620"/>
      <point x="601" y="519"/>
      <point x="601" y="350" type="curve" smooth="yes"/>
      <point x="601" y="188"/>
      <point x="518" y="82"/>
    </contour>
    <contour>
      <point x="462" y="241" type="line"/>
      <point x="392" y="168" type="line"/>
      <point x="636" y="-75" type="line"/>
      <point x="706" y="-3" type="line"/>
    </contour>
  </outline>
</glyph>
<glyph name="R" format="2">
  <advance width="572"/>
  <unicode hex="0052"/>
  <outline>
    <contour>
      <point x="50" y="700" type="line"/>
      <point x="50" y="0" type="line"/>
      <point x="155" y="0" type="line"/>
      <point x="155" y="700" type="line"/>
    </contour>
    <contour>
      <point x="155" y="378" type="line"/>
      <point x="155" y="288" type="line"/>
      <point x="317" y="288" type="line"/>
      <point x="317" y="378" type="line"/>
    </contour>
    <contour>
      <point x="155" y="700" type="line"/>
      <point x="155" y="610" type="line"/>
      <point x="317" y="610" type="line"/>
      <point x="317" y="700" type="line"/>
    </contour>
    <contour>
      <point x="317" y="700" type="curve"/>
      <point x="317" y="610" type="line"/>
      <point x="383" y="610"/>
      <point x="441" y="569"/>
      <point x="441" y="486" type="curve"/>
      <point x="441" y="409"/>
      <point x="384" y="380"/>
      <point x="317" y="378" type="curve"/>
      <point x="317" y="288" type="line"/>
      <point x="436" y="290"/>
      <point x="541" y="335"/>
      <point x="541" y="486" type="curve" smooth="yes"/>
      <point x="541" y="637"/>
      <point x="436" y="700"/>
    </contour>
    <contour>
      <point x="244" y="306" type="line"/>
      <point x="417" y="1" type="line"/>
      <point x="542" y="0" type="line"/>
      <point x="359" y="305" type="line"/>
    </contour>
  </outline>
</glyph>
<glyph name="S" format="2">
  <advance width="578"/>
  <unicode hex="0053"/>
  <outline>
    <contour>
      <point x="25" y="499" type="curve"/>
      <point x="25" y="242"/>
      <point x="453" y="361"/>
      <point x="453" y="195" type="curve"/>
      <point x="453" y="134"/>
      <point x="386" y="93"/>
      <point x="280" y="93" type="curve" smooth="yes"/>
      <point x="190" y="93"/>
      <point x="125" y="137"/>
      <point x="125" y="206" type="curve"/>
      <point x="20" y="199" type="line"/>
      <point x="20" y="74"/>
      <point x="113" y="3"/>
      <point x="280" y="3" type="curve" smooth="yes"/>
      <point x="453" y="3"/>
      <point x="558" y="88"/>
      <point x="558" y="209" type="curve" smooth="yes"/>
      <point x="558" y="451"/>
      <point x="130" y="361"/>
      <point x="130" y="513" type="curve"/>
      <point x="131" y="578"/>
      <point x="207" y="608"/>
      <point x="280" y="608" type="curve" smooth="yes"/>
      <point x="369" y="608"/>
      <point x="451" y="562"/>
      <point x="451" y="493" type="curve"/>
      <point x="556" y="500" type="line"/>
      <point x="556" y="624"/>
      <point x="453" y="698"/>
      <point x="280" y="698" type="curve" smooth="yes"/>
      <point x="106" y="698"/>
      <point x="25" y="618"/>
    </contour>
  </outline>
</glyph>
<glyph name="X" format="2">
  <advance width="668"/>
  <unicode hex="0058"/>
  <outline>
    <contour>
      <point x="30" y="700" type="line"/>
      <point x="277" y="351" type="line"/>
      <point x="33" y="0" type="line"/>
      <point x="156" y="0" type="line"/>
      <point x="340" y="256" type="line"/>
      <point x="521" y="0" type="line"/>
      <point x="638" y="0" type="line"/>
      <point x="401" y="351" type="line"/>
      <point x="635" y="700" type="line"/>
      <point x="514" y="700" type="line"/>
      <point x="340" y="432" type="line"/>
      <point x="152" y="700" type="line"/>
    </contour>
  </outline>
</glyph>
<glyph name="Y" format="2">
  <advance width="690"/>
  <unicode hex="0059"/>
  <outline>
    <contour>
      <point x="30" y="700" type="line"/>
      <point x="284" y="260" type="line"/>
      <point x="285" y="260" type="line"/>
      <point x="285" y="0" type="line"/>
      <point x="390" y="0" type="line"/>
      <point x="390" y="260" type="line"/>
      <point x="660" y="700" type="line"/>
      <point x="555" y="700" type="line"/>
      <point x="336" y="351" type="line"/>
      <point x="135" y="700" type="line"/>
    </contour>
  </outline>
</glyph>
<glyph name="a" format="2">
  <advance width="477"/>
  <unicode hex="0061"/>
  <outline>
    <contour>
      <point x="337" y="333" type="curve"/>
      <point x="337" y="0" type="line"/>
      <point x="437" y="0" type="line"/>
      <point x="437" y="338" type="line" smooth="yes"/>
      <point x="437" y="434"/>
      <point x="358" y="508"/>
      <point x="229" y="508" type="curve" smooth="yes"/>
      <point x="111" y="508"/>
      <point x="20" y="448"/>
      <point x="20" y="324" type="curve"/>
      <point x="120" y="324" type="line"/>
      <point x="120" y="383"/>
      <point x="169" y="425"/>
      <point x="229" y="425" type="curve" smooth="yes"/>
      <point x="289" y="425"/>
      <point x="337" y="383"/>
    </contour>
    <contour>
      <point x="354" y="308" type="line"/>
      <point x="113" y="308"/>
      <point x="21" y="236"/>
      <point x="21" y="128" type="curve" smooth="yes"/>
      <point x="21" y="27"/>
      <point x="111" y="-8"/>
      <point x="178" y="-8" type="curve" smooth="yes"/>
      <point x="281" y="-8"/>
      <point x="351" y="43"/>
      <point x="351" y="205" type="curve"/>
      <point x="337" y="192" type="line"/>
      <point x="337" y="149"/>
      <point x="300" y="88"/>
      <point x="245" y="70" type="curve" smooth="yes"/>
      <point x="166" y="44"/>
      <point x="102" y="81"/>
      <point x="102" y="139" type="curve" smooth="yes"/>
      <point x="102" y="216"/>
      <point x="235" y="229"/>
      <point x="354" y="229" type="curve"/>
    </contour>
  </outline>
</glyph>
<glyph name="c" format="2">
  <advance width="513"/>
  <unicode hex="0063"/>
  <outline>
    <contour>
      <point x="492" y="181" type="curve"/>
      <point x="392" y="193" type="line"/>
      <point x="383" y="146"/>
      <point x="348" y="72"/>
      <point x="258" y="72" type="curve" smooth="yes"/>
      <point x="168" y="72"/>
      <point x="120" y="145"/>
      <point x="120" y="249" type="curve" smooth="yes"/>
      <point x="120" y="352"/>
      <point x="168" y="428"/>
      <point x="258" y="428" type="curve" smooth="yes"/>
      <point x="348" y="428"/>
      <point x="389" y="354"/>
      <point x="393" y="291" type="curve"/>
      <point x="493" y="304" type="line"/>
      <point x="477" y="420"/>
      <point x="398" y="508"/>
      <point x="258" y="508" type="curve" smooth="yes"/>
      <point x="118" y="508"/>
      <point x="20" y="410"/>
      <point x="20" y="249" type="curve" smooth="yes"/>
      <point x="20" y="103"/>
      <point x="115" y="-8"/>
      <point x="258" y="-8" type="curve" smooth="yes"/>
      <point x="382" y="-8"/>
      <point x="472" y="73"/>
    </contour>
  </outline>
</glyph>
<glyph name="d" format="2">
  <advance width="522"/>
  <unicode hex="0064"/>
  <outline>
    <contour>
      <point x="482" y="800" type="line"/>
      <point x="382" y="800" type="line"/>
      <point x="382" y="0" type="line"/>
      <point x="482" y="0" type="line"/>
    </contour>
    <contour>
      <point x="228" y="-8" type="curve" smooth="yes"/>
      <point x="377" y="-8"/>
      <point x="400" y="104"/>
      <point x="400" y="250" type="curve" smooth="yes"/>
      <point x="400" y="411"/>
      <point x="358" y="508"/>
      <point x="228" y="508" type="curve" smooth="yes"/>
      <point x="88" y="508"/>
      <point x="20" y="400"/>
      <point x="20" y="250" type="curve" smooth="yes"/>
      <point x="20" y="92"/>
      <point x="88" y="-8"/>
    </contour>
    <contour>
      <point x="248" y="72" type="curve" smooth="yes"/>
      <point x="158" y="72"/>
      <point x="120" y="140"/>
      <point x="120" y="250" type="curve" smooth="yes"/>
      <point x="120" y="360"/>
      <point x="158" y="428"/>
      <point x="248" y="428" type="curve" smooth="yes"/>
      <point x="343" y="428"/>
      <point x="382" y="353"/>
      <point x="382" y="250" type="curve" smooth="yes"/>
      <point x="382" y="146"/>
      <point x="343" y="72"/>
    </contour>
  </outline>
</glyph>
<glyph name="e" format="2">
  <advance width="509"/>
  <unicode hex="0065"/>
  <outline>
    <contour>
      <point x="485" y="170" type="curve"/>
      <point x="395" y="182" type="line"/>
      <point x="380" y="104"/>
      <point x="319" y="69"/>
      <point x="256" y="72" type="curve" smooth="yes"/>
      <point x="196" y="75"/>
      <point x="120" y="113"/>
      <point x="120" y="256" type="curve" smooth="yes"/>
      <point x="120" y="386"/>
      <point x="176" y="428"/>
      <point x="259" y="428" type="curve" smooth="yes"/>
      <point x="334" y="428"/>
      <point x="373" y="389"/>
      <point x="386" y="316" type="curve"/>
      <point x="99" y="316" type="line"/>
      <point x="99" y="236" type="line"/>
      <point x="485" y="236" type="line"/>
      <point x="489" y="259"/>
      <point x="489" y="280"/>
      <point x="488" y="295" type="curve" smooth="yes"/>
      <point x="480" y="420"/>
      <point x="385" y="508"/>
      <point x="259" y="508" type="curve" smooth="yes"/>
      <point x="117" y="508"/>
      <point x="20" y="417"/>
      <point x="20" y="256" type="curve" smooth="yes"/>
      <point x="20" y="110"/>
      <point x="113" y="-8"/>
      <point x="256" y="-8" type="curve" smooth="yes"/>
      <point x="372" y="-8"/>
      <point x="465" y="66"/>
    </contour>
  </outline>
</glyph>
<glyph name="g" format="2">
  <advance width="522"/>
  <unicode hex="0067"/>
  <outline>
    <contour>
      <point x="482" y="500" type="line"/>
      <point x="382" y="500" type="line"/>
      <point x="382" y="0" type="line"/>
      <point x="482" y="0" type="line"/>
    </contour>
    <contour>
      <point x="228" y="-8" type="curve" smooth="yes"/>
      <point x="368" y="-8"/>
      <point x="400" y="88"/>
      <point x="400" y="250" type="curve" smooth="yes"/>
      <point x="400" y="411"/>
      <point x="358" y="508"/>
      <point x="228" y="508" type="curve" smooth="yes"/>
      <point x="88" y="508"/>
      <point x="20" y="398"/>
      <point x="20" y="248" type="curve" smooth="yes"/>
      <point x="20" y="90"/>
      <point x="88" y="-8"/>
    </contour>
    <contour>
      <point x="248" y="72" type="curve" smooth="yes"/>
      <point x="158" y="72"/>
      <point x="120" y="138"/>
      <point x="120" y="248" type="curve" smooth="yes"/>
      <point x="120" y="358"/>
      <point x="158" y="428"/>
      <point x="248" y="428" type="curve" smooth="yes"/>
      <point x="343" y="428"/>
      <point x="382" y="353"/>
      <point x="382" y="250" type="curve" smooth="yes"/>
      <point x="382" y="146"/>
      <point x="343" y="72"/>
    </contour>
    <contour>
      <point x="482" y="0" type="curve"/>
      <point x="382" y="0" type="line"/>
      <point x="382" y="-82"/>
      <point x="331" y="-128"/>
      <point x="246" y="-128" type="curve" smooth="yes"/>
      <point x="176" y="-128"/>
      <point x="139" y="-97"/>
      <point x="129" y="-54" type="curve"/>
      <point x="37" y="-66" type="line"/>
      <point x="57" y="-170"/>
      <point x="137" y="-208"/>
      <point x="246" y="-208" type="curve" smooth="yes"/>
      <point x="396" y="-208"/>
      <point x="482" y="-136"/>
    </contour>
  </outline>
</glyph>
<glyph name="i" format="2">
  <advance width="200"/>
  <unicode hex="0069"/>
  <outline>
    <contour>
      <point x="49" y="500" type="line"/>
      <point x="49" y="0" type="line"/>
      <point x="149" y="0" type="line"/>
      <point x="149" y="500" type="line"/>
    </contour>
    <contour>
      <point x="101" y="552" type="curve" smooth="yes"/>
      <point x="138" y="552"/>
      <point x="160" y="578"/>
      <point x="160" y="615" type="curve" smooth="yes"/>
      <point x="160" y="652"/>
      <point x="138" y="677"/>
      <point x="101" y="677" type="curve" smooth="yes"/>
      <point x="64" y="677"/>
      <point x="40" y="652"/>
      <point x="40" y="615" type="curve" smooth="yes"/>
      <point x="40" y="578"/>
      <point x="64" y="552"/>
    </contour>
  </outline>
</glyph>
<glyph name="m" format="2">
  <advance width="710"/>
  <unicode hex="006D"/>
  <outline>
    <contour>
      <point x="40" y="500" type="line"/>
      <point x="40" y="0" type="line"/>
      <point x="140" y="0" type="line"/>
      <point x="140" y="399" type="line"/>
      <point x="140" y="500" type="line"/>
    </contour>
    <contour>
      <point x="307" y="336" type="curve"/>
      <point x="307" y="0" type="line"/>
      <point x="407" y="0" type="line"/>
      <point x="407" y="336" type="line" smooth="yes"/>
      <point x="407" y="432"/>
      <point x="363" y="508"/>
      <point x="267" y="508" type="curve" smooth="yes"/>
      <point x="172" y="508"/>
      <point x="122" y="433"/>
      <point x="122" y="280" type="curve"/>
      <point x="140" y="280" type="line"/>
      <point x="140" y="349"/>
      <point x="150" y="428"/>
      <point x="230" y="428" type="curve" smooth="yes"/>
      <point x="287" y="428"/>
      <point x="307" y="388"/>
    </contour>
    <contour>
      <point x="570" y="336" type="curve"/>
      <point x="570" y="0" type="line"/>
      <point x="670" y="0" type="line"/>
      <point x="670" y="336" type="line" smooth="yes"/>
      <point x="670" y="432"/>
      <point x="632" y="508"/>
      <point x="536" y="508" type="curve" smooth="yes"/>
      <point x="441" y="508"/>
      <point x="389" y="433"/>
      <point x="389" y="280" type="curve"/>
      <point x="407" y="280" type="line"/>
      <point x="407" y="349"/>
      <point x="413" y="428"/>
      <point x="493" y="428" type="curve" smooth="yes"/>
      <point x="550" y="428"/>
      <point x="570" y="388"/>
    </contour>
  </outline>
</glyph>
<glyph name="o" format="2">
  <advance width="515"/>
  <unicode hex="006F"/>
  <outline>
    <contour>
      <point x="258" y="-8" type="curve" smooth="yes"/>
      <point x="398" y="-8"/>
      <point x="495" y="94"/>
      <point x="495" y="249" type="curve" smooth="yes"/>
      <point x="495" y="404"/>
      <point x="398" y="508"/>
      <point x="258" y="508" type="curve" smooth="yes"/>
      <point x="118" y="508"/>
      <point x="20" y="404"/>
      <point x="20" y="249" type="curve" smooth="yes"/>
      <point x="20" y="94"/>
      <point x="118" y="-8"/>
    </contour>
    <contour>
      <point x="258" y="72" type="curve" smooth="yes"/>
      <point x="168" y="72"/>
      <point x="120" y="139"/>
      <point x="120" y="249" type="curve" smooth="yes"/>
      <point x="120" y="359"/>
      <point x="168" y="428"/>
      <point x="258" y="428" type="curve" smooth="yes"/>
      <point x="348" y="428"/>
      <point x="395" y="359"/>
      <point x="395" y="249" type="curve" smooth="yes"/>
      <point x="395" y="139"/>
      <point x="348" y="72"/>
    </contour>
  </outline>
</glyph>
<glyph name="p" format="2">
  <advance width="522"/>
  <unicode hex="0070"/>
  <outline>
    <contour>
      <point x="40" y="500" type="line"/>
      <point x="40" y="-200" type="line"/>
      <point x="140" y="-200" type="line"/>
      <point x="140" y="95" type="line"/>
      <point x="161" y="32"/>
      <point x="205" y="-8"/>
      <point x="294" y="-8" type="curve" smooth="yes"/>
      <point x="434" y="-8"/>
      <point x="502" y="92"/>
      <point x="502" y="250" type="curve" smooth="yes"/>
      <point x="502" y="400"/>
      <point x="434" y="508"/>
      <point x="294" y="508" type="curve" smooth="yes"/>
      <point x="209" y="508"/>
      <point x="163" y="469"/>
      <point x="140" y="399" type="curve"/>
      <point x="140" y="500" type="line"/>
    </contour>
    <contour>
      <point x="274" y="72" type="curve" smooth="yes"/>
      <point x="179" y="72"/>
      <point x="140" y="140"/>
      <point x="140" y="250" type="curve" smooth="yes"/>
      <point x="140" y="360"/>
      <point x="179" y="428"/>
      <point x="274" y="428" type="curve" smooth="yes"/>
      <point x="368" y="428"/>
      <point x="402" y="360"/>
      <point x="402" y="250" type="curve" smooth="yes"/>
      <point x="402" y="140"/>
      <point x="368" y="72"/>
    </contour>
  </outline>
</glyph>
<glyph name="q" format="2">
  <advance width="522"/>
  <unicode hex="0071"/>
  <outline>
    <contour>
      <point x="482" y="500" type="line"/>
      <point x="382" y="500" type="line"/>
      <point x="382" y="-200" type="line"/>
      <point x="482" y="-200" type="line"/>
    </contour>
    <contour>
      <point x="228" y="-8" type="curve" smooth="yes"/>
      <point x="362" y="-8"/>
      <point x="400" y="104"/>
      <point x="400" y="250" type="curve" smooth="yes"/>
      <point x="400" y="411"/>
      <point x="380" y="508"/>
      <point x="228" y="508" type="curve" smooth="yes"/>
      <point x="98" y="508"/>
      <point x="20" y="398"/>
      <point x="20" y="248" type="curve" smooth="yes"/>
      <point x="20" y="90"/>
      <point x="78" y="-8"/>
    </contour>
    <contour>
      <point x="249" y="72" type="curve" smooth="yes"/>
      <point x="159" y="72"/>
      <point x="121" y="140"/>
      <point x="120" y="248" type="curve" smooth="yes"/>
      <point x="121" y="361"/>
      <point x="174" y="428"/>
      <point x="261" y="428" type="curve" smooth="yes"/>
      <point x="338" y="428"/>
      <point x="382" y="353"/>
      <point x="382" y="250" type="curve" smooth="yes"/>
      <point x="382" y="146"/>
      <point x="327" y="72"/>
    </contour>
  </outline>
</glyph>
<glyph name="s" format="2">
  <advance width="449"/>
  <unicode hex="0073"/>
  <outline>
    <contour>
      <point x="20" y="357" type="curve"/>
      <point x="20" y="172"/>
      <point x="329" y="243"/>
      <point x="329" y="138" type="curve"/>
      <point x="329" y="102"/>
      <point x="293" y="72"/>
      <point x="216" y="72" type="curve" smooth="yes"/>
      <point x="151" y="72"/>
      <point x="112" y="96"/>
      <point x="112" y="146" type="curve"/>
      <point x="21" y="141" type="line"/>
      <point x="21" y="51"/>
      <point x="96" y="-8"/>
      <point x="216" y="-8" type="curve" smooth="yes"/>
      <point x="341" y="-8"/>
      <point x="429" y="61"/>
      <point x="429" y="148" type="curve" smooth="yes"/>
      <point x="429" y="323"/>
      <point x="120" y="272"/>
      <point x="120" y="367" type="curve"/>
      <point x="120" y="403"/>
      <point x="164" y="428"/>
      <point x="216" y="428" type="curve" smooth="yes"/>
      <point x="286" y="428"/>
      <point x="334" y="381"/>
      <point x="334" y="331" type="curve"/>
      <point x="425" y="336" type="line"/>
      <point x="425" y="426"/>
      <point x="341" y="508"/>
      <point x="216" y="508" type="curve" smooth="yes"/>
      <point x="91" y="508"/>
      <point x="20" y="443"/>
    </contour>
  </outline>
</glyph>
<glyph name="t" format="2">
  <advance width="397"/>
  <unicode hex="0074"/>
  <outline>
    <contour>
      <point x="377" y="32" type="curve"/>
      <point x="377" y="112" type="line"/>
      <point x="356" y="95"/>
      <point x="327" y="71"/>
      <point x="281" y="71" type="curve" smooth="yes"/>
      <point x="227" y="71"/>
      <point x="198" y="104"/>
      <point x="198" y="163" type="curve"/>
      <point x="198" y="605" type="line"/>
      <point x="98" y="605" type="line"/>
      <point x="98" y="158" type="line" smooth="yes"/>
      <point x="98" y="34"/>
      <point x="200" y="-9"/>
      <point x="272" y="-9" type="curve" smooth="yes"/>
      <point x="322" y="-9"/>
      <point x="352" y="12"/>
    </contour>
    <contour>
      <point x="20" y="496" type="line"/>
      <point x="20" y="416" type="line"/>
      <point x="362" y="416" type="line"/>
      <point x="362" y="496" type="line"/>
    </contour>
  </outline>
</glyph>
<glyph name="w" format="2">
  <advance width="710"/>
  <unicode hex="0077"/>
  <outline>
    <contour>
      <point x="30" y="500" type="line"/>
      <point x="152" y="0" type="line"/>
      <point x="252" y="0" type="line"/>
      <point x="350" y="362" type="line"/>
      <point x="434" y="0" type="line"/>
      <point x="534" y="0" type="line"/>
      <point x="680" y="500" type="line"/>
      <point x="580" y="500" type="line"/>
      <point x="483" y="132" type="line"/>
      <point x="400" y="499" type="line"/>
      <point x="310" y="499" type="line"/>
      <point x="209" y="132" type="line"/>
      <point x="130" y="500" type="line"/>
    </contour>
  </outline>
</glyph>
<glyph name="x" format="2">
  <advance width="532"/>
  <unicode hex="0078"/>
  <outline>
    <contour>
      <point x="30" y="499" type="line"/>
      <point x="206" y="250" type="line"/>
      <point x="32" y="0" type="line"/>
      <point x="139" y="0" type="line"/>
      <point x="270" y="180" type="line"/>
      <point x="399" y="0" type="line"/>
      <point x="502" y="0" type="line"/>
      <point x="333" y="250" type="line"/>
      <point x="500" y="499" type="line"/>
      <point x="394" y="499" type="line"/>
      <point x="270" y="310" type="line"/>
      <point x="136" y="499" type="line"/>
    </contour>
  </outline>
</glyph>
<glyph name="y" format="2">
  <advance width="538"/>
  <unicode hex="0079"/>
  <outline>
    <contour>
      <point x="30" y="500" type="line"/>
      <point x="219" y="0" type="line"/>
      <point x="319" y="0" type="line"/>
      <point x="508" y="499" type="line"/>
      <point x="408" y="499" type="line"/>
      <point x="268" y="132" type="line"/>
      <point x="128" y="500" type="line"/>
    </contour>
    <contour>
      <point x="319" y="0" type="curve"/>
      <point x="219" y="0" type="line"/>
      <point x="217" y="-57"/>
      <point x="184" y="-125"/>
      <point x="120" y="-127" type="curve" smooth="yes"/>
      <point x="93" y="-128"/>
      <point x="56" y="-118"/>
      <point x="35" y="-101" type="curve"/>
      <point x="35" y="-181" type="line"/>
      <point x="61" y="-198"/>
      <point x="97" y="-208"/>
      <point x="130" y="-208" type="curve" smooth="yes"/>
      <point x="225" y="-208"/>
      <point x="279" y="-115"/>
    </contour>
  </outline>
</glyph>
<glyph name="A.init.alt" format="2">
  <advance width="720"/>
  <outline>
    <contour>
      <point x="50" y="-200" type="line"/>
      <point x="155" y="-200" type="line"/>
      <point x="384" y="391" type="line"/>
      <point x="615" y="-200" type="line"/>
      <point x="720" y="-200" type="line"/>
      <point x="456" y="501" type="line"/>
      <point x="316" y="501" type="line"/>
    </contour>
    <contour>
      <point x="192" y="100" type="line"/>
      <point x="192" y="10" type="line"/>
      <point x="572" y="10" type="line"/>
      <point x="572" y="100" type="line"/>
    </contour>
  </outline>
</glyph>
<glyph name="A.init" format="2">
  <advance width="770"/>
  <outline>
    <contour>
      <point x="50" y="100" type="line"/>
      <point x="155" y="100" type="line"/>
      <point x="384" y="691" type="line"/>
      <point x="615" y="100" type="line"/>
      <point x="720" y="100" type="line"/>
      <point x="456" y="801" type="line"/>
      <point x="316" y="801" type="line"/>
    </contour>
    <contour>
      <point x="192" y="400" type="line"/>
      <point x="192" y="310" type="line"/>
      <point x="572" y="310" type="line"/>
      <point x="572" y="400" type="line"/>
    </contour>
  </outline>
</glyph>
<glyph name="B.init.alt" format="2">
  <advance width="568"/>
  <outline>
    <contour>
      <point x="50" y="-200" type="line"/>
      <point x="307" y="-200" type="line" smooth="yes"/>
      <point x="483" y="-200"/>
      <point x="568" y="-133"/>
      <point x="568" y="12" type="curve" smooth="yes"/>
      <point x="568" y="76"/>
      <point x="541" y="134"/>
      <point x="466" y="173" type="curve"/>
      <point x="514" y="209"/>
      <point x="541" y="256"/>
      <point x="541" y="324" type="curve" smooth="yes"/>
      <point x="541" y="440"/>
      <point x="449" y="500"/>
      <point x="307" y="500" type="curve" smooth="yes"/>
      <point x="50" y="500" type="line"/>
    </contour>
    <contour>
      <point x="155" y="-111" type="line"/>
      <point x="155" y="127" type="line"/>
      <point x="307" y="127" type="line" smooth="yes"/>
      <point x="403" y="127"/>
      <point x="463" y="77"/>
      <point x="463" y="12" type="curve" smooth="yes"/>
      <point x="463" y="-64"/>
      <point x="418" y="-109"/>
      <point x="307" y="-110" type="curve" smooth="yes"/>
    </contour>
    <contour>
      <point x="155" y="217" type="line"/>
      <point x="155" y="410" type="line"/>
      <point x="307" y="410" type="line" smooth="yes"/>
      <point x="379" y="410"/>
      <point x="436" y="380"/>
      <point x="436" y="324" type="curve" smooth="yes"/>
      <point x="436" y="252"/>
      <point x="396" y="217"/>
      <point x="307" y="217" type="curve" smooth="yes"/>
    </contour>
  </outline>
</glyph>
<glyph name="B.init" format="2">
  <advance width="568"/>
  <outline>
    <contour>
      <point x="50" y="100" type="line"/>
      <point x="307" y="100" type="line" smooth="yes"/>
      <point x="483" y="100"/>
      <point x="568" y="167"/>
      <point x="568" y="312" type="curve" smooth="yes"/>
      <point x="568" y="376"/>
      <point x="541" y="434"/>
      <point x="466" y="473" type="curve"/>
      <point x="514" y="509"/>
      <point x="541" y="556"/>
      <point x="541" y="624" type="curve" smooth="yes"/>
      <point x="541" y="740"/>
      <point x="449" y="800"/>
      <point x="307" y="800" type="curve" smooth="yes"/>
      <point x="50" y="800" type="line"/>
    </contour>
    <contour>
      <point x="155" y="189" type="line"/>
      <point x="155" y="427" type="line"/>
      <point x="307" y="427" type="line" smooth="yes"/>
      <point x="403" y="427"/>
      <point x="463" y="377"/>
      <point x="463" y="312" type="curve" smooth="yes"/>
      <point x="463" y="236"/>
      <point x="418" y="191"/>
      <point x="307" y="190" type="curve" smooth="yes"/>
    </contour>
    <contour>
      <point x="155" y="517" type="line"/>
      <point x="155" y="710" type="line"/>
      <point x="307" y="710" type="line" smooth="yes"/>
      <point x="379" y="710"/>
      <point x="436" y="680"/>
      <point x="436" y="624" type="curve" smooth="yes"/>
      <point x="436" y="552"/>
      <point x="396" y="517"/>
      <point x="307" y="517" type="curve" smooth="yes"/>
    </contour>
  </outline>
</glyph>
<glyph name="C.init" format="2">
  <advance width="711"/>
  <outline>
    <contour>
      <point x="681" y="343" type="curve"/>
      <point x="576" y="360" type="line"/>
      <point x="560" y="287"/>
      <point x="492" y="182"/>
      <point x="352" y="182" type="curve" smooth="yes"/>
      <point x="212" y="182"/>
      <point x="135" y="285"/>
      <point x="135" y="450" type="curve" smooth="yes"/>
      <point x="135" y="615"/>
      <point x="212" y="718"/>
      <point x="352" y="718" type="curve" smooth="yes"/>
      <point x="492" y="718"/>
      <point x="563" y="617"/>
      <point x="576" y="535" type="curve"/>
      <point x="681" y="552" type="line"/>
      <point x="641" y="710"/>
      <point x="547" y="808"/>
      <point x="352" y="808" type="curve" smooth="yes"/>
      <point x="157" y="808"/>
      <point x="30" y="665"/>
      <point x="30" y="450" type="curve" smooth="yes"/>
      <point x="30" y="235"/>
      <point x="157" y="92"/>
      <point x="352" y="92" type="curve" smooth="yes"/>
      <point x="547" y="92"/>
      <point x="641" y="197"/>
    </contour>
  </outline>
</glyph>
<glyph name="D.init.alt" format="2">
  <advance width="660"/>
  <outline>
    <contour>
      <point x="70" y="500" type="line"/>
      <point x="70" y="-200" type="line"/>
      <point x="299" y="-200" type="line" smooth="yes"/>
      <point x="494" y="-200"/>
      <point x="636" y="-60"/>
      <point x="636" y="150" type="curve" smooth="yes"/>
      <point x="636" y="360"/>
      <point x="495" y="500"/>
      <point x="300" y="500" type="curve" smooth="yes"/>
    </contour>
    <contour>
      <point x="175" y="-110" type="line"/>
      <point x="175" y="410" type="line"/>
      <point x="300" y="410" type="line" smooth="yes"/>
      <point x="433" y="410"/>
      <point x="531" y="310"/>
      <point x="531" y="150" type="curve" smooth="yes"/>
      <point x="531" y="-10"/>
      <point x="432" y="-110"/>
      <point x="299" y="-110" type="curve" smooth="yes"/>
    </contour>
  </outline>
</glyph>
<glyph name="D.init" format="2">
  <advance width="660"/>
  <outline>
    <contour>
      <point x="70" y="800" type="line"/>
      <point x="70" y="100" type="line"/>
      <point x="299" y="100" type="line" smooth="yes"/>
      <point x="494" y="100"/>
      <point x="636" y="240"/>
      <point x="636" y="450" type="curve" smooth="yes"/>
      <point x="636" y="660"/>
      <point x="495" y="800"/>
      <point x="300" y="800" type="curve" smooth="yes"/>
    </contour>
    <contour>
      <point x="175" y="190" type="line"/>
      <point x="175" y="710" type="line"/>
      <point x="300" y="710" type="line" smooth="yes"/>
      <point x="433" y="710"/>
      <point x="531" y="610"/>
      <point x="531" y="450" type="curve" smooth="yes"/>
      <point x="531" y="290"/>
      <point x="432" y="190"/>
      <point x="299" y="190" type="curve" smooth="yes"/>
    </contour>
  </outline>
</glyph>
<glyph name="G.init.alt" format="2">
  <advance width="711"/>
  <outline>
    <contour>
      <point x="681" y="-200" type="line"/>
      <point x="681" y="170" type="line"/>
      <point x="339" y="169" type="line"/>
      <point x="339" y="79" type="line"/>
      <point x="560" y="79" type="line"/>
      <point x="559" y="-16"/>
      <point x="492" y="-118"/>
      <point x="352" y="-118" type="curve" smooth="yes"/>
      <point x="212" y="-118"/>
      <point x="135" y="-15"/>
      <point x="135" y="150" type="curve" smooth="yes"/>
      <point x="135" y="315"/>
      <point x="212" y="418"/>
      <point x="352" y="418" type="curve" smooth="yes"/>
      <point x="471" y="418"/>
      <point x="562" y="343"/>
      <point x="580" y="261" type="curve"/>
      <point x="681" y="278" type="line"/>
      <point x="636" y="436"/>
      <point x="493" y="508"/>
      <point x="352" y="508" type="curve" smooth="yes"/>
      <point x="157" y="508"/>
      <point x="30" y="365"/>
      <point x="30" y="150" type="curve" smooth="yes"/>
      <point x="30" y="-65"/>
      <point x="157" y="-208"/>
      <point x="352" y="-208" type="curve" smooth="yes"/>
      <point x="547" y="-208"/>
      <point x="600" y="-64"/>
      <point x="590" y="79" type="curve"/>
      <point x="590" y="-200" type="line"/>
    </contour>
  </outline>
</glyph>
<glyph name="I.init" format="2">
  <advance width="205"/>
  <outline>
    <contour>
      <point x="50" y="800" type="line"/>
      <point x="50" y="100" type="line"/>
      <point x="155" y="100" type="line"/>
      <point x="155" y="800" type="line"/>
    </contour>
  </outline>
</glyph>
<glyph name="J.init.alt" format="2">
  <advance width="660"/>
  <outline>
    <contour>
      <point x="486" y="500" type="line"/>
      <point x="486" y="60" type="line"/>
      <point x="486" y="-68"/>
      <point x="441" y="-108"/>
      <point x="376" y="-108" type="curve"/>
      <point x="310" y="-108"/>
      <point x="246" y="-67"/>
      <point x="246" y="25" type="curve"/>
      <point x="141" y="25" type="line"/>
      <point x="141" y="-112"/>
      <point x="224" y="-208"/>
      <point x="384" y="-208" type="curve"/>
      <point x="588" y="-208"/>
      <point x="591" y="-49"/>
      <point x="591" y="40" type="curve"/>
      <point x="591" y="500" type="line"/>
    </contour>
  </outline>
</glyph>
<glyph name="J.init" format="2">
  <advance width="660"/>
  <outline>
    <contour>
      <point x="486" y="800" type="line"/>
      <point x="486" y="360" type="line"/>
      <point x="486" y="232"/>
      <point x="441" y="192"/>
      <point x="376" y="192" type="curve"/>
      <point x="310" y="192"/>
      <point x="246" y="233"/>
      <point x="246" y="325" type="curve"/>
      <point x="141" y="325" type="line"/>
      <point x="141" y="188"/>
      <point x="224" y="92"/>
      <point x="384" y="92" type="curve"/>
      <point x="588" y="92"/>
      <point x="591" y="251"/>
      <point x="591" y="340" type="curve"/>
      <point x="591" y="800" type="line"/>
    </contour>
  </outline>
</glyph>
<glyph name="K.init.alt" format="2">
  <advance width="660"/>
  <outline>
    <contour>
      <point x="176" y="148" type="line"/>
      <point x="446" y="-200" type="line"/>
      <point x="569" y="-200" type="line"/>
      <point x="296" y="148" type="line"/>
      <point x="589" y="507" type="line"/>
      <point x="464" y="507" type="line"/>
    </contour>
    <contour>
      <point x="95" y="500" type="line"/>
      <point x="95" y="-200" type="line"/>
      <point x="200" y="-200" type="line"/>
      <point x="200" y="500" type="line"/>
    </contour>
  </outline>
</glyph>
<glyph name="M.init.alt" format="2">
  <advance width="791"/>
  <outline>
    <contour>
      <point x="343" y="-200" type="line"/>
      <point x="448" y="-200" type="line"/>
      <point x="636" y="328" type="line"/>
      <point x="636" y="-200" type="line"/>
      <point x="741" y="-200" type="line"/>
      <point x="741" y="500" type="line"/>
      <point x="584" y="498" type="line"/>
      <point x="396" y="-58" type="line"/>
      <point x="202" y="500" type="line"/>
      <point x="50" y="500" type="line"/>
      <point x="50" y="-200" type="line"/>
      <point x="155" y="-200" type="line"/>
      <point x="155" y="328" type="line"/>
    </contour>
  </outline>
</glyph>
<glyph name="N.init" format="2">
  <advance width="651"/>
  <outline>
    <contour>
      <point x="496" y="800" type="line"/>
      <point x="496" y="209" type="line"/>
      <point x="208" y="800" type="line"/>
      <point x="50" y="800" type="line"/>
      <point x="50" y="100" type="line"/>
      <point x="155" y="100" type="line"/>
      <point x="155" y="671" type="line"/>
      <point x="443" y="100" type="line"/>
      <point x="601" y="100" type="line"/>
      <point x="601" y="800" type="line"/>
    </contour>
  </outline>
</glyph>
<glyph name="O.init.alt" format="2">
  <advance width="711"/>
  <outline>
    <contour>
      <point x="352" y="-209" type="curve" smooth="yes"/>
      <point x="547" y="-209"/>
      <point x="681" y="-66"/>
      <point x="681" y="149" type="curve" smooth="yes"/>
      <point x="681" y="364"/>
      <point x="547" y="507"/>
      <point x="352" y="507" type="curve" smooth="yes"/>
      <point x="157" y="507"/>
      <point x="30" y="364"/>
      <point x="30" y="149" type="curve" smooth="yes"/>
      <point x="30" y="-66"/>
      <point x="157" y="-209"/>
    </contour>
    <contour>
      <point x="352" y="-119" type="curve" smooth="yes"/>
      <point x="212" y="-119"/>
      <point x="135" y="-16"/>
      <point x="135" y="149" type="curve" smooth="yes"/>
      <point x="135" y="314"/>
      <point x="212" y="417"/>
      <point x="352" y="417" type="curve" smooth="yes"/>
      <point x="492" y="417"/>
      <point x="576" y="314"/>
      <point x="576" y="149" type="curve" smooth="yes"/>
      <point x="576" y="-16"/>
      <point x="492" y="-119"/>
    </contour>
  </outline>
</glyph>
<glyph name="P.init.alt" format="2">
  <advance width="571"/>
  <outline>
    <contour>
      <point x="50" y="500" type="line"/>
      <point x="50" y="-200" type="line"/>
      <point x="155" y="-200" type="line"/>
      <point x="155" y="500" type="line"/>
    </contour>
    <contour>
      <point x="155" y="178" type="line"/>
      <point x="155" y="88" type="line"/>
      <point x="317" y="88" type="line"/>
      <point x="317" y="178" type="line"/>
    </contour>
    <contour>
      <point x="155" y="500" type="line"/>
      <point x="155" y="410" type="line"/>
      <point x="317" y="410" type="line"/>
      <point x="317" y="500" type="line"/>
    </contour>
    <contour>
      <point x="317" y="500" type="curve"/>
      <point x="317" y="410" type="line"/>
      <point x="383" y="410"/>
      <point x="441" y="366"/>
      <point x="441" y="295" type="curve"/>
      <point x="441" y="225"/>
      <point x="384" y="180"/>
      <point x="317" y="178" type="curve"/>
      <point x="317" y="88" type="line"/>
      <point x="436" y="90"/>
      <point x="541" y="144"/>
      <point x="541" y="295" type="curve" smooth="yes"/>
      <point x="541" y="446"/>
      <point x="436" y="500"/>
    </contour>
  </outline>
</glyph>
<glyph name="P.init" format="2">
  <advance width="571"/>
  <outline>
    <contour>
      <point x="50" y="800" type="line"/>
      <point x="50" y="100" type="line"/>
      <point x="155" y="100" type="line"/>
      <point x="155" y="800" type="line"/>
    </contour>
    <contour>
      <point x="155" y="478" type="line"/>
      <point x="155" y="388" type="line"/>
      <point x="317" y="388" type="line"/>
      <point x="317" y="478" type="line"/>
    </contour>
    <contour>
      <point x="155" y="800" type="line"/>
      <point x="155" y="710" type="line"/>
      <point x="317" y="710" type="line"/>
      <point x="317" y="800" type="line"/>
    </contour>
    <contour>
      <point x="317" y="800" type="curve"/>
      <point x="317" y="710" type="line"/>
      <point x="383" y="710"/>
      <point x="441" y="666"/>
      <point x="441" y="595" type="curve"/>
      <point x="441" y="525"/>
      <point x="384" y="480"/>
      <point x="317" y="478" type="curve"/>
      <point x="317" y="388" type="line"/>
      <point x="436" y="390"/>
      <point x="541" y="444"/>
      <point x="541" y="595" type="curve" smooth="yes"/>
      <point x="541" y="746"/>
      <point x="436" y="800"/>
    </contour>
  </outline>
</glyph>
<glyph name="Q.init.alt" format="2">
  <advance width="736"/>
  <outline>
    <contour>
      <point x="377" y="-208" type="curve" smooth="yes"/>
      <point x="574" y="-208"/>
      <point x="706" y="-65"/>
      <point x="706" y="150" type="curve" smooth="yes"/>
      <point x="706" y="366"/>
      <point x="574" y="510"/>
      <point x="377" y="510" type="curve" smooth="yes"/>
      <point x="184" y="510"/>
      <point x="55" y="366"/>
      <point x="55" y="150" type="curve" smooth="yes"/>
      <point x="55" y="-65"/>
      <point x="184" y="-208"/>
    </contour>
    <contour>
      <point x="377" y="-118" type="curve" smooth="yes"/>
      <point x="245" y="-118"/>
      <point x="160" y="-19"/>
      <point x="160" y="150" type="curve" smooth="yes"/>
      <point x="160" y="313"/>
      <point x="241" y="420"/>
      <point x="377" y="420" type="curve" smooth="yes"/>
      <point x="512" y="420"/>
      <point x="601" y="319"/>
      <point x="601" y="150" type="curve" smooth="yes"/>
      <point x="601" y="-12"/>
      <point x="518" y="-118"/>
    </contour>
    <contour>
      <point x="462" y="41" type="line"/>
      <point x="392" y="-32" type="line"/>
      <point x="636" y="-275" type="line"/>
      <point x="706" y="-203" type="line"/>
    </contour>
  </outline>
</glyph>
<glyph name="Q.init" format="2">
  <advance width="736"/>
  <outline>
    <contour>
      <point x="377" y="92" type="curve" smooth="yes"/>
      <point x="574" y="92"/>
      <point x="706" y="235"/>
      <point x="706" y="450" type="curve" smooth="yes"/>
      <point x="706" y="666"/>
      <point x="574" y="810"/>
      <point x="377" y="810" type="curve" smooth="yes"/>
      <point x="184" y="810"/>
      <point x="55" y="666"/>
      <point x="55" y="450" type="curve" smooth="yes"/>
      <point x="55" y="235"/>
      <point x="184" y="92"/>
    </contour>
    <contour>
      <point x="377" y="182" type="curve" smooth="yes"/>
      <point x="245" y="182"/>
      <point x="160" y="281"/>
      <point x="160" y="450" type="curve" smooth="yes"/>
      <point x="160" y="613"/>
      <point x="241" y="720"/>
      <point x="377" y="720" type="curve" smooth="yes"/>
      <point x="512" y="720"/>
      <point x="601" y="619"/>
      <point x="601" y="450" type="curve" smooth="yes"/>
      <point x="601" y="288"/>
      <point x="518" y="182"/>
    </contour>
    <contour>
      <point x="462" y="341" type="line"/>
      <point x="392" y="268" type="line"/>
      <point x="636" y="25" type="line"/>
      <point x="706" y="97" type="line"/>
    </contour>
  </outline>
</glyph>
<glyph name="R.init.alt" format="2">
  <advance width="572"/>
  <outline>
    <contour>
      <point x="50" y="500" type="line"/>
      <point x="50" y="-200" type="line"/>
      <point x="155" y="-200" type="line"/>
      <point x="155" y="500" type="line"/>
    </contour>
    <contour>
      <point x="155" y="178" type="line"/>
      <point x="155" y="88" type="line"/>
      <point x="317" y="88" type="line"/>
      <point x="317" y="178" type="line"/>
    </contour>
    <contour>
      <point x="155" y="500" type="line"/>
      <point x="155" y="410" type="line"/>
      <point x="317" y="410" type="line"/>
      <point x="317" y="500" type="line"/>
    </contour>
    <contour>
      <point x="317" y="500" type="curve"/>
      <point x="317" y="410" type="line"/>
      <point x="383" y="410"/>
      <point x="441" y="369"/>
      <point x="441" y="286" type="curve"/>
      <point x="441" y="209"/>
      <point x="384" y="180"/>
      <point x="317" y="178" type="curve"/>
      <point x="317" y="88" type="line"/>
      <point x="436" y="90"/>
      <point x="541" y="135"/>
      <point x="541" y="286" type="curve" smooth="yes"/>
      <point x="541" y="437"/>
      <point x="436" y="500"/>
    </contour>
    <contour>
      <point x="244" y="106" type="line"/>
      <point x="417" y="-200" type="line"/>
      <point x="542" y="-200" type="line"/>
      <point x="359" y="105" type="line"/>
    </contour>
  </outline>
</glyph>
<glyph name="R.init" format="2">
  <advance width="572"/>
  <outline>
    <contour>
      <point x="50" y="800" type="line"/>
      <point x="50" y="100" type="line"/>
      <point x="155" y="100" type="line"/>
      <point x="155" y="800" type="line"/>
    </contour>
    <contour>
      <point x="155" y="478" type="line"/>
      <point x="155" y="388" type="line"/>
      <point x="317" y="388" type="line"/>
      <point x="317" y="478" type="line"/>
    </contour>
    <contour>
      <point x="155" y="800" type="line"/>
      <point x="155" y="710" type="line"/>
      <point x="317" y="710" type="line"/>
      <point x="317" y="800" type="line"/>
    </contour>
    <contour>
      <point x="317" y="800" type="curve"/>
      <point x="317" y="710" type="line"/>
      <point x="383" y="710"/>
      <point x="441" y="669"/>
      <point x="441" y="586" type="curve"/>
      <point x="441" y="509"/>
      <point x="384" y="480"/>
      <point x="317" y="478" type="curve"/>
      <point x="317" y="388" type="line"/>
      <point x="436" y="390"/>
      <point x="541" y="435"/>
      <point x="541" y="586" type="curve" smooth="yes"/>
      <point x="541" y="737"/>
      <point x="436" y="800"/>
    </contour>
    <contour>
      <point x="244" y="406" type="line"/>
      <point x="417" y="101" type="line"/>
      <point x="542" y="100" type="line"/>
      <point x="359" y="405" type="line"/>
    </contour>
  </outline>
</glyph>
<glyph name="S.init.alt" format="2">
  <advance width="578"/>
  <outline>
    <contour>
      <point x="25" y="310" type="curve"/>
      <point x="25" y="53"/>
      <point x="453" y="150"/>
      <point x="453" y="-16" type="curve"/>
      <point x="453" y="-77"/>
      <point x="386" y="-118"/>
      <point x="280" y="-118" type="curve" smooth="yes"/>
      <point x="190" y="-118"/>
      <point x="125" y="-74"/>
      <point x="125" y="-5" type="curve"/>
      <point x="20" y="-12" type="line"/>
      <point x="20" y="-137"/>
      <point x="113" y="-208"/>
      <point x="280" y="-208" type="curve" smooth="yes"/>
      <point x="453" y="-208"/>
      <point x="558" y="-123"/>
      <point x="558" y="-2" type="curve" smooth="yes"/>
      <point x="558" y="240"/>
      <point x="130" y="172"/>
      <point x="130" y="324" type="curve"/>
      <point x="131" y="389"/>
      <point x="207" y="419"/>
      <point x="280" y="419" type="curve" smooth="yes"/>
      <point x="369" y="419"/>
      <point x="451" y="373"/>
      <point x="451" y="304" type="curve"/>
      <point x="556" y="311" type="line"/>
      <point x="556" y="435"/>
      <point x="453" y="509"/>
      <point x="280" y="509" type="curve" smooth="yes"/>
      <point x="106" y="509"/>
      <point x="25" y="429"/>
    </contour>
  </outline>
</glyph>
<glyph name="S.init" format="2">
  <advance width="578"/>
  <outline>
    <contour>
      <point x="25" y="609" type="curve"/>
      <point x="25" y="352"/>
      <point x="453" y="471"/>
      <point x="453" y="305" type="curve"/>
      <point x="453" y="244"/>
      <point x="386" y="203"/>
      <point x="280" y="203" type="curve" smooth="yes"/>
      <point x="190" y="203"/>
      <point x="125" y="247"/>
      <point x="125" y="316" type="curve"/>
      <point x="20" y="309" type="line"/>
      <point x="20" y="184"/>
      <point x="113" y="113"/>
      <point x="280" y="113" type="curve" smooth="yes"/>
      <point x="453" y="113"/>
      <point x="558" y="198"/>
      <point x="558" y="319" type="curve" smooth="yes"/>
      <point x="558" y="561"/>
      <point x="130" y="471"/>
      <point x="130" y="623" type="curve"/>
      <point x="131" y="688"/>
      <point x="207" y="718"/>
      <point x="280" y="718" type="curve" smooth="yes"/>
      <point x="369" y="718"/>
      <point x="451" y="672"/>
      <point x="451" y="603" type="curve"/>
      <point x="556" y="610" type="line"/>
      <point x="556" y="734"/>
      <point x="453" y="808"/>
      <point x="280" y="808" type="curve" smooth="yes"/>
      <point x="106" y="808"/>
      <point x="25" y="728"/>
    </contour>
  </outline>
</glyph>
<glyph name="T.init.alt" format="2">
  <advance width="494"/>
  <outline>
    <contour>
      <point x="195" y="500" type="line"/>
      <point x="195" y="-200" type="line"/>
      <point x="300" y="-200" type="line"/>
      <point x="300" y="500" type="line"/>
    </contour>
    <contour>
      <point x="20" y="500" type="line"/>
      <point x="20" y="410" type="line"/>
      <point x="195" y="410" type="line"/>
      <point x="195" y="500" type="line"/>
    </contour>
    <contour>
      <point x="300" y="500" type="line"/>
      <point x="300" y="410" type="line"/>
      <point x="474" y="410" type="line"/>
      <point x="474" y="500" type="line"/>
    </contour>
  </outline>
</glyph>
<glyph name="U.init.alt" format="2">
  <advance width="660"/>
  <outline>
    <contour>
      <point x="486" y="500" type="line"/>
      <point x="486" y="60" type="line"/>
      <point x="486" y="-67"/>
      <point x="403" y="-108"/>
      <point x="328" y="-108" type="curve"/>
      <point x="253" y="-108"/>
      <point x="175" y="-67"/>
      <point x="175" y="60" type="curve"/>
      <point x="175" y="500" type="line"/>
      <point x="70" y="500" type="line"/>
      <point x="70" y="40" type="line"/>
      <point x="70" y="-97"/>
      <point x="171" y="-208"/>
      <point x="326" y="-208" type="curve"/>
      <point x="481" y="-208"/>
      <point x="591" y="-99"/>
      <point x="591" y="40" type="curve"/>
      <point x="591" y="500" type="line"/>
    </contour>
  </outline>
</glyph>
<glyph name="U.init" format="2">
  <advance width="660"/>
  <outline>
    <contour>
      <point x="486" y="800" type="line"/>
      <point x="486" y="360" type="line"/>
      <point x="486" y="233"/>
      <point x="403" y="192"/>
      <point x="328" y="192" type="curve"/>
      <point x="253" y="192"/>
      <point x="175" y="233"/>
      <point x="175" y="360" type="curve"/>
      <point x="175" y="800" type="line"/>
      <point x="70" y="800" type="line"/>
      <point x="70" y="340" type="line"/>
      <point x="70" y="203"/>
      <point x="171" y="92"/>
      <point x="326" y="92" type="curve"/>
      <point x="481" y="92"/>
      <point x="591" y="201"/>
      <point x="591" y="340" type="curve"/>
      <point x="591" y="800" type="line"/>
    </contour>
  </outline>
</glyph>
<glyph name="V.init.alt" format="2">
  <advance width="730"/>
  <outline>
    <contour>
      <point x="30" y="501" type="line"/>
      <point x="296" y="-200" type="line"/>
      <point x="436" y="-200" type="line"/>
      <point x="700" y="500" type="line"/>
      <point x="595" y="500" type="line"/>
      <point x="364" y="-90" type="line"/>
      <point x="135" y="501" type="line"/>
    </contour>
  </outline>
</glyph>
<glyph name="W.init" format="2">
  <advance width="934"/>
  <outline>
    <contour>
      <point x="30" y="800" type="line"/>
      <point x="183" y="100" type="line"/>
      <point x="323" y="100" type="line"/>
      <point x="460" y="648" type="line"/>
      <point x="578" y="100" type="line"/>
      <point x="718" y="100" type="line"/>
      <point x="904" y="800" type="line"/>
      <point x="799" y="800" type="line"/>
      <point x="646" y="210" type="line"/>
      <point x="532" y="800" type="line"/>
      <point x="402" y="800" type="line"/>
      <point x="263" y="210" type="line"/>
      <point x="135" y="800" type="line"/>
    </contour>
  </outline>
</glyph>
<glyph name="X.init.alt" format="2">
  <advance width="668"/>
  <outline>
    <contour>
      <point x="30" y="500" type="line"/>
      <point x="277" y="151" type="line"/>
      <point x="33" y="-200" type="line"/>
      <point x="156" y="-200" type="line"/>
      <point x="340" y="56" type="line"/>
      <point x="521" y="-200" type="line"/>
      <point x="638" y="-200" type="line"/>
      <point x="401" y="151" type="line"/>
      <point x="635" y="500" type="line"/>
      <point x="514" y="500" type="line"/>
      <point x="340" y="232" type="line"/>
      <point x="152" y="500" type="line"/>
    </contour>
  </outline>
</glyph>
<glyph name="X.init" format="2">
  <advance width="668"/>
  <outline>
    <contour>
      <point x="30" y="800" type="line"/>
      <point x="277" y="451" type="line"/>
      <point x="33" y="100" type="line"/>
      <point x="156" y="100" type="line"/>
      <point x="340" y="356" type="line"/>
      <point x="521" y="100" type="line"/>
      <point x="638" y="100" type="line"/>
      <point x="401" y="451" type="line"/>
      <point x="635" y="800" type="line"/>
      <point x="514" y="800" type="line"/>
      <point x="340" y="532" type="line"/>
      <point x="152" y="800" type="line"/>
    </contour>
  </outline>
</glyph>
<glyph name="Y.init.alt" format="2">
  <advance width="690"/>
  <outline>
    <contour>
      <point x="30" y="501" type="line"/>
      <point x="284" y="60" type="line"/>
      <point x="285" y="60" type="line"/>
      <point x="285" y="-200" type="line"/>
      <point x="390" y="-200" type="line"/>
      <point x="390" y="60" type="line"/>
      <point x="660" y="500" type="line"/>
      <point x="555" y="500" type="line"/>
      <point x="336" y="151" type="line"/>
      <point x="135" y="501" type="line"/>
    </contour>
  </outline>
</glyph>
<glyph name="Z.init.alt" format="2">
  <advance width="660"/>
  <outline>
    <contour>
      <point x="594" y="-110" type="line"/>
      <point x="198" y="-110" type="line"/>
      <point x="612" y="417" type="line"/>
      <point x="612" y="499" type="line"/>
      <point x="81" y="499" type="line"/>
      <point x="81" y="409" type="line"/>
      <point x="490" y="409" type="line"/>
      <point x="81" y="-110" type="line"/>
      <point x="82" y="-200" type="line"/>
      <point x="594" y="-200" type="line"/>
    </contour>
  </outline>
</glyph>
<glyph name="Z.init" format="2">
  <advance width="660"/>
  <outline>
    <contour>
      <point x="594" y="191" type="line"/>
      <point x="198" y="191" type="line"/>
      <point x="612" y="718" type="line"/>
      <point x="612" y="800" type="line"/>
      <point x="81" y="800" type="line"/>
      <point x="81" y="710" type="line"/>
      <point x="490" y="710" type="line"/>
      <point x="81" y="191" type="line"/>
      <point x="82" y="101" type="line"/>
      <point x="594" y="101" type="line"/>
    </contour>
  </outline>
</glyph>
<glyph name="a.fina.alt" format="2">
  <advance width="477"/>
  <outline>
    <contour>
      <point x="337" y="133" type="curve"/>
      <point x="337" y="-200" type="line"/>
      <point x="437" y="-200" type="line"/>
      <point x="437" y="138" type="line" smooth="yes"/>
      <point x="437" y="234"/>
      <point x="358" y="308"/>
      <point x="229" y="308" type="curve" smooth="yes"/>
      <point x="111" y="308"/>
      <point x="20" y="248"/>
      <point x="20" y="124" type="curve"/>
      <point x="120" y="124" type="line"/>
      <point x="120" y="183"/>
      <point x="169" y="225"/>
      <point x="229" y="225" type="curve" smooth="yes"/>
      <point x="289" y="225"/>
      <point x="337" y="183"/>
    </contour>
    <contour>
      <point x="354" y="108" type="line"/>
      <point x="113" y="108"/>
      <point x="21" y="36"/>
      <point x="21" y="-72" type="curve" smooth="yes"/>
      <point x="21" y="-173"/>
      <point x="111" y="-208"/>
      <point x="178" y="-208" type="curve" smooth="yes"/>
      <point x="281" y="-208"/>
      <point x="351" y="-157"/>
      <point x="351" y="5" type="curve"/>
      <point x="337" y="-8" type="line"/>
      <point x="337" y="-51"/>
      <point x="300" y="-112"/>
      <point x="245" y="-130" type="curve" smooth="yes"/>
      <point x="166" y="-156"/>
      <point x="102" y="-119"/>
      <point x="102" y="-61" type="curve" smooth="yes"/>
      <point x="102" y="16"/>
      <point x="235" y="29"/>
      <point x="354" y="29" type="curve"/>
    </contour>
  </outline>
</glyph>
<glyph name="a.fina" format="2">
  <advance width="477"/>
  <outline>
    <contour>
      <point x="337" y="633" type="curve"/>
      <point x="337" y="300" type="line"/>
      <point x="437" y="300" type="line"/>
      <point x="437" y="638" type="line" smooth="yes"/>
      <point x="437" y="734"/>
      <point x="358" y="808"/>
      <point x="229" y="808" type="curve" smooth="yes"/>
      <point x="111" y="808"/>
      <point x="20" y="748"/>
      <point x="20" y="624" type="curve"/>
      <point x="120" y="624" type="line"/>
      <point x="120" y="683"/>
      <point x="169" y="725"/>
      <point x="229" y="725" type="curve" smooth="yes"/>
      <point x="289" y="725"/>
      <point x="337" y="683"/>
    </contour>
    <contour>
      <point x="354" y="608" type="line"/>
      <point x="113" y="608"/>
      <point x="21" y="536"/>
      <point x="21" y="428" type="curve" smooth="yes"/>
      <point x="21" y="327"/>
      <point x="111" y="292"/>
      <point x="178" y="292" type="curve" smooth="yes"/>
      <point x="281" y="292"/>
      <point x="351" y="343"/>
      <point x="351" y="505" type="curve"/>
      <point x="337" y="492" type="line"/>
      <point x="337" y="449"/>
      <point x="300" y="388"/>
      <point x="245" y="370" type="curve" smooth="yes"/>
      <point x="166" y="344"/>
      <point x="102" y="381"/>
      <point x="102" y="439" type="curve" smooth="yes"/>
      <point x="102" y="516"/>
      <point x="235" y="529"/>
      <point x="354" y="529" type="curve"/>
    </contour>
  </outline>
</glyph>
<glyph name="a_a.liga.alt1" format="2">
  <advance width="984"/>
  <outline>
    <contour>
      <point x="362" y="633" type="curve"/>
      <point x="362" y="300" type="line"/>
      <point x="462" y="300" type="line"/>
      <point x="462" y="638" type="line" smooth="yes"/>
      <point x="462" y="734"/>
      <point x="383" y="808"/>
      <point x="254" y="808" type="curve" smooth="yes"/>
      <point x="136" y="808"/>
      <point x="45" y="748"/>
      <point x="45" y="624" type="curve"/>
      <point x="145" y="624" type="line"/>
      <point x="145" y="683"/>
      <point x="194" y="725"/>
      <point x="254" y="725" type="curve" smooth="yes"/>
      <point x="314" y="725"/>
      <point x="362" y="683"/>
    </contour>
    <contour>
      <point x="379" y="608" type="line"/>
      <point x="138" y="608"/>
      <point x="46" y="536"/>
      <point x="46" y="428" type="curve" smooth="yes"/>
      <point x="46" y="327"/>
      <point x="136" y="292"/>
      <point x="203" y="292" type="curve" smooth="yes"/>
      <point x="306" y="292"/>
      <point x="376" y="343"/>
      <point x="376" y="505" type="curve"/>
      <point x="362" y="492" type="line"/>
      <point x="362" y="449"/>
      <point x="325" y="388"/>
      <point x="270" y="370" type="curve" smooth="yes"/>
      <point x="191" y="344"/>
      <point x="127" y="381"/>
      <point x="127" y="439" type="curve" smooth="yes"/>
      <point x="127" y="516"/>
      <point x="260" y="529"/>
      <point x="379" y="529" type="curve"/>
    </contour>
    <contour>
      <point x="824" y="133" type="curve"/>
      <point x="824" y="-200" type="line"/>
      <point x="924" y="-200" type="line"/>
      <point x="924" y="138" type="line" smooth="yes"/>
      <point x="924" y="234"/>
      <point x="845" y="308"/>
      <point x="716" y="308" type="curve" smooth="yes"/>
      <point x="598" y="308"/>
      <point x="507" y="248"/>
      <point x="507" y="124" type="curve"/>
      <point x="607" y="124" type="line"/>
      <point x="607" y="183"/>
      <point x="656" y="225"/>
      <point x="716" y="225" type="curve" smooth="yes"/>
      <point x="776" y="225"/>
      <point x="824" y="183"/>
    </contour>
    <contour>
      <point x="841" y="108" type="line"/>
      <point x="600" y="108"/>
      <point x="508" y="36"/>
      <point x="508" y="-72" type="curve" smooth="yes"/>
      <point x="508" y="-173"/>
      <point x="598" y="-208"/>
      <point x="665" y="-208" type="curve" smooth="yes"/>
      <point x="768" y="-208"/>
      <point x="838" y="-157"/>
      <point x="838" y="5" type="curve"/>
      <point x="824" y="-8" type="line"/>
      <point x="824" y="-51"/>
      <point x="787" y="-112"/>
      <point x="732" y="-130" type="curve" smooth="yes"/>
      <point x="653" y="-156"/>
      <point x="589" y="-119"/>
      <point x="589" y="-61" type="curve" smooth="yes"/>
      <point x="589" y="16"/>
      <point x="722" y="29"/>
      <point x="841" y="29" type="curve"/>
    </contour>
  </outline>
</glyph>
<glyph name="a_a.liga.alt2" format="2">
  <advance width="939"/>
  <outline>
    <contour>
      <point x="337" y="131" type="curve"/>
      <point x="337" y="-202" type="line"/>
      <point x="437" y="-202" type="line"/>
      <point x="437" y="136" type="line" smooth="yes"/>
      <point x="437" y="232"/>
      <point x="358" y="306"/>
      <point x="229" y="306" type="curve" smooth="yes"/>
      <point x="111" y="306"/>
      <point x="20" y="246"/>
      <point x="20" y="122" type="curve"/>
      <point x="120" y="122" type="line"/>
      <point x="120" y="181"/>
      <point x="169" y="223"/>
      <point x="229" y="223" type="curve" smooth="yes"/>
      <point x="289" y="223"/>
      <point x="337" y="181"/>
    </contour>
    <contour>
      <point x="354" y="106" type="line"/>
      <point x="113" y="106"/>
      <point x="21" y="34"/>
      <point x="21" y="-74" type="curve" smooth="yes"/>
      <point x="21" y="-175"/>
      <point x="111" y="-210"/>
      <point x="178" y="-210" type="curve" smooth="yes"/>
      <point x="281" y="-210"/>
      <point x="351" y="-159"/>
      <point x="351" y="3" type="curve"/>
      <point x="337" y="-10" type="line"/>
      <point x="337" y="-53"/>
      <point x="300" y="-114"/>
      <point x="245" y="-132" type="curve" smooth="yes"/>
      <point x="166" y="-158"/>
      <point x="102" y="-121"/>
      <point x="102" y="-63" type="curve" smooth="yes"/>
      <point x="102" y="14"/>
      <point x="235" y="27"/>
      <point x="354" y="27" type="curve"/>
    </contour>
    <contour>
      <point x="799" y="129" type="curve"/>
      <point x="799" y="-204" type="line"/>
      <point x="899" y="-204" type="line"/>
      <point x="899" y="134" type="line" smooth="yes"/>
      <point x="899" y="230"/>
      <point x="820" y="304"/>
      <point x="691" y="304" type="curve" smooth="yes"/>
      <point x="573" y="304"/>
      <point x="482" y="244"/>
      <point x="482" y="120" type="curve"/>
      <point x="582" y="120" type="line"/>
      <point x="582" y="179"/>
      <point x="631" y="221"/>
      <point x="691" y="221" type="curve" smooth="yes"/>
      <point x="751" y="221"/>
      <point x="799" y="179"/>
    </contour>
    <contour>
      <point x="816" y="104" type="line"/>
      <point x="575" y="104"/>
      <point x="483" y="32"/>
      <point x="483" y="-76" type="curve" smooth="yes"/>
      <point x="483" y="-177"/>
      <point x="573" y="-212"/>
      <point x="640" y="-212" type="curve" smooth="yes"/>
      <point x="743" y="-212"/>
      <point x="813" y="-161"/>
      <point x="813" y="1" type="curve"/>
      <point x="799" y="-12" type="line"/>
      <point x="799" y="-55"/>
      <point x="762" y="-116"/>
      <point x="707" y="-134" type="curve" smooth="yes"/>
      <point x="628" y="-160"/>
      <point x="564" y="-123"/>
      <point x="564" y="-65" type="curve" smooth="yes"/>
      <point x="564" y="12"/>
      <point x="697" y="25"/>
      <point x="816" y="25" type="curve"/>
    </contour>
  </outline>
</glyph>
<glyph name="a_a.liga.alt3" format="2">
  <advance width="939"/>
  <outline>
    <contour>
      <point x="337" y="641" type="curve"/>
      <point x="337" y="308" type="line"/>
      <point x="437" y="308" type="line"/>
      <point x="437" y="646" type="line" smooth="yes"/>
      <point x="437" y="742"/>
      <point x="358" y="816"/>
      <point x="229" y="816" type="curve" smooth="yes"/>
      <point x="111" y="816"/>
      <point x="20" y="756"/>
      <point x="20" y="632" type="curve"/>
      <point x="120" y="632" type="line"/>
      <point x="120" y="691"/>
      <point x="169" y="733"/>
      <point x="229" y="733" type="curve" smooth="yes"/>
      <point x="289" y="733"/>
      <point x="337" y="691"/>
    </contour>
    <contour>
      <point x="354" y="616" type="line"/>
      <point x="113" y="616"/>
      <point x="21" y="544"/>
      <point x="21" y="436" type="curve" smooth="yes"/>
      <point x="21" y="335"/>
      <point x="111" y="300"/>
      <point x="178" y="300" type="curve" smooth="yes"/>
      <point x="281" y="300"/>
      <point x="351" y="351"/>
      <point x="351" y="513" type="curve"/>
      <point x="337" y="500" type="line"/>
      <point x="337" y="457"/>
      <point x="300" y="396"/>
      <point x="245" y="378" type="curve" smooth="yes"/>
      <point x="166" y="352"/>
      <point x="102" y="389"/>
      <point x="102" y="447" type="curve" smooth="yes"/>
      <point x="102" y="524"/>
      <point x="235" y="537"/>
      <point x="354" y="537" type="curve"/>
    </contour>
    <contour>
      <point x="799" y="629" type="curve"/>
      <point x="799" y="296" type="line"/>
      <point x="899" y="296" type="line"/>
      <point x="899" y="634" type="line" smooth="yes"/>
      <point x="899" y="730"/>
      <point x="820" y="804"/>
      <point x="691" y="804" type="curve" smooth="yes"/>
      <point x="573" y="804"/>
      <point x="482" y="744"/>
      <point x="482" y="620" type="curve"/>
      <point x="582" y="620" type="line"/>
      <point x="582" y="679"/>
      <point x="631" y="721"/>
      <point x="691" y="721" type="curve" smooth="yes"/>
      <point x="751" y="721"/>
      <point x="799" y="679"/>
    </contour>
    <contour>
      <point x="816" y="604" type="line"/>
      <point x="575" y="604"/>
      <point x="483" y="532"/>
      <point x="483" y="424" type="curve" smooth="yes"/>
      <point x="483" y="323"/>
      <point x="573" y="288"/>
      <point x="640" y="288" type="curve" smooth="yes"/>
      <point x="743" y="288"/>
      <point x="813" y="339"/>
      <point x="813" y="501" type="curve"/>
      <point x="799" y="488" type="line"/>
      <point x="799" y="445"/>
      <point x="762" y="384"/>
      <point x="707" y="366" type="curve" smooth="yes"/>
      <point x="628" y="340"/>
      <point x="564" y="377"/>
      <point x="564" y="435" type="curve" smooth="yes"/>
      <point x="564" y="512"/>
      <point x="697" y="525"/>
      <point x="816" y="525" type="curve"/>
    </contour>
  </outline>
</glyph>
<glyph name="a_a.liga" format="2">
  <advance width="939"/>
  <outline>
    <contour>
      <point x="337" y="141" type="curve"/>
      <point x="337" y="-192" type="line"/>
      <point x="437" y="-192" type="line"/>
      <point x="437" y="146" type="line" smooth="yes"/>
      <point x="437" y="242"/>
      <point x="358" y="316"/>
      <point x="229" y="316" type="curve" smooth="yes"/>
      <point x="111" y="316"/>
      <point x="20" y="256"/>
      <point x="20" y="132" type="curve"/>
      <point x="120" y="132" type="line"/>
      <point x="120" y="191"/>
      <point x="169" y="233"/>
      <point x="229" y="233" type="curve" smooth="yes"/>
      <point x="289" y="233"/>
      <point x="337" y="191"/>
    </contour>
    <contour>
      <point x="354" y="116" type="line"/>
      <point x="113" y="116"/>
      <point x="21" y="44"/>
      <point x="21" y="-64" type="curve" smooth="yes"/>
      <point x="21" y="-165"/>
      <point x="111" y="-200"/>
      <point x="178" y="-200" type="curve" smooth="yes"/>
      <point x="281" y="-200"/>
      <point x="351" y="-149"/>
      <point x="351" y="13" type="curve"/>
      <point x="337" y="0" type="line"/>
      <point x="337" y="-43"/>
      <point x="300" y="-104"/>
      <point x="245" y="-122" type="curve" smooth="yes"/>
      <point x="166" y="-148"/>
      <point x="102" y="-111"/>
      <point x="102" y="-53" type="curve" smooth="yes"/>
      <point x="102" y="24"/>
      <point x="235" y="37"/>
      <point x="354" y="37" type="curve"/>
    </contour>
    <contour>
      <point x="799" y="629" type="curve"/>
      <point x="799" y="296" type="line"/>
      <point x="899" y="296" type="line"/>
      <point x="899" y="634" type="line" smooth="yes"/>
      <point x="899" y="730"/>
      <point x="820" y="804"/>
      <point x="691" y="804" type="curve" smooth="yes"/>
      <point x="573" y="804"/>
      <point x="482" y="744"/>
      <point x="482" y="620" type="curve"/>
      <point x="582" y="620" type="line"/>
      <point x="582" y="679"/>
      <point x="631" y="721"/>
      <point x="691" y="721" type="curve" smooth="yes"/>
      <point x="751" y="721"/>
      <point x="799" y="679"/>
    </contour>
    <contour>
      <point x="816" y="604" type="line"/>
      <point x="575" y="604"/>
      <point x="483" y="532"/>
      <point x="483" y="424" type="curve" smooth="yes"/>
      <point x="483" y="323"/>
      <point x="573" y="288"/>
      <point x="640" y="288" type="curve" smooth="yes"/>
      <point x="743" y="288"/>
      <point x="813" y="339"/>
      <point x="813" y="501" type="curve"/>
      <point x="799" y="488" type="line"/>
      <point x="799" y="445"/>
      <point x="762" y="384"/>
      <point x="707" y="366" type="curve" smooth="yes"/>
      <point x="628" y="340"/>
      <point x="564" y="377"/>
      <point x="564" y="435" type="curve" smooth="yes"/>
      <point x="564" y="512"/>
      <point x="697" y="525"/>
      <point x="816" y="525" type="curve"/>
    </contour>
  </outline>
</glyph>
<glyph name="b.fina.alt" format="2">
  <advance width="522"/>
  <outline>
    <contour>
      <point x="40" y="600" type="line"/>
      <point x="40" y="-200" type="line"/>
      <point x="140" y="-200" type="line"/>
      <point x="140" y="600" type="line"/>
    </contour>
    <contour>
      <point x="294" y="-208" type="curve" smooth="yes"/>
      <point x="434" y="-208"/>
      <point x="502" y="-108"/>
      <point x="502" y="50" type="curve" smooth="yes"/>
      <point x="502" y="200"/>
      <point x="434" y="308"/>
      <point x="294" y="308" type="curve" smooth="yes"/>
      <point x="164" y="308"/>
      <point x="122" y="211"/>
      <point x="122" y="50" type="curve" smooth="yes"/>
      <point x="122" y="-96"/>
      <point x="145" y="-208"/>
    </contour>
    <contour>
      <point x="274" y="-128" type="curve" smooth="yes"/>
      <point x="179" y="-128"/>
      <point x="140" y="-54"/>
      <point x="140" y="50" type="curve" smooth="yes"/>
      <point x="140" y="153"/>
      <point x="179" y="228"/>
      <point x="274" y="228" type="curve" smooth="yes"/>
      <point x="364" y="228"/>
      <point x="402" y="160"/>
      <point x="402" y="50" type="curve" smooth="yes"/>
      <point x="402" y="-60"/>
      <point x="364" y="-128"/>
    </contour>
  </outline>
</glyph>
<glyph name="b_b.liga.alt1" format="2">
  <advance width="1089"/>
  <outline>
    <contour>
      <point x="40" y="800" type="line"/>
      <point x="40" y="0" type="line"/>
      <point x="140" y="0" type="line"/>
      <point x="140" y="800" type="line"/>
    </contour>
    <contour>
      <point x="294" y="-8" type="curve" smooth="yes"/>
      <point x="434" y="-8"/>
      <point x="502" y="92"/>
      <point x="502" y="250" type="curve" smooth="yes"/>
      <point x="502" y="400"/>
      <point x="434" y="508"/>
      <point x="294" y="508" type="curve" smooth="yes"/>
      <point x="164" y="508"/>
      <point x="122" y="411"/>
      <point x="122" y="250" type="curve" smooth="yes"/>
      <point x="122" y="104"/>
      <point x="145" y="-8"/>
    </contour>
    <contour>
      <point x="274" y="72" type="curve" smooth="yes"/>
      <point x="179" y="72"/>
      <point x="140" y="146"/>
      <point x="140" y="250" type="curve" smooth="yes"/>
      <point x="140" y="353"/>
      <point x="179" y="428"/>
      <point x="274" y="428" type="curve" smooth="yes"/>
      <point x="364" y="428"/>
      <point x="402" y="360"/>
      <point x="402" y="250" type="curve" smooth="yes"/>
      <point x="402" y="140"/>
      <point x="364" y="72"/>
    </contour>
    <contour>
      <point x="607" y="600" type="line"/>
      <point x="607" y="-200" type="line"/>
      <point x="707" y="-200" type="line"/>
      <point x="707" y="600" type="line"/>
    </contour>
    <contour>
      <point x="861" y="-208" type="curve" smooth="yes"/>
      <point x="1001" y="-208"/>
      <point x="1069" y="-108"/>
      <point x="1069" y="50" type="curve" smooth="yes"/>
      <point x="1069" y="200"/>
      <point x="1001" y="308"/>
      <point x="861" y="308" type="curve" smooth="yes"/>
      <point x="731" y="308"/>
      <point x="689" y="211"/>
      <point x="689" y="50" type="curve" smooth="yes"/>
      <point x="689" y="-96"/>
      <point x="712" y="-208"/>
    </contour>
    <contour>
      <point x="841" y="-128" type="curve" smooth="yes"/>
      <point x="746" y="-128"/>
      <point x="707" y="-54"/>
      <point x="707" y="50" type="curve" smooth="yes"/>
      <point x="707" y="153"/>
      <point x="746" y="228"/>
      <point x="841" y="228" type="curve" smooth="yes"/>
      <point x="931" y="228"/>
      <point x="969" y="160"/>
      <point x="969" y="50" type="curve" smooth="yes"/>
      <point x="969" y="-60"/>
      <point x="931" y="-128"/>
    </contour>
  </outline>
</glyph>
<glyph name="b_b.liga.alt2" format="2">
  <advance width="1029"/>
  <outline>
    <contour>
      <point x="40" y="600" type="line"/>
      <point x="40" y="-200" type="line"/>
      <point x="140" y="-200" type="line"/>
      <point x="140" y="600" type="line"/>
    </contour>
    <contour>
      <point x="294" y="-208" type="curve" smooth="yes"/>
      <point x="434" y="-208"/>
      <point x="502" y="-108"/>
      <point x="502" y="50" type="curve" smooth="yes"/>
      <point x="502" y="200"/>
      <point x="434" y="308"/>
      <point x="294" y="308" type="curve" smooth="yes"/>
      <point x="164" y="308"/>
      <point x="122" y="211"/>
      <point x="122" y="50" type="curve" smooth="yes"/>
      <point x="122" y="-96"/>
      <point x="145" y="-208"/>
    </contour>
    <contour>
      <point x="274" y="-128" type="curve" smooth="yes"/>
      <point x="179" y="-128"/>
      <point x="140" y="-54"/>
      <point x="140" y="50" type="curve" smooth="yes"/>
      <point x="140" y="153"/>
      <point x="179" y="228"/>
      <point x="274" y="228" type="curve" smooth="yes"/>
      <point x="364" y="228"/>
      <point x="402" y="160"/>
      <point x="402" y="50" type="curve" smooth="yes"/>
      <point x="402" y="-60"/>
      <point x="364" y="-128"/>
    </contour>
    <contour>
      <point x="547" y="600" type="line"/>
      <point x="547" y="-200" type="line"/>
      <point x="647" y="-200" type="line"/>
      <point x="647" y="600" type="line"/>
    </contour>
    <contour>
      <point x="801" y="-208" type="curve" smooth="yes"/>
      <point x="941" y="-208"/>
      <point x="1009" y="-108"/>
      <point x="1009" y="50" type="curve" smooth="yes"/>
      <point x="1009" y="200"/>
      <point x="941" y="308"/>
      <point x="801" y="308" type="curve" smooth="yes"/>
      <point x="671" y="308"/>
      <point x="629" y="211"/>
      <point x="629" y="50" type="curve" smooth="yes"/>
      <point x="629" y="-96"/>
      <point x="652" y="-208"/>
    </contour>
    <contour>
      <point x="781" y="-128" type="curve" smooth="yes"/>
      <point x="686" y="-128"/>
      <point x="647" y="-54"/>
      <point x="647" y="50" type="curve" smooth="yes"/>
      <point x="647" y="153"/>
      <point x="686" y="228"/>
      <point x="781" y="228" type="curve" smooth="yes"/>
      <point x="871" y="228"/>
      <point x="909" y="160"/>
      <point x="909" y="50" type="curve" smooth="yes"/>
      <point x="909" y="-60"/>
      <point x="871" y="-128"/>
    </contour>
  </outline>
</glyph>
<glyph name="b_b.liga.alt3" format="2">
  <advance width="1029"/>
  <outline>
    <contour>
      <point x="40" y="800" type="line"/>
      <point x="40" y="0" type="line"/>
      <point x="140" y="0" type="line"/>
      <point x="140" y="800" type="line"/>
    </contour>
    <contour>
      <point x="294" y="-8" type="curve" smooth="yes"/>
      <point x="434" y="-8"/>
      <point x="502" y="92"/>
      <point x="502" y="250" type="curve" smooth="yes"/>
      <point x="502" y="400"/>
      <point x="434" y="508"/>
      <point x="294" y="508" type="curve" smooth="yes"/>
      <point x="164" y="508"/>
      <point x="122" y="411"/>
      <point x="122" y="250" type="curve" smooth="yes"/>
      <point x="122" y="104"/>
      <point x="145" y="-8"/>
    </contour>
    <contour>
      <point x="274" y="72" type="curve" smooth="yes"/>
      <point x="179" y="72"/>
      <point x="140" y="146"/>
      <point x="140" y="250" type="curve" smooth="yes"/>
      <point x="140" y="353"/>
      <point x="179" y="428"/>
      <point x="274" y="428" type="curve" smooth="yes"/>
      <point x="364" y="428"/>
      <point x="402" y="360"/>
      <point x="402" y="250" type="curve" smooth="yes"/>
      <point x="402" y="140"/>
      <point x="364" y="72"/>
    </contour>
    <contour>
      <point x="547" y="800" type="line"/>
      <point x="547" y="0" type="line"/>
      <point x="647" y="0" type="line"/>
      <point x="647" y="800" type="line"/>
    </contour>
    <contour>
      <point x="801" y="-8" type="curve" smooth="yes"/>
      <point x="941" y="-8"/>
      <point x="1009" y="92"/>
      <point x="1009" y="250" type="curve" smooth="yes"/>
      <point x="1009" y="400"/>
      <point x="941" y="508"/>
      <point x="801" y="508" type="curve" smooth="yes"/>
      <point x="671" y="508"/>
      <point x="629" y="411"/>
      <point x="629" y="250" type="curve" smooth="yes"/>
      <point x="629" y="104"/>
      <point x="652" y="-8"/>
    </contour>
    <contour>
      <point x="781" y="72" type="curve" smooth="yes"/>
      <point x="686" y="72"/>
      <point x="647" y="146"/>
      <point x="647" y="250" type="curve" smooth="yes"/>
      <point x="647" y="353"/>
      <point x="686" y="428"/>
      <point x="781" y="428" type="curve" smooth="yes"/>
      <point x="871" y="428"/>
      <point x="909" y="360"/>
      <point x="909" y="250" type="curve" smooth="yes"/>
      <point x="909" y="140"/>
      <point x="871" y="72"/>
    </contour>
  </outline>
</glyph>
<glyph name="b_b.liga" format="2">
  <advance width="1029"/>
  <outline>
    <contour>
      <point x="40" y="608" type="line"/>
      <point x="40" y="-192" type="line"/>
      <point x="140" y="-192" type="line"/>
      <point x="140" y="608" type="line"/>
    </contour>
    <contour>
      <point x="294" y="-200" type="curve" smooth="yes"/>
      <point x="434" y="-200"/>
      <point x="502" y="-100"/>
      <point x="502" y="58" type="curve" smooth="yes"/>
      <point x="502" y="208"/>
      <point x="434" y="316"/>
      <point x="294" y="316" type="curve" smooth="yes"/>
      <point x="164" y="316"/>
      <point x="122" y="219"/>
      <point x="122" y="58" type="curve" smooth="yes"/>
      <point x="122" y="-88"/>
      <point x="145" y="-200"/>
    </contour>
    <contour>
      <point x="274" y="-120" type="curve" smooth="yes"/>
      <point x="179" y="-120"/>
      <point x="140" y="-46"/>
      <point x="140" y="58" type="curve" smooth="yes"/>
      <point x="140" y="161"/>
      <point x="179" y="236"/>
      <point x="274" y="236" type="curve" smooth="yes"/>
      <point x="364" y="236"/>
      <point x="402" y="168"/>
      <point x="402" y="58" type="curve" smooth="yes"/>
      <point x="402" y="-52"/>
      <point x="364" y="-120"/>
    </contour>
    <contour>
      <point x="547" y="800" type="line"/>
      <point x="547" y="0" type="line"/>
      <point x="647" y="0" type="line"/>
      <point x="647" y="800" type="line"/>
    </contour>
    <contour>
      <point x="801" y="-8" type="curve" smooth="yes"/>
      <point x="941" y="-8"/>
      <point x="1009" y="92"/>
      <point x="1009" y="250" type="curve" smooth="yes"/>
      <point x="1009" y="400"/>
      <point x="941" y="508"/>
      <point x="801" y="508" type="curve" smooth="yes"/>
      <point x="671" y="508"/>
      <point x="629" y="411"/>
      <point x="629" y="250" type="curve" smooth="yes"/>
      <point x="629" y="104"/>
      <point x="652" y="-8"/>
    </contour>
    <contour>
      <point x="781" y="72" type="curve" smooth="yes"/>
      <point x="686" y="72"/>
      <point x="647" y="146"/>
      <point x="647" y="250" type="curve" smooth="yes"/>
      <point x="647" y="353"/>
      <point x="686" y="428"/>
      <point x="781" y="428" type="curve" smooth="yes"/>
      <point x="871" y="428"/>
      <point x="909" y="360"/>
      <point x="909" y="250" type="curve" smooth="yes"/>
      <point x="909" y="140"/>
      <point x="871" y="72"/>
    </contour>
  </outline>
</glyph>
<glyph name="b_c.liga.alt1" format="2">
  <advance width="1085"/>
  <outline>
    <contour>
      <point x="40" y="790" type="line"/>
      <point x="40" y="-10" type="line"/>
      <point x="140" y="-10" type="line"/>
      <point x="140" y="790" type="line"/>
    </contour>
    <contour>
      <point x="294" y="-18" type="curve" smooth="yes"/>
      <point x="434" y="-18"/>
      <point x="502" y="82"/>
      <point x="502" y="240" type="curve" smooth="yes"/>
      <point x="502" y="390"/>
      <point x="434" y="498"/>
      <point x="294" y="498" type="curve" smooth="yes"/>
      <point x="164" y="498"/>
      <point x="122" y="401"/>
      <point x="122" y="240" type="curve" smooth="yes"/>
      <point x="122" y="94"/>
      <point x="145" y="-18"/>
    </contour>
    <contour>
      <point x="274" y="62" type="curve" smooth="yes"/>
      <point x="179" y="62"/>
      <point x="140" y="136"/>
      <point x="140" y="240" type="curve" smooth="yes"/>
      <point x="140" y="343"/>
      <point x="179" y="418"/>
      <point x="274" y="418" type="curve" smooth="yes"/>
      <point x="364" y="418"/>
      <point x="402" y="350"/>
      <point x="402" y="240" type="curve" smooth="yes"/>
      <point x="402" y="130"/>
      <point x="364" y="62"/>
    </contour>
    <contour>
      <point x="1064" y="-27" type="curve"/>
      <point x="964" y="-15" type="line"/>
      <point x="955" y="-62"/>
      <point x="920" y="-136"/>
      <point x="830" y="-136" type="curve" smooth="yes"/>
      <point x="740" y="-136"/>
      <point x="692" y="-63"/>
      <point x="692" y="41" type="curve" smooth="yes"/>
      <point x="692" y="144"/>
      <point x="740" y="220"/>
      <point x="830" y="220" type="curve" smooth="yes"/>
      <point x="920" y="220"/>
      <point x="961" y="146"/>
      <point x="965" y="83" type="curve"/>
      <point x="1065" y="96" type="line"/>
      <point x="1049" y="212"/>
      <point x="970" y="300"/>
      <point x="830" y="300" type="curve" smooth="yes"/>
      <point x="690" y="300"/>
      <point x="592" y="202"/>
      <point x="592" y="41" type="curve" smooth="yes"/>
      <point x="592" y="-105"/>
      <point x="687" y="-216"/>
      <point x="830" y="-216" type="curve" smooth="yes"/>
      <point x="954" y="-216"/>
      <point x="1044" y="-135"/>
    </contour>
  </outline>
</glyph>
<glyph name="b_c.liga.alt3" format="2">
  <advance width="1035"/>
  <outline>
    <contour>
      <point x="40" y="810" type="line"/>
      <point x="40" y="10" type="line"/>
      <point x="140" y="10" type="line"/>
      <point x="140" y="810" type="line"/>
    </contour>
    <contour>
      <point x="294" y="2" type="curve" smooth="yes"/>
      <point x="434" y="2"/>
      <point x="502" y="102"/>
      <point x="502" y="260" type="curve" smooth="yes"/>
      <point x="502" y="410"/>
      <point x="434" y="518"/>
      <point x="294" y="518" type="curve" smooth="yes"/>
      <point x="164" y="518"/>
      <point x="122" y="421"/>
      <point x="122" y="260" type="curve" smooth="yes"/>
      <point x="122" y="114"/>
      <point x="145" y="2"/>
    </contour>
    <contour>
      <point x="274" y="82" type="curve" smooth="yes"/>
      <point x="179" y="82"/>
      <point x="140" y="156"/>
      <point x="140" y="260" type="curve" smooth="yes"/>
      <point x="140" y="363"/>
      <point x="179" y="438"/>
      <point x="274" y="438" type="curve" smooth="yes"/>
      <point x="364" y="438"/>
      <point x="402" y="370"/>
      <point x="402" y="260" type="curve" smooth="yes"/>
      <point x="402" y="150"/>
      <point x="364" y="82"/>
    </contour>
    <contour>
      <point x="1014" y="487" type="curve"/>
      <point x="914" y="499" type="line"/>
      <point x="905" y="452"/>
      <point x="870" y="378"/>
      <point x="780" y="378" type="curve" smooth="yes"/>
      <point x="690" y="378"/>
      <point x="642" y="451"/>
      <point x="642" y="555" type="curve" smooth="yes"/>
      <point x="642" y="658"/>
      <point x="690" y="734"/>
      <point x="780" y="734" type="curve" smooth="yes"/>
      <point x="870" y="734"/>
      <point x="911" y="660"/>
      <point x="915" y="597" type="curve"/>
      <point x="1015" y="610" type="line"/>
      <point x="999" y="726"/>
      <point x="920" y="814"/>
      <point x="780" y="814" type="curve" smooth="yes"/>
      <point x="640" y="814"/>
      <point x="542" y="716"/>
      <point x="542" y="555" type="curve" smooth="yes"/>
      <point x="542" y="409"/>
      <point x="637" y="298"/>
      <point x="780" y="298" type="curve" smooth="yes"/>
      <point x="904" y="298"/>
      <point x="994" y="379"/>
    </contour>
  </outline>
</glyph>
<glyph name="b_c.liga" format="2">
  <advance width="1005"/>
  <outline>
    <contour>
      <point x="40" y="590" type="line"/>
      <point x="40" y="-210" type="line"/>
      <point x="140" y="-210" type="line"/>
      <point x="140" y="590" type="line"/>
    </contour>
    <contour>
      <point x="294" y="-218" type="curve" smooth="yes"/>
      <point x="434" y="-218"/>
      <point x="502" y="-118"/>
      <point x="502" y="40" type="curve" smooth="yes"/>
      <point x="502" y="190"/>
      <point x="434" y="298"/>
      <point x="294" y="298" type="curve" smooth="yes"/>
      <point x="164" y="298"/>
      <point x="122" y="201"/>
      <point x="122" y="40" type="curve" smooth="yes"/>
      <point x="122" y="-106"/>
      <point x="145" y="-218"/>
    </contour>
    <contour>
      <point x="274" y="-138" type="curve" smooth="yes"/>
      <point x="179" y="-138"/>
      <point x="140" y="-64"/>
      <point x="140" y="40" type="curve" smooth="yes"/>
      <point x="140" y="143"/>
      <point x="179" y="218"/>
      <point x="274" y="218" type="curve" smooth="yes"/>
      <point x="364" y="218"/>
      <point x="402" y="150"/>
      <point x="402" y="40" type="curve" smooth="yes"/>
      <point x="402" y="-70"/>
      <point x="364" y="-138"/>
    </contour>
    <contour>
      <point x="984" y="487" type="curve"/>
      <point x="884" y="499" type="line"/>
      <point x="875" y="452"/>
      <point x="840" y="378"/>
      <point x="750" y="378" type="curve" smooth="yes"/>
      <point x="660" y="378"/>
      <point x="612" y="451"/>
      <point x="612" y="555" type="curve" smooth="yes"/>
      <point x="612" y="658"/>
      <point x="660" y="734"/>
      <point x="750" y="734" type="curve" smooth="yes"/>
      <point x="840" y="734"/>
      <point x="881" y="660"/>
      <point x="885" y="597" type="curve"/>
      <point x="985" y="610" type="line"/>
      <point x="969" y="726"/>
      <point x="890" y="814"/>
      <point x="750" y="814" type="curve" smooth="yes"/>
      <point x="610" y="814"/>
      <point x="512" y="716"/>
      <point x="512" y="555" type="curve" smooth="yes"/>
      <point x="512" y="409"/>
      <point x="607" y="298"/>
      <point x="750" y="298" type="curve" smooth="yes"/>
      <point x="874" y="298"/>
      <point x="964" y="379"/>
    </contour>
  </outline>
</glyph>
<glyph name="c.fina.alt" format="2">
  <advance width="513"/>
  <outline>
    <contour>
      <point x="492" y="-19" type="curve"/>
      <point x="392" y="-7" type="line"/>
      <point x="383" y="-54"/>
      <point x="348" y="-128"/>
      <point x="258" y="-128" type="curve" smooth="yes"/>
      <point x="168" y="-128"/>
      <point x="120" y="-55"/>
      <point x="120" y="49" type="curve" smooth="yes"/>
      <point x="120" y="152"/>
      <point x="168" y="228"/>
      <point x="258" y="228" type="curve" smooth="yes"/>
      <point x="348" y="228"/>
      <point x="389" y="154"/>
      <point x="393" y="91" type="curve"/>
      <point x="493" y="104" type="line"/>
      <point x="477" y="220"/>
      <point x="398" y="308"/>
      <point x="258" y="308" type="curve" smooth="yes"/>
      <point x="118" y="308"/>
      <point x="20" y="210"/>
      <point x="20" y="49" type="curve" smooth="yes"/>
      <point x="20" y="-97"/>
      <point x="115" y="-208"/>
      <point x="258" y="-208" type="curve" smooth="yes"/>
      <point x="382" y="-208"/>
      <point x="472" y="-127"/>
    </contour>
  </outline>
</glyph>
<glyph name="c.fina" format="2">
  <advance width="513"/>
  <outline>
    <contour>
      <point x="492" y="481" type="curve"/>
      <point x="392" y="493" type="line"/>
      <point x="383" y="446"/>
      <point x="348" y="372"/>
      <point x="258" y="372" type="curve" smooth="yes"/>
      <point x="168" y="372"/>
      <point x="120" y="445"/>
      <point x="120" y="549" type="curve" smooth="yes"/>
      <point x="120" y="652"/>
      <point x="168" y="728"/>
      <point x="258" y="728" type="curve" smooth="yes"/>
      <point x="348" y="728"/>
      <point x="389" y="654"/>
      <point x="393" y="591" type="curve"/>
      <point x="493" y="604" type="line"/>
      <point x="477" y="720"/>
      <point x="398" y="808"/>
      <point x="258" y="808" type="curve" smooth="yes"/>
      <point x="118" y="808"/>
      <point x="20" y="710"/>
      <point x="20" y="549" type="curve" smooth="yes"/>
      <point x="20" y="403"/>
      <point x="115" y="292"/>
      <point x="258" y="292" type="curve" smooth="yes"/>
      <point x="382" y="292"/>
      <point x="472" y="373"/>
    </contour>
  </outline>
</glyph>
<glyph name="c_c.liga.alt1" format="2">
  <advance width="986"/>
  <outline>
    <contour>
      <point x="492" y="481" type="curve"/>
      <point x="392" y="493" type="line"/>
      <point x="383" y="446"/>
      <point x="348" y="372"/>
      <point x="258" y="372" type="curve" smooth="yes"/>
      <point x="168" y="372"/>
      <point x="120" y="445"/>
      <point x="120" y="549" type="curve" smooth="yes"/>
      <point x="120" y="652"/>
      <point x="168" y="728"/>
      <point x="258" y="728" type="curve" smooth="yes"/>
      <point x="348" y="728"/>
      <point x="389" y="654"/>
      <point x="393" y="591" type="curve"/>
      <point x="493" y="604" type="line"/>
      <point x="477" y="720"/>
      <point x="398" y="808"/>
      <point x="258" y="808" type="curve" smooth="yes"/>
      <point x="118" y="808"/>
      <point x="20" y="710"/>
      <point x="20" y="549" type="curve" smooth="yes"/>
      <point x="20" y="403"/>
      <point x="115" y="292"/>
      <point x="258" y="292" type="curve" smooth="yes"/>
      <point x="382" y="292"/>
      <point x="472" y="373"/>
    </contour>
    <contour>
      <point x="965" y="-19" type="curve"/>
      <point x="865" y="-7" type="line"/>
      <point x="856" y="-54"/>
      <point x="821" y="-128"/>
      <point x="731" y="-128" type="curve" smooth="yes"/>
      <point x="641" y="-128"/>
      <point x="593" y="-55"/>
      <point x="593" y="49" type="curve" smooth="yes"/>
      <point x="593" y="152"/>
      <point x="641" y="228"/>
      <point x="731" y="228" type="curve" smooth="yes"/>
      <point x="821" y="228"/>
      <point x="862" y="154"/>
      <point x="866" y="91" type="curve"/>
      <point x="966" y="104" type="line"/>
      <point x="950" y="220"/>
      <point x="871" y="308"/>
      <point x="731" y="308" type="curve" smooth="yes"/>
      <point x="591" y="308"/>
      <point x="493" y="210"/>
      <point x="493" y="49" type="curve" smooth="yes"/>
      <point x="493" y="-97"/>
      <point x="588" y="-208"/>
      <point x="731" y="-208" type="curve" smooth="yes"/>
      <point x="855" y="-208"/>
      <point x="945" y="-127"/>
    </contour>
  </outline>
</glyph>
<glyph name="c_c.liga.alt2" format="2">
  <advance width="1016"/>
  <outline>
    <contour>
      <point x="492" y="-19" type="curve"/>
      <point x="392" y="-7" type="line"/>
      <point x="383" y="-54"/>
      <point x="348" y="-128"/>
      <point x="258" y="-128" type="curve" smooth="yes"/>
      <point x="168" y="-128"/>
      <point x="120" y="-55"/>
      <point x="120" y="49" type="curve" smooth="yes"/>
      <point x="120" y="152"/>
      <point x="168" y="228"/>
      <point x="258" y="228" type="curve" smooth="yes"/>
      <point x="348" y="228"/>
      <point x="389" y="154"/>
      <point x="393" y="91" type="curve"/>
      <point x="493" y="104" type="line"/>
      <point x="477" y="220"/>
      <point x="398" y="308"/>
      <point x="258" y="308" type="curve" smooth="yes"/>
      <point x="118" y="308"/>
      <point x="20" y="210"/>
      <point x="20" y="49" type="curve" smooth="yes"/>
      <point x="20" y="-97"/>
      <point x="115" y="-208"/>
      <point x="258" y="-208" type="curve" smooth="yes"/>
      <point x="382" y="-208"/>
      <point x="472" y="-127"/>
    </contour>
    <contour>
      <point x="995" y="-19" type="curve"/>
      <point x="895" y="-7" type="line"/>
      <point x="886" y="-54"/>
      <point x="851" y="-128"/>
      <point x="761" y="-128" type="curve"/>
      <point x="671" y="-128"/>
      <point x="623" y="-55"/>
      <point x="623" y="49" type="curve" smooth="yes"/>
      <point x="623" y="152"/>
      <point x="671" y="228"/>
      <point x="761" y="228" type="curve" smooth="yes"/>
      <point x="851" y="228"/>
      <point x="892" y="154"/>
      <point x="896" y="91" type="curve"/>
      <point x="996" y="104" type="line"/>
      <point x="980" y="220"/>
      <point x="901" y="308"/>
      <point x="761" y="308" type="curve" smooth="yes"/>
      <point x="621" y="308"/>
      <point x="523" y="210"/>
      <point x="523" y="49" type="curve" smooth="yes"/>
      <point x="523" y="-97"/>
      <point x="618" y="-208"/>
      <point x="761" y="-208" type="curve" smooth="yes"/>
      <point x="885" y="-208"/>
      <point x="975" y="-127"/>
    </contour>
  </outline>
</glyph>
<glyph name="c_c.liga.alt3" format="2">
  <advance width="1026"/>
  <outline>
    <contour>
      <point x="492" y="481" type="curve"/>
      <point x="392" y="493" type="line"/>
      <point x="383" y="446"/>
      <point x="348" y="372"/>
      <point x="258" y="372" type="curve" smooth="yes"/>
      <point x="168" y="372"/>
      <point x="120" y="445"/>
      <point x="120" y="549" type="curve" smooth="yes"/>
      <point x="120" y="652"/>
      <point x="168" y="728"/>
      <point x="258" y="728" type="curve" smooth="yes"/>
      <point x="348" y="728"/>
      <point x="389" y="654"/>
      <point x="393" y="591" type="curve"/>
      <point x="493" y="604" type="line"/>
      <point x="477" y="720"/>
      <point x="398" y="808"/>
      <point x="258" y="808" type="curve" smooth="yes"/>
      <point x="118" y="808"/>
      <point x="20" y="710"/>
      <point x="20" y="549" type="curve" smooth="yes"/>
      <point x="20" y="403"/>
      <point x="115" y="292"/>
      <point x="258" y="292" type="curve" smooth="yes"/>
      <point x="382" y="292"/>
      <point x="472" y="373"/>
    </contour>
    <contour>
      <point x="1005" y="481" type="curve"/>
      <point x="905" y="493" type="line"/>
      <point x="896" y="446"/>
      <point x="861" y="372"/>
      <point x="771" y="372" type="curve" smooth="yes"/>
      <point x="681" y="372"/>
      <point x="633" y="445"/>
      <point x="633" y="549" type="curve" smooth="yes"/>
      <point x="633" y="652"/>
      <point x="681" y="728"/>
      <point x="771" y="728" type="curve" smooth="yes"/>
      <point x="861" y="728"/>
      <point x="902" y="654"/>
      <point x="906" y="591" type="curve"/>
      <point x="1006" y="604" type="line"/>
      <point x="990" y="720"/>
      <point x="911" y="808"/>
      <point x="771" y="808" type="curve" smooth="yes"/>
      <point x="631" y="808"/>
      <point x="533" y="710"/>
      <point x="533" y="549" type="curve" smooth="yes"/>
      <point x="533" y="403"/>
      <point x="628" y="292"/>
      <point x="771" y="292" type="curve" smooth="yes"/>
      <point x="895" y="292"/>
      <point x="985" y="373"/>
    </contour>
  </outline>
</glyph>
<glyph name="c_c.liga" format="2">
  <advance width="886"/>
  <outline>
    <contour>
      <point x="492" y="-19" type="curve"/>
      <point x="392" y="-7" type="line"/>
      <point x="383" y="-54"/>
      <point x="348" y="-128"/>
      <point x="258" y="-128" type="curve" smooth="yes"/>
      <point x="168" y="-128"/>
      <point x="120" y="-55"/>
      <point x="120" y="49" type="curve" smooth="yes"/>
      <point x="120" y="152"/>
      <point x="168" y="228"/>
      <point x="258" y="228" type="curve" smooth="yes"/>
      <point x="348" y="228"/>
      <point x="389" y="154"/>
      <point x="393" y="91" type="curve"/>
      <point x="493" y="104" type="line"/>
      <point x="477" y="220"/>
      <point x="398" y="308"/>
      <point x="258" y="308" type="curve" smooth="yes"/>
      <point x="118" y="308"/>
      <point x="20" y="210"/>
      <point x="20" y="49" type="curve" smooth="yes"/>
      <point x="20" y="-97"/>
      <point x="115" y="-208"/>
      <point x="258" y="-208" type="curve" smooth="yes"/>
      <point x="382" y="-208"/>
      <point x="472" y="-127"/>
    </contour>
    <contour>
      <point x="865" y="481" type="curve"/>
      <point x="765" y="493" type="line"/>
      <point x="756" y="446"/>
      <point x="721" y="372"/>
      <point x="631" y="372" type="curve" smooth="yes"/>
      <point x="541" y="372"/>
      <point x="493" y="445"/>
      <point x="493" y="549" type="curve" smooth="yes"/>
      <point x="493" y="652"/>
      <point x="541" y="728"/>
      <point x="631" y="728" type="curve" smooth="yes"/>
      <point x="721" y="728"/>
      <point x="762" y="654"/>
      <point x="766" y="591" type="curve"/>
      <point x="866" y="604" type="line"/>
      <point x="850" y="720"/>
      <point x="771" y="808"/>
      <point x="631" y="808" type="curve" smooth="yes"/>
      <point x="491" y="808"/>
      <point x="393" y="710"/>
      <point x="393" y="549" type="curve" smooth="yes"/>
      <point x="393" y="403"/>
      <point x="488" y="292"/>
      <point x="631" y="292" type="curve" smooth="yes"/>
      <point x="755" y="292"/>
      <point x="845" y="373"/>
    </contour>
  </outline>
</glyph>
<glyph name="c_d.liga.alt1" format="2">
  <advance width="1006"/>
  <outline>
    <contour>
      <point x="492" y="487" type="curve"/>
      <point x="392" y="499" type="line"/>
      <point x="383" y="452"/>
      <point x="348" y="378"/>
      <point x="258" y="378" type="curve" smooth="yes"/>
      <point x="168" y="378"/>
      <point x="120" y="451"/>
      <point x="120" y="555" type="curve" smooth="yes"/>
      <point x="120" y="658"/>
      <point x="168" y="734"/>
      <point x="258" y="734" type="curve" smooth="yes"/>
      <point x="348" y="734"/>
      <point x="389" y="660"/>
      <point x="393" y="597" type="curve"/>
      <point x="493" y="610" type="line"/>
      <point x="477" y="726"/>
      <point x="398" y="814"/>
      <point x="258" y="814" type="curve" smooth="yes"/>
      <point x="118" y="814"/>
      <point x="20" y="716"/>
      <point x="20" y="555" type="curve" smooth="yes"/>
      <point x="20" y="409"/>
      <point x="115" y="298"/>
      <point x="258" y="298" type="curve" smooth="yes"/>
      <point x="382" y="298"/>
      <point x="472" y="379"/>
    </contour>
    <contour>
      <point x="966" y="594" type="line"/>
      <point x="866" y="594" type="line"/>
      <point x="866" y="-206" type="line"/>
      <point x="966" y="-206" type="line"/>
    </contour>
    <contour>
      <point x="712" y="-214" type="curve" smooth="yes"/>
      <point x="861" y="-214"/>
      <point x="884" y="-102"/>
      <point x="884" y="44" type="curve" smooth="yes"/>
      <point x="884" y="205"/>
      <point x="842" y="302"/>
      <point x="712" y="302" type="curve" smooth="yes"/>
      <point x="572" y="302"/>
      <point x="504" y="194"/>
      <point x="504" y="44" type="curve" smooth="yes"/>
      <point x="504" y="-114"/>
      <point x="572" y="-214"/>
    </contour>
    <contour>
      <point x="732" y="-134" type="curve" smooth="yes"/>
      <point x="642" y="-134"/>
      <point x="604" y="-66"/>
      <point x="604" y="44" type="curve" smooth="yes"/>
      <point x="604" y="154"/>
      <point x="642" y="222"/>
      <point x="732" y="222" type="curve" smooth="yes"/>
      <point x="827" y="222"/>
      <point x="866" y="147"/>
      <point x="866" y="44" type="curve" smooth="yes"/>
      <point x="866" y="-60"/>
      <point x="827" y="-134"/>
    </contour>
  </outline>
</glyph>
<glyph name="c_d.liga.alt3" format="2">
  <advance width="1056"/>
  <outline>
    <contour>
      <point x="492" y="481" type="curve"/>
      <point x="392" y="493" type="line"/>
      <point x="383" y="446"/>
      <point x="348" y="372"/>
      <point x="258" y="372" type="curve" smooth="yes"/>
      <point x="168" y="372"/>
      <point x="120" y="445"/>
      <point x="120" y="549" type="curve" smooth="yes"/>
      <point x="120" y="652"/>
      <point x="168" y="728"/>
      <point x="258" y="728" type="curve" smooth="yes"/>
      <point x="348" y="728"/>
      <point x="389" y="654"/>
      <point x="393" y="591" type="curve"/>
      <point x="493" y="604" type="line"/>
      <point x="477" y="720"/>
      <point x="398" y="808"/>
      <point x="258" y="808" type="curve" smooth="yes"/>
      <point x="118" y="808"/>
      <point x="20" y="710"/>
      <point x="20" y="549" type="curve" smooth="yes"/>
      <point x="20" y="403"/>
      <point x="115" y="292"/>
      <point x="258" y="292" type="curve" smooth="yes"/>
      <point x="382" y="292"/>
      <point x="472" y="373"/>
    </contour>
    <contour>
      <point x="1016" y="800" type="line"/>
      <point x="916" y="800" type="line"/>
      <point x="916" y="0" type="line"/>
      <point x="1016" y="0" type="line"/>
    </contour>
    <contour>
      <point x="762" y="-8" type="curve" smooth="yes"/>
      <point x="911" y="-8"/>
      <point x="934" y="104"/>
      <point x="934" y="250" type="curve" smooth="yes"/>
      <point x="934" y="411"/>
      <point x="892" y="508"/>
      <point x="762" y="508" type="curve" smooth="yes"/>
      <point x="622" y="508"/>
      <point x="554" y="400"/>
      <point x="554" y="250" type="curve" smooth="yes"/>
      <point x="554" y="92"/>
      <point x="622" y="-8"/>
    </contour>
    <contour>
      <point x="782" y="72" type="curve" smooth="yes"/>
      <point x="692" y="72"/>
      <point x="654" y="140"/>
      <point x="654" y="250" type="curve" smooth="yes"/>
      <point x="654" y="360"/>
      <point x="692" y="428"/>
      <point x="782" y="428" type="curve" smooth="yes"/>
      <point x="877" y="428"/>
      <point x="916" y="353"/>
      <point x="916" y="250" type="curve" smooth="yes"/>
      <point x="916" y="146"/>
      <point x="877" y="72"/>
    </contour>
  </outline>
</glyph>
<glyph name="c_d.liga" format="2">
  <advance width="1056"/>
  <outline>
    <contour>
      <point x="492" y="-26" type="curve"/>
      <point x="392" y="-14" type="line"/>
      <point x="383" y="-61"/>
      <point x="348" y="-135"/>
      <point x="258" y="-135" type="curve" smooth="yes"/>
      <point x="168" y="-135"/>
      <point x="120" y="-62"/>
      <point x="120" y="42" type="curve" smooth="yes"/>
      <point x="120" y="145"/>
      <point x="168" y="221"/>
      <point x="258" y="221" type="curve" smooth="yes"/>
      <point x="348" y="221"/>
      <point x="389" y="147"/>
      <point x="393" y="84" type="curve"/>
      <point x="493" y="97" type="line"/>
      <point x="477" y="213"/>
      <point x="398" y="301"/>
      <point x="258" y="301" type="curve" smooth="yes"/>
      <point x="118" y="301"/>
      <point x="20" y="203"/>
      <point x="20" y="42" type="curve" smooth="yes"/>
      <point x="20" y="-104"/>
      <point x="115" y="-215"/>
      <point x="258" y="-215" type="curve" smooth="yes"/>
      <point x="382" y="-215"/>
      <point x="472" y="-134"/>
    </contour>
    <contour>
      <point x="1016" y="801" type="line"/>
      <point x="916" y="801" type="line"/>
      <point x="916" y="1" type="line"/>
      <point x="1016" y="1" type="line"/>
    </contour>
    <contour>
      <point x="762" y="-7" type="curve" smooth="yes"/>
      <point x="911" y="-7"/>
      <point x="934" y="105"/>
      <point x="934" y="251" type="curve" smooth="yes"/>
      <point x="934" y="412"/>
      <point x="892" y="509"/>
      <point x="762" y="509" type="curve" smooth="yes"/>
      <point x="622" y="509"/>
      <point x="554" y="401"/>
      <point x="554" y="251" type="curve" smooth="yes"/>
      <point x="554" y="93"/>
      <point x="622" y="-7"/>
    </contour>
    <contour>
      <point x="782" y="73" type="curve" smooth="yes"/>
      <point x="692" y="73"/>
      <point x="654" y="141"/>
      <point x="654" y="251" type="curve" smooth="yes"/>
      <point x="654" y="361"/>
      <point x="692" y="429"/>
      <point x="782" y="429" type="curve" smooth="yes"/>
      <point x="877" y="429"/>
      <point x="916" y="354"/>
      <point x="916" y="251" type="curve" smooth="yes"/>
      <point x="916" y="147"/>
      <point x="877" y="73"/>
    </contour>
  </outline>
</glyph>
<glyph name="d.fina.alt" format="2">
  <advance width="522"/>
  <outline>
    <contour>
      <point x="482" y="600" type="line"/>
      <point x="382" y="600" type="line"/>
      <point x="382" y="-200" type="line"/>
      <point x="482" y="-200" type="line"/>
    </contour>
    <contour>
      <point x="228" y="-208" type="curve" smooth="yes"/>
      <point x="377" y="-208"/>
      <point x="400" y="-96"/>
      <point x="400" y="50" type="curve" smooth="yes"/>
      <point x="400" y="211"/>
      <point x="358" y="308"/>
      <point x="228" y="308" type="curve" smooth="yes"/>
      <point x="88" y="308"/>
      <point x="20" y="200"/>
      <point x="20" y="50" type="curve" smooth="yes"/>
      <point x="20" y="-108"/>
      <point x="88" y="-208"/>
    </contour>
    <contour>
      <point x="248" y="-128" type="curve" smooth="yes"/>
      <point x="158" y="-128"/>
      <point x="120" y="-60"/>
      <point x="120" y="50" type="curve" smooth="yes"/>
      <point x="120" y="160"/>
      <point x="158" y="228"/>
      <point x="248" y="228" type="curve" smooth="yes"/>
      <point x="343" y="228"/>
      <point x="382" y="153"/>
      <point x="382" y="50" type="curve" smooth="yes"/>
      <point x="382" y="-54"/>
      <point x="343" y="-128"/>
    </contour>
  </outline>
</glyph>
<glyph name="d.fina" format="2">
  <advance width="522"/>
  <outline>
    <contour>
      <point x="482" y="1100" type="line"/>
      <point x="382" y="1100" type="line"/>
      <point x="382" y="300" type="line"/>
      <point x="482" y="300" type="line"/>
    </contour>
    <contour>
      <point x="228" y="292" type="curve" smooth="yes"/>
      <point x="377" y="292"/>
      <point x="400" y="404"/>
      <point x="400" y="550" type="curve" smooth="yes"/>
      <point x="400" y="711"/>
      <point x="358" y="808"/>
      <point x="228" y="808" type="curve" smooth="yes"/>
      <point x="88" y="808"/>
      <point x="20" y="700"/>
      <point x="20" y="550" type="curve" smooth="yes"/>
      <point x="20" y="392"/>
      <point x="88" y="292"/>
    </contour>
    <contour>
      <point x="248" y="372" type="curve" smooth="yes"/>
      <point x="158" y="372"/>
      <point x="120" y="440"/>
      <point x="120" y="550" type="curve" smooth="yes"/>
      <point x="120" y="660"/>
      <point x="158" y="728"/>
      <point x="248" y="728" type="curve" smooth="yes"/>
      <point x="343" y="728"/>
      <point x="382" y="653"/>
      <point x="382" y="550" type="curve" smooth="yes"/>
      <point x="382" y="446"/>
      <point x="343" y="372"/>
    </contour>
  </outline>
</glyph>
<glyph name="d_d.liga.alt1" format="2">
  <advance width="1084"/>
  <outline>
    <contour>
      <point x="482" y="800" type="line"/>
      <point x="382" y="800" type="line"/>
      <point x="382" y="0" type="line"/>
      <point x="482" y="0" type="line"/>
    </contour>
    <contour>
      <point x="228" y="-8" type="curve" smooth="yes"/>
      <point x="377" y="-8"/>
      <point x="400" y="104"/>
      <point x="400" y="250" type="curve" smooth="yes"/>
      <point x="400" y="411"/>
      <point x="358" y="508"/>
      <point x="228" y="508" type="curve" smooth="yes"/>
      <point x="88" y="508"/>
      <point x="20" y="400"/>
      <point x="20" y="250" type="curve" smooth="yes"/>
      <point x="20" y="92"/>
      <point x="88" y="-8"/>
    </contour>
    <contour>
      <point x="248" y="72" type="curve" smooth="yes"/>
      <point x="158" y="72"/>
      <point x="120" y="140"/>
      <point x="120" y="250" type="curve" smooth="yes"/>
      <point x="120" y="360"/>
      <point x="158" y="428"/>
      <point x="248" y="428" type="curve" smooth="yes"/>
      <point x="343" y="428"/>
      <point x="382" y="353"/>
      <point x="382" y="250" type="curve" smooth="yes"/>
      <point x="382" y="146"/>
      <point x="343" y="72"/>
    </contour>
    <contour>
      <point x="1044" y="600" type="line"/>
      <point x="944" y="600" type="line"/>
      <point x="944" y="-200" type="line"/>
      <point x="1044" y="-200" type="line"/>
    </contour>
    <contour>
      <point x="790" y="-208" type="curve" smooth="yes"/>
      <point x="939" y="-208"/>
      <point x="962" y="-96"/>
      <point x="962" y="50" type="curve" smooth="yes"/>
      <point x="962" y="211"/>
      <point x="920" y="308"/>
      <point x="790" y="308" type="curve" smooth="yes"/>
      <point x="650" y="308"/>
      <point x="582" y="200"/>
      <point x="582" y="50" type="curve" smooth="yes"/>
      <point x="582" y="-108"/>
      <point x="650" y="-208"/>
    </contour>
    <contour>
      <point x="810" y="-128" type="curve" smooth="yes"/>
      <point x="720" y="-128"/>
      <point x="682" y="-60"/>
      <point x="682" y="50" type="curve" smooth="yes"/>
      <point x="682" y="160"/>
      <point x="720" y="228"/>
      <point x="810" y="228" type="curve" smooth="yes"/>
      <point x="905" y="228"/>
      <point x="944" y="153"/>
      <point x="944" y="50" type="curve" smooth="yes"/>
      <point x="944" y="-54"/>
      <point x="905" y="-128"/>
    </contour>
  </outline>
</glyph>
<glyph name="d_d.liga.alt2" format="2">
  <advance width="1044"/>
  <outline>
    <contour>
      <point x="482" y="600" type="line"/>
      <point x="382" y="600" type="line"/>
      <point x="382" y="-200" type="line"/>
      <point x="482" y="-200" type="line"/>
    </contour>
    <contour>
      <point x="228" y="-208" type="curve" smooth="yes"/>
      <point x="377" y="-208"/>
      <point x="400" y="-96"/>
      <point x="400" y="50" type="curve" smooth="yes"/>
      <point x="400" y="211"/>
      <point x="358" y="308"/>
      <point x="228" y="308" type="curve" smooth="yes"/>
      <point x="88" y="308"/>
      <point x="20" y="200"/>
      <point x="20" y="50" type="curve" smooth="yes"/>
      <point x="20" y="-108"/>
      <point x="88" y="-208"/>
    </contour>
    <contour>
      <point x="248" y="-128" type="curve" smooth="yes"/>
      <point x="158" y="-128"/>
      <point x="120" y="-60"/>
      <point x="120" y="50" type="curve" smooth="yes"/>
      <point x="120" y="160"/>
      <point x="158" y="228"/>
      <point x="248" y="228" type="curve" smooth="yes"/>
      <point x="343" y="228"/>
      <point x="382" y="153"/>
      <point x="382" y="50" type="curve" smooth="yes"/>
      <point x="382" y="-54"/>
      <point x="343" y="-128"/>
    </contour>
    <contour>
      <point x="1004" y="600" type="line"/>
      <point x="904" y="600" type="line"/>
      <point x="904" y="-200" type="line"/>
      <point x="1004" y="-200" type="line"/>
    </contour>
    <contour>
      <point x="750" y="-208" type="curve" smooth="yes"/>
      <point x="899" y="-208"/>
      <point x="922" y="-96"/>
      <point x="922" y="50" type="curve" smooth="yes"/>
      <point x="922" y="211"/>
      <point x="880" y="308"/>
      <point x="750" y="308" type="curve" smooth="yes"/>
      <point x="610" y="308"/>
      <point x="542" y="200"/>
      <point x="542" y="50" type="curve" smooth="yes"/>
      <point x="542" y="-108"/>
      <point x="610" y="-208"/>
    </contour>
    <contour>
      <point x="770" y="-128" type="curve" smooth="yes"/>
      <point x="680" y="-128"/>
      <point x="642" y="-60"/>
      <point x="642" y="50" type="curve" smooth="yes"/>
      <point x="642" y="160"/>
      <point x="680" y="228"/>
      <point x="770" y="228" type="curve" smooth="yes"/>
      <point x="865" y="228"/>
      <point x="904" y="153"/>
      <point x="904" y="50" type="curve" smooth="yes"/>
      <point x="904" y="-54"/>
      <point x="865" y="-128"/>
    </contour>
  </outline>
</glyph>
<glyph name="d_d.liga.alt3" format="2">
  <advance width="1034"/>
  <outline>
    <contour>
      <point x="482" y="800" type="line"/>
      <point x="382" y="800" type="line"/>
      <point x="382" y="0" type="line"/>
      <point x="482" y="0" type="line"/>
    </contour>
    <contour>
      <point x="228" y="-8" type="curve" smooth="yes"/>
      <point x="377" y="-8"/>
      <point x="400" y="104"/>
      <point x="400" y="250" type="curve" smooth="yes"/>
      <point x="400" y="411"/>
      <point x="358" y="508"/>
      <point x="228" y="508" type="curve" smooth="yes"/>
      <point x="88" y="508"/>
      <point x="20" y="400"/>
      <point x="20" y="250" type="curve" smooth="yes"/>
      <point x="20" y="92"/>
      <point x="88" y="-8"/>
    </contour>
    <contour>
      <point x="248" y="72" type="curve" smooth="yes"/>
      <point x="158" y="72"/>
      <point x="120" y="140"/>
      <point x="120" y="250" type="curve" smooth="yes"/>
      <point x="120" y="360"/>
      <point x="158" y="428"/>
      <point x="248" y="428" type="curve" smooth="yes"/>
      <point x="343" y="428"/>
      <point x="382" y="353"/>
      <point x="382" y="250" type="curve" smooth="yes"/>
      <point x="382" y="146"/>
      <point x="343" y="72"/>
    </contour>
    <contour>
      <point x="994" y="800" type="line"/>
      <point x="894" y="800" type="line"/>
      <point x="894" y="0" type="line"/>
      <point x="994" y="0" type="line"/>
    </contour>
    <contour>
      <point x="740" y="-8" type="curve" smooth="yes"/>
      <point x="889" y="-8"/>
      <point x="912" y="104"/>
      <point x="912" y="250" type="curve" smooth="yes"/>
      <point x="912" y="411"/>
      <point x="870" y="508"/>
      <point x="740" y="508" type="curve" smooth="yes"/>
      <point x="600" y="508"/>
      <point x="532" y="400"/>
      <point x="532" y="250" type="curve" smooth="yes"/>
      <point x="532" y="92"/>
      <point x="600" y="-8"/>
    </contour>
    <contour>
      <point x="760" y="72" type="curve" smooth="yes"/>
      <point x="670" y="72"/>
      <point x="632" y="140"/>
      <point x="632" y="250" type="curve" smooth="yes"/>
      <point x="632" y="360"/>
      <point x="670" y="428"/>
      <point x="760" y="428" type="curve" smooth="yes"/>
      <point x="855" y="428"/>
      <point x="894" y="353"/>
      <point x="894" y="250" type="curve" smooth="yes"/>
      <point x="894" y="146"/>
      <point x="855" y="72"/>
    </contour>
  </outline>
</glyph>
<glyph name="d_d.liga" format="2">
  <advance width="1034"/>
  <outline>
    <contour>
      <point x="482" y="600" type="line"/>
      <point x="382" y="600" type="line"/>
      <point x="382" y="-200" type="line"/>
      <point x="482" y="-200" type="line"/>
    </contour>
    <contour>
      <point x="228" y="-208" type="curve" smooth="yes"/>
      <point x="377" y="-208"/>
      <point x="400" y="-96"/>
      <point x="400" y="50" type="curve" smooth="yes"/>
      <point x="400" y="211"/>
      <point x="358" y="308"/>
      <point x="228" y="308" type="curve" smooth="yes"/>
      <point x="88" y="308"/>
      <point x="20" y="200"/>
      <point x="20" y="50" type="curve" smooth="yes"/>
      <point x="20" y="-108"/>
      <point x="88" y="-208"/>
    </contour>
    <contour>
      <point x="248" y="-128" type="curve" smooth="yes"/>
      <point x="158" y="-128"/>
      <point x="120" y="-60"/>
      <point x="120" y="50" type="curve" smooth="yes"/>
      <point x="120" y="160"/>
      <point x="158" y="228"/>
      <point x="248" y="228" type="curve" smooth="yes"/>
      <point x="343" y="228"/>
      <point x="382" y="153"/>
      <point x="382" y="50" type="curve" smooth="yes"/>
      <point x="382" y="-54"/>
      <point x="343" y="-128"/>
    </contour>
    <contour>
      <point x="994" y="800" type="line"/>
      <point x="894" y="800" type="line"/>
      <point x="894" y="0" type="line"/>
      <point x="994" y="0" type="line"/>
    </contour>
    <contour>
      <point x="740" y="-8" type="curve" smooth="yes"/>
      <point x="889" y="-8"/>
      <point x="912" y="104"/>
      <point x="912" y="250" type="curve" smooth="yes"/>
      <point x="912" y="411"/>
      <point x="870" y="508"/>
      <point x="740" y="508" type="curve" smooth="yes"/>
      <point x="600" y="508"/>
      <point x="532" y="400"/>
      <point x="532" y="250" type="curve" smooth="yes"/>
      <point x="532" y="92"/>
      <point x="600" y="-8"/>
    </contour>
    <contour>
      <point x="760" y="72" type="curve" smooth="yes"/>
      <point x="670" y="72"/>
      <point x="632" y="140"/>
      <point x="632" y="250" type="curve" smooth="yes"/>
      <point x="632" y="360"/>
      <point x="670" y="428"/>
      <point x="760" y="428" type="curve" smooth="yes"/>
      <point x="855" y="428"/>
      <point x="894" y="353"/>
      <point x="894" y="250" type="curve" smooth="yes"/>
      <point x="894" y="146"/>
      <point x="855" y="72"/>
    </contour>
  </outline>
</glyph>
<glyph name="e.fina.alt" format="2">
  <advance width="509"/>
  <outline>
    <contour>
      <point x="485" y="-30" type="curve"/>
      <point x="395" y="-18" type="line"/>
      <point x="380" y="-96"/>
      <point x="319" y="-131"/>
      <point x="256" y="-128" type="curve" smooth="yes"/>
      <point x="196" y="-125"/>
      <point x="120" y="-87"/>
      <point x="120" y="56" type="curve" smooth="yes"/>
      <point x="120" y="186"/>
      <point x="176" y="228"/>
      <point x="259" y="228" type="curve" smooth="yes"/>
      <point x="334" y="228"/>
      <point x="373" y="189"/>
      <point x="386" y="116" type="curve"/>
      <point x="99" y="116" type="line"/>
      <point x="99" y="36" type="line"/>
      <point x="485" y="36" type="line"/>
      <point x="489" y="59"/>
      <point x="489" y="80"/>
      <point x="488" y="95" type="curve" smooth="yes"/>
      <point x="480" y="220"/>
      <point x="385" y="308"/>
      <point x="259" y="308" type="curve" smooth="yes"/>
      <point x="117" y="308"/>
      <point x="20" y="217"/>
      <point x="20" y="56" type="curve" smooth="yes"/>
      <point x="20" y="-90"/>
      <point x="113" y="-208"/>
      <point x="256" y="-208" type="curve" smooth="yes"/>
      <point x="372" y="-208"/>
      <point x="465" y="-134"/>
    </contour>
  </outline>
</glyph>
<glyph name="e.fina" format="2">
  <advance width="509"/>
  <outline>
    <contour>
      <point x="485" y="470" type="curve"/>
      <point x="395" y="482" type="line"/>
      <point x="380" y="404"/>
      <point x="319" y="369"/>
      <point x="256" y="372" type="curve" smooth="yes"/>
      <point x="196" y="375"/>
      <point x="120" y="413"/>
      <point x="120" y="556" type="curve" smooth="yes"/>
      <point x="120" y="686"/>
      <point x="176" y="728"/>
      <point x="259" y="728" type="curve" smooth="yes"/>
      <point x="334" y="728"/>
      <point x="373" y="689"/>
      <point x="386" y="616" type="curve"/>
      <point x="99" y="616" type="line"/>
      <point x="99" y="536" type="line"/>
      <point x="485" y="536" type="line"/>
      <point x="489" y="559"/>
      <point x="489" y="580"/>
      <point x="488" y="595" type="curve" smooth="yes"/>
      <point x="480" y="720"/>
      <point x="385" y="808"/>
      <point x="259" y="808" type="curve" smooth="yes"/>
      <point x="117" y="808"/>
      <point x="20" y="717"/>
      <point x="20" y="556" type="curve" smooth="yes"/>
      <point x="20" y="410"/>
      <point x="113" y="292"/>
      <point x="256" y="292" type="curve" smooth="yes"/>
      <point x="372" y="292"/>
      <point x="465" y="366"/>
    </contour>
  </outline>
</glyph>
<glyph name="e_d.liga.alt3" format="2">
  <advance width="1088"/>
  <outline>
    <contour>
      <point x="485" y="470" type="curve"/>
      <point x="395" y="482" type="line"/>
      <point x="380" y="404"/>
      <point x="319" y="369"/>
      <point x="256" y="372" type="curve" smooth="yes"/>
      <point x="196" y="375"/>
      <point x="120" y="413"/>
      <point x="120" y="556" type="curve" smooth="yes"/>
      <point x="120" y="686"/>
      <point x="176" y="728"/>
      <point x="259" y="728" type="curve" smooth="yes"/>
      <point x="334" y="728"/>
      <point x="373" y="689"/>
      <point x="386" y="616" type="curve"/>
      <point x="99" y="616" type="line"/>
      <point x="99" y="536" type="line"/>
      <point x="485" y="536" type="line"/>
      <point x="489" y="559"/>
      <point x="489" y="580"/>
      <point x="488" y="595" type="curve" smooth="yes"/>
      <point x="480" y="720"/>
      <point x="385" y="808"/>
      <point x="259" y="808" type="curve"/>
      <point x="117" y="808"/>
      <point x="20" y="717"/>
      <point x="20" y="556" type="curve" smooth="yes"/>
      <point x="20" y="410"/>
      <point x="113" y="292"/>
      <point x="256" y="292" type="curve" smooth="yes"/>
      <point x="372" y="292"/>
      <point x="465" y="366"/>
    </contour>
    <contour>
      <point x="1048" y="800" type="line"/>
      <point x="948" y="800" type="line"/>
      <point x="948" y="0" type="line"/>
      <point x="1048" y="0" type="line"/>
    </contour>
    <contour>
      <point x="794" y="-8" type="curve" smooth="yes"/>
      <point x="943" y="-8"/>
      <point x="966" y="104"/>
      <point x="966" y="250" type="curve" smooth="yes"/>
      <point x="966" y="411"/>
      <point x="924" y="508"/>
      <point x="794" y="508" type="curve" smooth="yes"/>
      <point x="654" y="508"/>
      <point x="586" y="400"/>
      <point x="586" y="250" type="curve" smooth="yes"/>
      <point x="586" y="92"/>
      <point x="654" y="-8"/>
    </contour>
    <contour>
      <point x="814" y="72" type="curve" smooth="yes"/>
      <point x="724" y="72"/>
      <point x="686" y="140"/>
      <point x="686" y="250" type="curve" smooth="yes"/>
      <point x="686" y="360"/>
      <point x="724" y="428"/>
      <point x="814" y="428" type="curve" smooth="yes"/>
      <point x="909" y="428"/>
      <point x="948" y="353"/>
      <point x="948" y="250" type="curve" smooth="yes"/>
      <point x="948" y="146"/>
      <point x="909" y="72"/>
    </contour>
  </outline>
</glyph>
<glyph name="e_d.liga" format="2">
  <advance width="1088"/>
  <outline>
    <contour>
      <point x="485" y="-31" type="curve"/>
      <point x="395" y="-19" type="line"/>
      <point x="380" y="-97"/>
      <point x="319" y="-132"/>
      <point x="256" y="-129" type="curve" smooth="yes"/>
      <point x="196" y="-126"/>
      <point x="120" y="-88"/>
      <point x="120" y="55" type="curve" smooth="yes"/>
      <point x="120" y="185"/>
      <point x="176" y="227"/>
      <point x="259" y="227" type="curve" smooth="yes"/>
      <point x="334" y="227"/>
      <point x="373" y="188"/>
      <point x="386" y="115" type="curve"/>
      <point x="99" y="115" type="line"/>
      <point x="99" y="35" type="line"/>
      <point x="485" y="35" type="line"/>
      <point x="489" y="58"/>
      <point x="489" y="79"/>
      <point x="488" y="94" type="curve" smooth="yes"/>
      <point x="480" y="219"/>
      <point x="385" y="307"/>
      <point x="259" y="307" type="curve"/>
      <point x="117" y="307"/>
      <point x="20" y="216"/>
      <point x="20" y="55" type="curve" smooth="yes"/>
      <point x="20" y="-91"/>
      <point x="113" y="-209"/>
      <point x="256" y="-209" type="curve" smooth="yes"/>
      <point x="372" y="-209"/>
      <point x="465" y="-135"/>
    </contour>
    <contour>
      <point x="1048" y="800" type="line"/>
      <point x="948" y="800" type="line"/>
      <point x="948" y="0" type="line"/>
      <point x="1048" y="0" type="line"/>
    </contour>
    <contour>
      <point x="794" y="-8" type="curve" smooth="yes"/>
      <point x="943" y="-8"/>
      <point x="966" y="104"/>
      <point x="966" y="250" type="curve" smooth="yes"/>
      <point x="966" y="411"/>
      <point x="924" y="508"/>
      <point x="794" y="508" type="curve" smooth="yes"/>
      <point x="654" y="508"/>
      <point x="586" y="400"/>
      <point x="586" y="250" type="curve" smooth="yes"/>
      <point x="586" y="92"/>
      <point x="654" y="-8"/>
    </contour>
    <contour>
      <point x="814" y="72" type="curve" smooth="yes"/>
      <point x="724" y="72"/>
      <point x="686" y="140"/>
      <point x="686" y="250" type="curve" smooth="yes"/>
      <point x="686" y="360"/>
      <point x="724" y="428"/>
      <point x="814" y="428" type="curve" smooth="yes"/>
      <point x="909" y="428"/>
      <point x="948" y="353"/>
      <point x="948" y="250" type="curve" smooth="yes"/>
      <point x="948" y="146"/>
      <point x="909" y="72"/>
    </contour>
  </outline>
</glyph>
<glyph name="e_e.liga.alt1" format="2">
  <advance width="1024"/>
  <outline>
    <contour>
      <point x="485" y="460" type="curve"/>
      <point x="395" y="472" type="line"/>
      <point x="380" y="394"/>
      <point x="319" y="359"/>
      <point x="256" y="362" type="curve" smooth="yes"/>
      <point x="196" y="365"/>
      <point x="120" y="403"/>
      <point x="120" y="546" type="curve" smooth="yes"/>
      <point x="120" y="676"/>
      <point x="176" y="718"/>
      <point x="259" y="718" type="curve" smooth="yes"/>
      <point x="334" y="718"/>
      <point x="373" y="679"/>
      <point x="386" y="606" type="curve"/>
      <point x="99" y="606" type="line"/>
      <point x="99" y="526" type="line"/>
      <point x="485" y="526" type="line"/>
      <point x="489" y="549"/>
      <point x="489" y="570"/>
      <point x="488" y="585" type="curve" smooth="yes"/>
      <point x="480" y="710"/>
      <point x="385" y="798"/>
      <point x="259" y="798" type="curve" smooth="yes"/>
      <point x="117" y="798"/>
      <point x="20" y="707"/>
      <point x="20" y="546" type="curve" smooth="yes"/>
      <point x="20" y="400"/>
      <point x="113" y="282"/>
      <point x="256" y="282" type="curve" smooth="yes"/>
      <point x="372" y="282"/>
      <point x="465" y="356"/>
    </contour>
    <contour>
      <point x="1000" y="-30" type="curve"/>
      <point x="910" y="-18" type="line"/>
      <point x="895" y="-96"/>
      <point x="834" y="-131"/>
      <point x="771" y="-128" type="curve" smooth="yes"/>
      <point x="711" y="-125"/>
      <point x="635" y="-87"/>
      <point x="635" y="56" type="curve" smooth="yes"/>
      <point x="635" y="186"/>
      <point x="691" y="228"/>
      <point x="774" y="228" type="curve" smooth="yes"/>
      <point x="849" y="228"/>
      <point x="888" y="189"/>
      <point x="901" y="116" type="curve"/>
      <point x="614" y="116" type="line"/>
      <point x="614" y="36" type="line"/>
      <point x="1000" y="36" type="line"/>
      <point x="1004" y="59"/>
      <point x="1004" y="80"/>
      <point x="1003" y="95" type="curve" smooth="yes"/>
      <point x="995" y="220"/>
      <point x="900" y="308"/>
      <point x="774" y="308" type="curve" smooth="yes"/>
      <point x="632" y="308"/>
      <point x="535" y="217"/>
      <point x="535" y="56" type="curve" smooth="yes"/>
      <point x="535" y="-90"/>
      <point x="628" y="-208"/>
      <point x="771" y="-208" type="curve" smooth="yes"/>
      <point x="887" y="-208"/>
      <point x="980" y="-134"/>
    </contour>
  </outline>
</glyph>
<glyph name="e_e.liga.alt2" format="2">
  <advance width="1048"/>
  <outline>
    <contour>
      <point x="485" y="-36" type="curve"/>
      <point x="395" y="-24" type="line"/>
      <point x="380" y="-102"/>
      <point x="319" y="-137"/>
      <point x="256" y="-134" type="curve" smooth="yes"/>
      <point x="196" y="-131"/>
      <point x="120" y="-93"/>
      <point x="120" y="50" type="curve" smooth="yes"/>
      <point x="120" y="180"/>
      <point x="176" y="222"/>
      <point x="259" y="222" type="curve" smooth="yes"/>
      <point x="334" y="222"/>
      <point x="373" y="183"/>
      <point x="386" y="110" type="curve"/>
      <point x="99" y="110" type="line"/>
      <point x="99" y="30" type="line"/>
      <point x="485" y="30" type="line"/>
      <point x="489" y="53"/>
      <point x="489" y="74"/>
      <point x="488" y="89" type="curve" smooth="yes"/>
      <point x="480" y="214"/>
      <point x="385" y="302"/>
      <point x="259" y="302" type="curve" smooth="yes"/>
      <point x="117" y="302"/>
      <point x="20" y="211"/>
      <point x="20" y="50" type="curve" smooth="yes"/>
      <point x="20" y="-96"/>
      <point x="113" y="-214"/>
      <point x="256" y="-214" type="curve" smooth="yes"/>
      <point x="372" y="-214"/>
      <point x="465" y="-140"/>
    </contour>
    <contour>
      <point x="1024" y="-36" type="curve"/>
      <point x="934" y="-24" type="line"/>
      <point x="919" y="-102"/>
      <point x="858" y="-137"/>
      <point x="795" y="-134" type="curve" smooth="yes"/>
      <point x="735" y="-131"/>
      <point x="659" y="-93"/>
      <point x="659" y="50" type="curve" smooth="yes"/>
      <point x="659" y="180"/>
      <point x="715" y="222"/>
      <point x="798" y="222" type="curve" smooth="yes"/>
      <point x="873" y="222"/>
      <point x="912" y="183"/>
      <point x="925" y="110" type="curve"/>
      <point x="638" y="110" type="line"/>
      <point x="638" y="30" type="line"/>
      <point x="1024" y="30" type="line"/>
      <point x="1028" y="53"/>
      <point x="1028" y="74"/>
      <point x="1027" y="89" type="curve" smooth="yes"/>
      <point x="1019" y="214"/>
      <point x="924" y="302"/>
      <point x="798" y="302" type="curve" smooth="yes"/>
      <point x="656" y="302"/>
      <point x="559" y="211"/>
      <point x="559" y="50" type="curve" smooth="yes"/>
      <point x="559" y="-96"/>
      <point x="652" y="-214"/>
      <point x="795" y="-214" type="curve" smooth="yes"/>
      <point x="911" y="-214"/>
      <point x="1004" y="-140"/>
    </contour>
  </outline>
</glyph>
<glyph name="e_e.liga.alt3" format="2">
  <advance width="1038"/>
  <outline>
    <contour>
      <point x="485" y="470" type="curve"/>
      <point x="395" y="482" type="line"/>
      <point x="380" y="404"/>
      <point x="319" y="369"/>
      <point x="256" y="372" type="curve" smooth="yes"/>
      <point x="196" y="375"/>
      <point x="120" y="413"/>
      <point x="120" y="556" type="curve" smooth="yes"/>
      <point x="120" y="686"/>
      <point x="176" y="728"/>
      <point x="259" y="728" type="curve" smooth="yes"/>
      <point x="334" y="728"/>
      <point x="373" y="689"/>
      <point x="386" y="616" type="curve"/>
      <point x="99" y="616" type="line"/>
      <point x="99" y="536" type="line"/>
      <point x="485" y="536" type="line"/>
      <point x="489" y="559"/>
      <point x="489" y="580"/>
      <point x="488" y="595" type="curve" smooth="yes"/>
      <point x="480" y="720"/>
      <point x="385" y="808"/>
      <point x="259" y="808" type="curve" smooth="yes"/>
      <point x="117" y="808"/>
      <point x="20" y="717"/>
      <point x="20" y="556" type="curve" smooth="yes"/>
      <point x="20" y="410"/>
      <point x="113" y="292"/>
      <point x="256" y="292" type="curve" smooth="yes"/>
      <point x="372" y="292"/>
      <point x="465" y="366"/>
    </contour>
    <contour>
      <point x="1014" y="470" type="curve"/>
      <point x="924" y="482" type="line"/>
      <point x="909" y="404"/>
      <point x="848" y="369"/>
      <point x="785" y="372" type="curve" smooth="yes"/>
      <point x="725" y="375"/>
      <point x="649" y="413"/>
      <point x="649" y="556" type="curve" smooth="yes"/>
      <point x="649" y="686"/>
      <point x="705" y="728"/>
      <point x="788" y="728" type="curve" smooth="yes"/>
      <point x="863" y="728"/>
      <point x="902" y="689"/>
      <point x="915" y="616" type="curve"/>
      <point x="628" y="616" type="line"/>
      <point x="628" y="536" type="line"/>
      <point x="1014" y="536" type="line"/>
      <point x="1018" y="559"/>
      <point x="1018" y="580"/>
      <point x="1017" y="595" type="curve" smooth="yes"/>
      <point x="1009" y="720"/>
      <point x="914" y="808"/>
      <point x="788" y="808" type="curve" smooth="yes"/>
      <point x="646" y="808"/>
      <point x="549" y="717"/>
      <point x="549" y="556" type="curve" smooth="yes"/>
      <point x="549" y="410"/>
      <point x="642" y="292"/>
      <point x="785" y="292" type="curve" smooth="yes"/>
      <point x="901" y="292"/>
      <point x="994" y="366"/>
    </contour>
  </outline>
</glyph>
<glyph name="e_e.liga" format="2">
  <advance width="888"/>
  <outline>
    <contour>
      <point x="485" y="-30" type="curve"/>
      <point x="395" y="-18" type="line"/>
      <point x="380" y="-96"/>
      <point x="319" y="-131"/>
      <point x="256" y="-128" type="curve" smooth="yes"/>
      <point x="196" y="-125"/>
      <point x="120" y="-87"/>
      <point x="120" y="56" type="curve" smooth="yes"/>
      <point x="120" y="186"/>
      <point x="176" y="228"/>
      <point x="259" y="228" type="curve" smooth="yes"/>
      <point x="334" y="228"/>
      <point x="373" y="189"/>
      <point x="386" y="116" type="curve"/>
      <point x="99" y="116" type="line"/>
      <point x="99" y="36" type="line"/>
      <point x="485" y="36" type="line"/>
      <point x="489" y="59"/>
      <point x="489" y="80"/>
      <point x="488" y="95" type="curve" smooth="yes"/>
      <point x="480" y="220"/>
      <point x="385" y="308"/>
      <point x="259" y="308" type="curve" smooth="yes"/>
      <point x="117" y="308"/>
      <point x="20" y="217"/>
      <point x="20" y="56" type="curve" smooth="yes"/>
      <point x="20" y="-90"/>
      <point x="113" y="-208"/>
      <point x="256" y="-208" type="curve" smooth="yes"/>
      <point x="372" y="-208"/>
      <point x="465" y="-134"/>
    </contour>
    <contour>
      <point x="864" y="470" type="curve"/>
      <point x="774" y="482" type="line"/>
      <point x="759" y="404"/>
      <point x="698" y="369"/>
      <point x="635" y="372" type="curve" smooth="yes"/>
      <point x="575" y="375"/>
      <point x="499" y="413"/>
      <point x="499" y="556" type="curve" smooth="yes"/>
      <point x="499" y="686"/>
      <point x="555" y="728"/>
      <point x="638" y="728" type="curve" smooth="yes"/>
      <point x="713" y="728"/>
      <point x="752" y="689"/>
      <point x="765" y="616" type="curve"/>
      <point x="478" y="616" type="line"/>
      <point x="478" y="536" type="line"/>
      <point x="864" y="536" type="line"/>
      <point x="868" y="559"/>
      <point x="868" y="580"/>
      <point x="867" y="595" type="curve" smooth="yes"/>
      <point x="859" y="720"/>
      <point x="764" y="808"/>
      <point x="638" y="808" type="curve" smooth="yes"/>
      <point x="496" y="808"/>
      <point x="399" y="717"/>
      <point x="399" y="556" type="curve" smooth="yes"/>
      <point x="399" y="410"/>
      <point x="492" y="292"/>
      <point x="635" y="292" type="curve" smooth="yes"/>
      <point x="751" y="292"/>
      <point x="844" y="366"/>
    </contour>
  </outline>
</glyph>
<glyph name="eight.alt1" format="2">
  <advance width="611"/>
  <outline>
    <contour>
      <point x="306" y="96" type="curve" smooth="yes"/>
      <point x="496" y="96"/>
      <point x="581" y="196"/>
      <point x="581" y="311" type="curve" smooth="yes"/>
      <point x="581" y="401"/>
      <point x="524" y="456"/>
      <point x="453" y="488" type="curve"/>
      <point x="504" y="522"/>
      <point x="543" y="572"/>
      <point x="543" y="633" type="curve" smooth="yes"/>
      <point x="543" y="738"/>
      <point x="446" y="817"/>
      <point x="306" y="817" type="curve" smooth="yes"/>
      <point x="166" y="817"/>
      <point x="68" y="738"/>
      <point x="68" y="633" type="curve" smooth="yes"/>
      <point x="68" y="572"/>
      <point x="107" y="522"/>
      <point x="159" y="488" type="curve"/>
      <point x="88" y="456"/>
      <point x="30" y="401"/>
      <point x="30" y="311" type="curve" smooth="yes"/>
      <point x="30" y="196"/>
      <point x="116" y="96"/>
    </contour>
    <contour>
      <point x="306" y="186" type="curve" smooth="yes"/>
      <point x="206" y="186"/>
      <point x="135" y="216"/>
      <point x="135" y="311" type="curve" smooth="yes"/>
      <point x="135" y="406"/>
      <point x="206" y="439"/>
      <point x="306" y="439" type="curve" smooth="yes"/>
      <point x="406" y="439"/>
      <point x="476" y="406"/>
      <point x="476" y="311" type="curve" smooth="yes"/>
      <point x="476" y="216"/>
      <point x="406" y="186"/>
    </contour>
    <contour>
      <point x="306" y="529" type="curve" smooth="yes"/>
      <point x="216" y="529"/>
      <point x="168" y="568"/>
      <point x="168" y="628" type="curve" smooth="yes"/>
      <point x="168" y="688"/>
      <point x="216" y="727"/>
      <point x="306" y="727" type="curve" smooth="yes"/>
      <point x="396" y="727"/>
      <point x="443" y="688"/>
      <point x="443" y="628" type="curve" smooth="yes"/>
      <point x="443" y="568"/>
      <point x="396" y="529"/>
    </contour>
  </outline>
</glyph>
<glyph name="f.fina.alt" format="2">
  <advance width="417"/>
  <outline>
    <contour>
      <point x="387" y="556" type="line"/>
      <point x="365" y="583"/>
      <point x="327" y="594"/>
      <point x="288" y="594" type="curve" smooth="yes"/>
      <point x="171" y="594"/>
      <point x="114" y="543"/>
      <point x="114" y="427" type="curve" smooth="yes"/>
      <point x="114" y="-200" type="line"/>
      <point x="214" y="-200" type="line"/>
      <point x="214" y="422" type="line"/>
      <point x="214" y="496"/>
      <point x="253" y="514"/>
      <point x="288" y="514" type="curve" smooth="yes"/>
      <point x="318" y="514"/>
      <point x="356" y="501"/>
      <point x="387" y="476" type="curve"/>
    </contour>
    <contour>
      <point x="30" y="217" type="line"/>
      <point x="380" y="217" type="line"/>
      <point x="380" y="297" type="line"/>
      <point x="30" y="297" type="line"/>
    </contour>
  </outline>
</glyph>
<glyph name="f.fina" format="2">
  <advance width="417"/>
  <outline>
    <contour>
      <point x="387" y="771" type="line"/>
      <point x="365" y="798"/>
      <point x="327" y="809"/>
      <point x="288" y="809" type="curve" smooth="yes"/>
      <point x="171" y="809"/>
      <point x="114" y="758"/>
      <point x="114" y="642" type="curve" smooth="yes"/>
      <point x="114" y="15" type="line"/>
      <point x="214" y="15" type="line"/>
      <point x="214" y="637" type="line"/>
      <point x="214" y="711"/>
      <point x="253" y="729"/>
      <point x="288" y="729" type="curve" smooth="yes"/>
      <point x="318" y="729"/>
      <point x="356" y="716"/>
      <point x="387" y="691" type="curve"/>
    </contour>
    <contour>
      <point x="30" y="432" type="line"/>
      <point x="380" y="432" type="line"/>
      <point x="380" y="512" type="line"/>
      <point x="30" y="512" type="line"/>
    </contour>
  </outline>
</glyph>
<glyph name="f_f.liga.alt1" format="2">
  <advance width="774"/>
  <outline>
    <contour>
      <point x="387" y="755" type="line"/>
      <point x="365" y="782"/>
      <point x="327" y="793"/>
      <point x="288" y="793" type="curve" smooth="yes"/>
      <point x="171" y="793"/>
      <point x="114" y="742"/>
      <point x="114" y="626" type="curve" smooth="yes"/>
      <point x="114" y="-1" type="line"/>
      <point x="214" y="-1" type="line"/>
      <point x="214" y="621" type="line"/>
      <point x="214" y="695"/>
      <point x="253" y="713"/>
      <point x="288" y="713" type="curve" smooth="yes"/>
      <point x="318" y="713"/>
      <point x="356" y="700"/>
      <point x="387" y="675" type="curve"/>
    </contour>
    <contour>
      <point x="30" y="416" type="line"/>
      <point x="380" y="416" type="line"/>
      <point x="380" y="496" type="line"/>
      <point x="30" y="496" type="line"/>
    </contour>
    <contour>
      <point x="744" y="555" type="line"/>
      <point x="722" y="582"/>
      <point x="684" y="593"/>
      <point x="645" y="593" type="curve" smooth="yes"/>
      <point x="528" y="593"/>
      <point x="471" y="542"/>
      <point x="471" y="426" type="curve" smooth="yes"/>
      <point x="471" y="-201" type="line"/>
      <point x="571" y="-201" type="line"/>
      <point x="571" y="421" type="line"/>
      <point x="571" y="495"/>
      <point x="610" y="513"/>
      <point x="645" y="513" type="curve" smooth="yes"/>
      <point x="675" y="513"/>
      <point x="713" y="500"/>
      <point x="744" y="475" type="curve"/>
    </contour>
    <contour>
      <point x="387" y="216" type="line"/>
      <point x="737" y="216" type="line"/>
      <point x="737" y="296" type="line"/>
      <point x="387" y="296" type="line"/>
    </contour>
  </outline>
</glyph>
<glyph name="f_f.liga.alt2" format="2">
  <advance width="767"/>
  <outline>
    <contour>
      <point x="387" y="555" type="line"/>
      <point x="365" y="582"/>
      <point x="327" y="593"/>
      <point x="288" y="593" type="curve" smooth="yes"/>
      <point x="171" y="593"/>
      <point x="114" y="542"/>
      <point x="114" y="426" type="curve" smooth="yes"/>
      <point x="114" y="-201" type="line"/>
      <point x="214" y="-201" type="line"/>
      <point x="214" y="421" type="line"/>
      <point x="214" y="495"/>
      <point x="253" y="513"/>
      <point x="288" y="513" type="curve" smooth="yes"/>
      <point x="318" y="513"/>
      <point x="356" y="500"/>
      <point x="387" y="475" type="curve"/>
    </contour>
    <contour>
      <point x="30" y="216" type="line"/>
      <point x="383" y="216" type="line"/>
      <point x="383" y="296" type="line"/>
      <point x="30" y="296" type="line"/>
    </contour>
    <contour>
      <point x="724" y="555" type="line"/>
      <point x="702" y="582"/>
      <point x="664" y="593"/>
      <point x="625" y="593" type="curve" smooth="yes"/>
      <point x="508" y="593"/>
      <point x="451" y="542"/>
      <point x="451" y="426" type="curve" smooth="yes"/>
      <point x="451" y="-201" type="line"/>
      <point x="551" y="-201" type="line"/>
      <point x="551" y="421" type="line"/>
      <point x="551" y="495"/>
      <point x="590" y="513"/>
      <point x="625" y="513" type="curve" smooth="yes"/>
      <point x="655" y="513"/>
      <point x="693" y="500"/>
      <point x="724" y="475" type="curve"/>
    </contour>
    <contour>
      <point x="383" y="216" type="line"/>
      <point x="737" y="216" type="line"/>
      <point x="737" y="296" type="line"/>
      <point x="383" y="296" type="line"/>
    </contour>
  </outline>
</glyph>
<glyph name="f_f.liga.alt3" format="2">
  <advance width="744"/>
  <outline>
    <contour>
      <point x="387" y="776" type="line"/>
      <point x="365" y="803"/>
      <point x="327" y="814"/>
      <point x="288" y="814" type="curve" smooth="yes"/>
      <point x="171" y="814"/>
      <point x="114" y="763"/>
      <point x="114" y="647" type="curve" smooth="yes"/>
      <point x="114" y="20" type="line"/>
      <point x="214" y="20" type="line"/>
      <point x="214" y="642" type="line"/>
      <point x="214" y="716"/>
      <point x="253" y="734"/>
      <point x="288" y="734" type="curve" smooth="yes"/>
      <point x="318" y="734"/>
      <point x="356" y="721"/>
      <point x="387" y="696" type="curve"/>
    </contour>
    <contour>
      <point x="30" y="437" type="line"/>
      <point x="380" y="437" type="line"/>
      <point x="380" y="517" type="line"/>
      <point x="30" y="517" type="line"/>
    </contour>
    <contour>
      <point x="714" y="761" type="line"/>
      <point x="692" y="788"/>
      <point x="654" y="799"/>
      <point x="615" y="799" type="curve" smooth="yes"/>
      <point x="498" y="799"/>
      <point x="441" y="748"/>
      <point x="441" y="632" type="curve" smooth="yes"/>
      <point x="441" y="15" type="line"/>
      <point x="541" y="15" type="line"/>
      <point x="541" y="627" type="line"/>
      <point x="541" y="701"/>
      <point x="580" y="719"/>
      <point x="615" y="719" type="curve" smooth="yes"/>
      <point x="645" y="719"/>
      <point x="683" y="706"/>
      <point x="714" y="681" type="curve"/>
    </contour>
    <contour>
      <point x="357" y="437" type="line"/>
      <point x="707" y="437" type="line"/>
      <point x="707" y="517" type="line"/>
      <point x="357" y="517" type="line"/>
    </contour>
  </outline>
</glyph>
<glyph name="f_f.liga" format="2">
  <advance width="834"/>
  <outline>
    <contour>
      <point x="387" y="556" type="line"/>
      <point x="365" y="583"/>
      <point x="327" y="594"/>
      <point x="288" y="594" type="curve" smooth="yes"/>
      <point x="171" y="594"/>
      <point x="114" y="543"/>
      <point x="114" y="427" type="curve" smooth="yes"/>
      <point x="114" y="-200" type="line"/>
      <point x="214" y="-200" type="line"/>
      <point x="214" y="422" type="line"/>
      <point x="214" y="496"/>
      <point x="253" y="514"/>
      <point x="288" y="514" type="curve" smooth="yes"/>
      <point x="318" y="514"/>
      <point x="356" y="501"/>
      <point x="387" y="476" type="curve"/>
    </contour>
    <contour>
      <point x="30" y="217" type="line"/>
      <point x="380" y="217" type="line"/>
      <point x="380" y="297" type="line"/>
      <point x="30" y="297" type="line"/>
    </contour>
    <contour>
      <point x="804" y="761" type="line"/>
      <point x="782" y="788"/>
      <point x="744" y="799"/>
      <point x="705" y="799" type="curve" smooth="yes"/>
      <point x="588" y="799"/>
      <point x="531" y="748"/>
      <point x="531" y="632" type="curve" smooth="yes"/>
      <point x="531" y="5" type="line"/>
      <point x="631" y="5" type="line"/>
      <point x="631" y="627" type="line"/>
      <point x="631" y="701"/>
      <point x="670" y="719"/>
      <point x="705" y="719" type="curve" smooth="yes"/>
      <point x="735" y="719"/>
      <point x="773" y="706"/>
      <point x="804" y="681" type="curve"/>
    </contour>
    <contour>
      <point x="447" y="399" type="line"/>
      <point x="797" y="399" type="line"/>
      <point x="797" y="479" type="line"/>
      <point x="447" y="479" type="line"/>
    </contour>
  </outline>
</glyph>
<glyph name="five.alt1" format="2">
  <advance width="601"/>
  <outline>
    <contour>
      <point x="106" y="817" type="line"/>
      <point x="65" y="532" type="line"/>
      <point x="146" y="460" type="line"/>
      <point x="184" y="727" type="line"/>
      <point x="522" y="727" type="line"/>
      <point x="522" y="817" type="line"/>
    </contour>
    <contour>
      <point x="296" y="581" type="curve"/>
      <point x="238" y="581"/>
      <point x="186" y="564"/>
      <point x="128" y="521" type="curve"/>
      <point x="146" y="460" type="line"/>
      <point x="196" y="490"/>
      <point x="246" y="491"/>
      <point x="296" y="491" type="curve" smooth="yes"/>
      <point x="436" y="491"/>
      <point x="466" y="419"/>
      <point x="466" y="324" type="curve" smooth="yes"/>
      <point x="466" y="229"/>
      <point x="396" y="199"/>
      <point x="296" y="199" type="curve" smooth="yes"/>
      <point x="196" y="199"/>
      <point x="135" y="239"/>
      <point x="135" y="334" type="curve"/>
      <point x="30" y="344" type="line"/>
      <point x="30" y="229"/>
      <point x="106" y="109"/>
      <point x="296" y="109" type="curve" smooth="yes"/>
      <point x="486" y="109"/>
      <point x="571" y="209"/>
      <point x="571" y="324" type="curve" smooth="yes"/>
      <point x="571" y="459"/>
      <point x="507" y="581"/>
    </contour>
  </outline>
</glyph>
<glyph name="four.alt1" format="2">
  <advance width="620"/>
  <outline>
    <contour>
      <point x="30" y="382" type="line"/>
      <point x="30" y="292" type="line"/>
      <point x="373" y="292" type="line"/>
      <point x="373" y="116" type="line"/>
      <point x="478" y="116" type="line"/>
      <point x="478" y="292" type="line"/>
      <point x="590" y="292" type="line"/>
      <point x="590" y="382" type="line"/>
      <point x="478" y="382" type="line"/>
      <point x="478" y="816" type="line"/>
      <point x="302" y="816" type="line"/>
    </contour>
    <contour>
      <point x="146" y="382" type="line"/>
      <point x="373" y="740" type="line"/>
      <point x="373" y="382" type="line"/>
    </contour>
  </outline>
</glyph>
<glyph name="g.fina" format="2">
  <advance width="522"/>
  <outline>
    <contour>
      <point x="482" y="801" type="line"/>
      <point x="382" y="801" type="line"/>
      <point x="382" y="301" type="line"/>
      <point x="482" y="301" type="line"/>
    </contour>
    <contour>
      <point x="228" y="293" type="curve" smooth="yes"/>
      <point x="368" y="293"/>
      <point x="400" y="389"/>
      <point x="400" y="551" type="curve" smooth="yes"/>
      <point x="400" y="712"/>
      <point x="358" y="809"/>
      <point x="228" y="809" type="curve" smooth="yes"/>
      <point x="88" y="809"/>
      <point x="20" y="699"/>
      <point x="20" y="549" type="curve" smooth="yes"/>
      <point x="20" y="391"/>
      <point x="88" y="293"/>
    </contour>
    <contour>
      <point x="248" y="373" type="curve" smooth="yes"/>
      <point x="158" y="373"/>
      <point x="120" y="439"/>
      <point x="120" y="549" type="curve" smooth="yes"/>
      <point x="120" y="659"/>
      <point x="158" y="729"/>
      <point x="248" y="729" type="curve" smooth="yes"/>
      <point x="343" y="729"/>
      <point x="382" y="654"/>
      <point x="382" y="551" type="curve" smooth="yes"/>
      <point x="382" y="447"/>
      <point x="343" y="373"/>
    </contour>
    <contour>
      <point x="482" y="301" type="curve"/>
      <point x="382" y="301" type="line"/>
      <point x="382" y="219"/>
      <point x="331" y="173"/>
      <point x="246" y="173" type="curve" smooth="yes"/>
      <point x="176" y="173"/>
      <point x="139" y="204"/>
      <point x="129" y="247" type="curve"/>
      <point x="37" y="235" type="line"/>
      <point x="57" y="131"/>
      <point x="137" y="93"/>
      <point x="246" y="93" type="curve" smooth="yes"/>
      <point x="396" y="93"/>
      <point x="482" y="165"/>
    </contour>
  </outline>
</glyph>
<glyph name="g_g.liga.alt1" format="2">
  <advance width="1109"/>
  <outline>
    <contour>
      <point x="482" y="800" type="line"/>
      <point x="382" y="800" type="line"/>
      <point x="382" y="300" type="line"/>
      <point x="482" y="300" type="line"/>
    </contour>
    <contour>
      <point x="228" y="292" type="curve" smooth="yes"/>
      <point x="368" y="292"/>
      <point x="400" y="388"/>
      <point x="400" y="550" type="curve" smooth="yes"/>
      <point x="400" y="711"/>
      <point x="358" y="808"/>
      <point x="228" y="808" type="curve" smooth="yes"/>
      <point x="88" y="808"/>
      <point x="20" y="698"/>
      <point x="20" y="548" type="curve" smooth="yes"/>
      <point x="20" y="390"/>
      <point x="88" y="292"/>
    </contour>
    <contour>
      <point x="248" y="372" type="curve" smooth="yes"/>
      <point x="158" y="372"/>
      <point x="120" y="438"/>
      <point x="120" y="548" type="curve" smooth="yes"/>
      <point x="120" y="658"/>
      <point x="158" y="728"/>
      <point x="248" y="728" type="curve" smooth="yes"/>
      <point x="343" y="728"/>
      <point x="382" y="653"/>
      <point x="382" y="550" type="curve" smooth="yes"/>
      <point x="382" y="446"/>
      <point x="343" y="372"/>
    </contour>
    <contour>
      <point x="482" y="300" type="curve"/>
      <point x="382" y="300" type="line"/>
      <point x="382" y="218"/>
      <point x="331" y="172"/>
      <point x="246" y="172" type="curve" smooth="yes"/>
      <point x="176" y="172"/>
      <point x="139" y="203"/>
      <point x="129" y="246" type="curve"/>
      <point x="37" y="234" type="line"/>
      <point x="57" y="130"/>
      <point x="137" y="92"/>
      <point x="246" y="92" type="curve" smooth="yes"/>
      <point x="396" y="92"/>
      <point x="482" y="164"/>
    </contour>
    <contour>
      <point x="1069" y="500" type="line"/>
      <point x="969" y="500" type="line"/>
      <point x="969" y="0" type="line"/>
      <point x="1069" y="0" type="line"/>
    </contour>
    <contour>
      <point x="815" y="-8" type="curve" smooth="yes"/>
      <point x="955" y="-8"/>
      <point x="987" y="88"/>
      <point x="987" y="250" type="curve" smooth="yes"/>
      <point x="987" y="411"/>
      <point x="945" y="508"/>
      <point x="815" y="508" type="curve" smooth="yes"/>
      <point x="675" y="508"/>
      <point x="607" y="398"/>
      <point x="607" y="248" type="curve" smooth="yes"/>
      <point x="607" y="90"/>
      <point x="675" y="-8"/>
    </contour>
    <contour>
      <point x="835" y="72" type="curve" smooth="yes"/>
      <point x="745" y="72"/>
      <point x="707" y="138"/>
      <point x="707" y="248" type="curve" smooth="yes"/>
      <point x="707" y="358"/>
      <point x="745" y="428"/>
      <point x="835" y="428" type="curve" smooth="yes"/>
      <point x="930" y="428"/>
      <point x="969" y="353"/>
      <point x="969" y="250" type="curve" smooth="yes"/>
      <point x="969" y="146"/>
      <point x="930" y="72"/>
    </contour>
    <contour>
      <point x="1069" y="0" type="curve"/>
      <point x="969" y="0" type="line"/>
      <point x="969" y="-82"/>
      <point x="918" y="-128"/>
      <point x="833" y="-128" type="curve" smooth="yes"/>
      <point x="763" y="-128"/>
      <point x="726" y="-97"/>
      <point x="716" y="-54" type="curve"/>
      <point x="624" y="-66" type="line"/>
      <point x="644" y="-170"/>
      <point x="724" y="-208"/>
      <point x="833" y="-208" type="curve" smooth="yes"/>
      <point x="983" y="-208"/>
      <point x="1069" y="-136"/>
    </contour>
  </outline>
</glyph>
<glyph name="g_g.liga.alt2" format="2">
  <advance width="1109"/>
  <outline>
    <contour>
      <point x="482" y="490" type="line"/>
      <point x="382" y="490" type="line"/>
      <point x="382" y="-10" type="line"/>
      <point x="482" y="-10" type="line"/>
    </contour>
    <contour>
      <point x="228" y="-18" type="curve" smooth="yes"/>
      <point x="368" y="-18"/>
      <point x="400" y="78"/>
      <point x="400" y="240" type="curve" smooth="yes"/>
      <point x="400" y="401"/>
      <point x="358" y="498"/>
      <point x="228" y="498" type="curve" smooth="yes"/>
      <point x="88" y="498"/>
      <point x="20" y="388"/>
      <point x="20" y="238" type="curve" smooth="yes"/>
      <point x="20" y="80"/>
      <point x="88" y="-18"/>
    </contour>
    <contour>
      <point x="248" y="62" type="curve" smooth="yes"/>
      <point x="158" y="62"/>
      <point x="120" y="128"/>
      <point x="120" y="238" type="curve" smooth="yes"/>
      <point x="120" y="348"/>
      <point x="158" y="418"/>
      <point x="248" y="418" type="curve" smooth="yes"/>
      <point x="343" y="418"/>
      <point x="382" y="343"/>
      <point x="382" y="240" type="curve" smooth="yes"/>
      <point x="382" y="136"/>
      <point x="343" y="62"/>
    </contour>
    <contour>
      <point x="482" y="-10" type="curve"/>
      <point x="382" y="-10" type="line"/>
      <point x="382" y="-92"/>
      <point x="331" y="-138"/>
      <point x="246" y="-138" type="curve" smooth="yes"/>
      <point x="176" y="-138"/>
      <point x="139" y="-107"/>
      <point x="129" y="-64" type="curve"/>
      <point x="37" y="-76" type="line"/>
      <point x="57" y="-180"/>
      <point x="137" y="-218"/>
      <point x="246" y="-218" type="curve" smooth="yes"/>
      <point x="396" y="-218"/>
      <point x="482" y="-146"/>
    </contour>
    <contour>
      <point x="1069" y="490" type="line"/>
      <point x="969" y="490" type="line"/>
      <point x="969" y="-10" type="line"/>
      <point x="1069" y="-10" type="line"/>
    </contour>
    <contour>
      <point x="815" y="-18" type="curve" smooth="yes"/>
      <point x="955" y="-18"/>
      <point x="987" y="78"/>
      <point x="987" y="240" type="curve" smooth="yes"/>
      <point x="987" y="401"/>
      <point x="945" y="498"/>
      <point x="815" y="498" type="curve" smooth="yes"/>
      <point x="675" y="498"/>
      <point x="607" y="388"/>
      <point x="607" y="238" type="curve" smooth="yes"/>
      <point x="607" y="80"/>
      <point x="675" y="-18"/>
    </contour>
    <contour>
      <point x="835" y="62" type="curve" smooth="yes"/>
      <point x="745" y="62"/>
      <point x="707" y="128"/>
      <point x="707" y="238" type="curve" smooth="yes"/>
      <point x="707" y="348"/>
      <point x="745" y="418"/>
      <point x="835" y="418" type="curve" smooth="yes"/>
      <point x="930" y="418"/>
      <point x="969" y="343"/>
      <point x="969" y="240" type="curve" smooth="yes"/>
      <point x="969" y="136"/>
      <point x="930" y="62"/>
    </contour>
    <contour>
      <point x="1069" y="-10" type="curve"/>
      <point x="969" y="-10" type="line"/>
      <point x="969" y="-92"/>
      <point x="918" y="-138"/>
      <point x="833" y="-138" type="curve" smooth="yes"/>
      <point x="763" y="-138"/>
      <point x="726" y="-107"/>
      <point x="716" y="-64" type="curve"/>
      <point x="624" y="-76" type="line"/>
      <point x="644" y="-180"/>
      <point x="724" y="-218"/>
      <point x="833" y="-218" type="curve" smooth="yes"/>
      <point x="983" y="-218"/>
      <point x="1069" y="-146"/>
    </contour>
  </outline>
</glyph>
<glyph name="g_g.liga.alt3" format="2">
  <advance width="1029"/>
  <outline>
    <contour>
      <point x="482" y="800" type="line"/>
      <point x="382" y="800" type="line"/>
      <point x="382" y="300" type="line"/>
      <point x="482" y="300" type="line"/>
    </contour>
    <contour>
      <point x="228" y="292" type="curve" smooth="yes"/>
      <point x="368" y="292"/>
      <point x="400" y="388"/>
      <point x="400" y="550" type="curve" smooth="yes"/>
      <point x="400" y="711"/>
      <point x="358" y="808"/>
      <point x="228" y="808" type="curve" smooth="yes"/>
      <point x="88" y="808"/>
      <point x="20" y="698"/>
      <point x="20" y="548" type="curve" smooth="yes"/>
      <point x="20" y="390"/>
      <point x="88" y="292"/>
    </contour>
    <contour>
      <point x="248" y="372" type="curve" smooth="yes"/>
      <point x="158" y="372"/>
      <point x="120" y="438"/>
      <point x="120" y="548" type="curve" smooth="yes"/>
      <point x="120" y="658"/>
      <point x="158" y="728"/>
      <point x="248" y="728" type="curve" smooth="yes"/>
      <point x="343" y="728"/>
      <point x="382" y="653"/>
      <point x="382" y="550" type="curve" smooth="yes"/>
      <point x="382" y="446"/>
      <point x="343" y="372"/>
    </contour>
    <contour>
      <point x="482" y="300" type="curve"/>
      <point x="382" y="300" type="line"/>
      <point x="382" y="218"/>
      <point x="331" y="172"/>
      <point x="246" y="172" type="curve" smooth="yes"/>
      <point x="176" y="172"/>
      <point x="139" y="203"/>
      <point x="129" y="246" type="curve"/>
      <point x="37" y="234" type="line"/>
      <point x="57" y="130"/>
      <point x="137" y="92"/>
      <point x="246" y="92" type="curve" smooth="yes"/>
      <point x="396" y="92"/>
      <point x="482" y="164"/>
    </contour>
    <contour>
      <point x="989" y="800" type="line"/>
      <point x="889" y="800" type="line"/>
      <point x="889" y="300" type="line"/>
      <point x="989" y="300" type="line"/>
    </contour>
    <contour>
      <point x="735" y="292" type="curve" smooth="yes"/>
      <point x="875" y="292"/>
      <point x="907" y="388"/>
      <point x="907" y="550" type="curve" smooth="yes"/>
      <point x="907" y="711"/>
      <point x="865" y="808"/>
      <point x="735" y="808" type="curve" smooth="yes"/>
      <point x="595" y="808"/>
      <point x="527" y="698"/>
      <point x="527" y="548" type="curve" smooth="yes"/>
      <point x="527" y="390"/>
      <point x="595" y="292"/>
    </contour>
    <contour>
      <point x="755" y="372" type="curve" smooth="yes"/>
      <point x="665" y="372"/>
      <point x="627" y="438"/>
      <point x="627" y="548" type="curve" smooth="yes"/>
      <point x="627" y="658"/>
      <point x="665" y="728"/>
      <point x="755" y="728" type="curve" smooth="yes"/>
      <point x="850" y="728"/>
      <point x="889" y="653"/>
      <point x="889" y="550" type="curve" smooth="yes"/>
      <point x="889" y="446"/>
      <point x="850" y="372"/>
    </contour>
    <contour>
      <point x="989" y="300" type="curve"/>
      <point x="889" y="300" type="line"/>
      <point x="889" y="218"/>
      <point x="838" y="172"/>
      <point x="753" y="172" type="curve" smooth="yes"/>
      <point x="683" y="172"/>
      <point x="646" y="203"/>
      <point x="636" y="246" type="curve"/>
      <point x="544" y="234" type="line"/>
      <point x="564" y="130"/>
      <point x="644" y="92"/>
      <point x="753" y="92" type="curve" smooth="yes"/>
      <point x="903" y="92"/>
      <point x="989" y="164"/>
    </contour>
  </outline>
</glyph>
<glyph name="g_g.liga" format="2">
  <advance width="1029"/>
  <outline>
    <contour>
      <point x="482" y="500" type="line"/>
      <point x="382" y="500" type="line"/>
      <point x="382" y="0" type="line"/>
      <point x="482" y="0" type="line"/>
    </contour>
    <contour>
      <point x="228" y="-8" type="curve" smooth="yes"/>
      <point x="368" y="-8"/>
      <point x="400" y="88"/>
      <point x="400" y="250" type="curve" smooth="yes"/>
      <point x="400" y="411"/>
      <point x="358" y="508"/>
      <point x="228" y="508" type="curve" smooth="yes"/>
      <point x="88" y="508"/>
      <point x="20" y="398"/>
      <point x="20" y="248" type="curve" smooth="yes"/>
      <point x="20" y="90"/>
      <point x="88" y="-8"/>
    </contour>
    <contour>
      <point x="248" y="72" type="curve" smooth="yes"/>
      <point x="158" y="72"/>
      <point x="120" y="138"/>
      <point x="120" y="248" type="curve" smooth="yes"/>
      <point x="120" y="358"/>
      <point x="158" y="428"/>
      <point x="248" y="428" type="curve" smooth="yes"/>
      <point x="343" y="428"/>
      <point x="382" y="353"/>
      <point x="382" y="250" type="curve" smooth="yes"/>
      <point x="382" y="146"/>
      <point x="343" y="72"/>
    </contour>
    <contour>
      <point x="482" y="0" type="curve"/>
      <point x="382" y="0" type="line"/>
      <point x="382" y="-82"/>
      <point x="331" y="-128"/>
      <point x="246" y="-128" type="curve" smooth="yes"/>
      <point x="176" y="-128"/>
      <point x="139" y="-97"/>
      <point x="129" y="-54" type="curve"/>
      <point x="37" y="-66" type="line"/>
      <point x="57" y="-170"/>
      <point x="137" y="-208"/>
      <point x="246" y="-208" type="curve" smooth="yes"/>
      <point x="396" y="-208"/>
      <point x="482" y="-136"/>
    </contour>
    <contour>
      <point x="989" y="800" type="line"/>
      <point x="889" y="800" type="line"/>
      <point x="889" y="300" type="line"/>
      <point x="989" y="300" type="line"/>
    </contour>
    <contour>
      <point x="735" y="292" type="curve" smooth="yes"/>
      <point x="875" y="292"/>
      <point x="907" y="388"/>
      <point x="907" y="550" type="curve" smooth="yes"/>
      <point x="907" y="711"/>
      <point x="865" y="808"/>
      <point x="735" y="808" type="curve" smooth="yes"/>
      <point x="595" y="808"/>
      <point x="527" y="698"/>
      <point x="527" y="548" type="curve" smooth="yes"/>
      <point x="527" y="390"/>
      <point x="595" y="292"/>
    </contour>
    <contour>
      <point x="755" y="372" type="curve" smooth="yes"/>
      <point x="665" y="372"/>
      <point x="627" y="438"/>
      <point x="627" y="548" type="curve" smooth="yes"/>
      <point x="627" y="658"/>
      <point x="665" y="728"/>
      <point x="755" y="728" type="curve" smooth="yes"/>
      <point x="850" y="728"/>
      <point x="889" y="653"/>
      <point x="889" y="550" type="curve" smooth="yes"/>
      <point x="889" y="446"/>
      <point x="850" y="372"/>
    </contour>
    <contour>
      <point x="989" y="300" type="curve"/>
      <point x="889" y="300" type="line"/>
      <point x="889" y="218"/>
      <point x="838" y="172"/>
      <point x="753" y="172" type="curve" smooth="yes"/>
      <point x="683" y="172"/>
      <point x="646" y="203"/>
      <point x="636" y="246" type="curve"/>
      <point x="544" y="234" type="line"/>
      <point x="564" y="130"/>
      <point x="644" y="92"/>
      <point x="753" y="92" type="curve" smooth="yes"/>
      <point x="903" y="92"/>
      <point x="989" y="164"/>
    </contour>
  </outline>
</glyph>
<glyph name="h.fina.alt" format="2">
  <advance width="504"/>
  <outline>
    <contour>
      <point x="40" y="600" type="line"/>
      <point x="40" y="-200" type="line"/>
      <point x="140" y="-200" type="line"/>
      <point x="140" y="199" type="line"/>
      <point x="140" y="600" type="line"/>
    </contour>
    <contour>
      <point x="364" y="113" type="curve"/>
      <point x="364" y="-200" type="line"/>
      <point x="464" y="-200" type="line"/>
      <point x="464" y="113" type="line" smooth="yes"/>
      <point x="464" y="209"/>
      <point x="434" y="308"/>
      <point x="294" y="308" type="curve" smooth="yes"/>
      <point x="156" y="308"/>
      <point x="122" y="211"/>
      <point x="122" y="50" type="curve"/>
      <point x="140" y="50" type="line"/>
      <point x="140" y="174"/>
      <point x="190" y="228"/>
      <point x="260" y="228" type="curve" smooth="yes"/>
      <point x="333" y="228"/>
      <point x="364" y="169"/>
    </contour>
  </outline>
</glyph>
<glyph name="h.fina" format="2">
  <advance width="504"/>
  <outline>
    <contour>
      <point x="40" y="800" type="line"/>
      <point x="40" y="0" type="line"/>
      <point x="140" y="0" type="line"/>
      <point x="140" y="399" type="line"/>
      <point x="140" y="800" type="line"/>
    </contour>
    <contour>
      <point x="364" y="313" type="curve"/>
      <point x="364" y="0" type="line"/>
      <point x="464" y="0" type="line"/>
      <point x="464" y="313" type="line" smooth="yes"/>
      <point x="464" y="409"/>
      <point x="434" y="508"/>
      <point x="294" y="508" type="curve" smooth="yes"/>
      <point x="156" y="508"/>
      <point x="122" y="411"/>
      <point x="122" y="250" type="curve"/>
      <point x="140" y="250" type="line"/>
      <point x="140" y="374"/>
      <point x="190" y="428"/>
      <point x="260" y="428" type="curve" smooth="yes"/>
      <point x="333" y="428"/>
      <point x="364" y="369"/>
    </contour>
  </outline>
</glyph>
<glyph name="h_h.liga.alt1" format="2">
  <advance width="1080"/>
  <outline>
    <contour>
      <point x="40" y="800" type="line"/>
      <point x="40" y="0" type="line"/>
      <point x="140" y="0" type="line"/>
      <point x="140" y="399" type="line"/>
      <point x="140" y="800" type="line"/>
    </contour>
    <contour>
      <point x="364" y="313" type="curve"/>
      <point x="364" y="0" type="line"/>
      <point x="464" y="0" type="line"/>
      <point x="464" y="313" type="line" smooth="yes"/>
      <point x="464" y="409"/>
      <point x="434" y="508"/>
      <point x="294" y="508" type="curve" smooth="yes"/>
      <point x="156" y="508"/>
      <point x="122" y="411"/>
      <point x="122" y="250" type="curve"/>
      <point x="140" y="250" type="line"/>
      <point x="140" y="374"/>
      <point x="190" y="428"/>
      <point x="260" y="428" type="curve" smooth="yes"/>
      <point x="333" y="428"/>
      <point x="364" y="369"/>
    </contour>
    <contour>
      <point x="616" y="600" type="line"/>
      <point x="616" y="-200" type="line"/>
      <point x="716" y="-200" type="line"/>
      <point x="716" y="199" type="line"/>
      <point x="716" y="600" type="line"/>
    </contour>
    <contour>
      <point x="940" y="113" type="curve"/>
      <point x="940" y="-200" type="line"/>
      <point x="1040" y="-200" type="line"/>
      <point x="1040" y="113" type="line" smooth="yes"/>
      <point x="1040" y="209"/>
      <point x="1010" y="308"/>
      <point x="870" y="308" type="curve" smooth="yes"/>
      <point x="732" y="308"/>
      <point x="698" y="211"/>
      <point x="698" y="50" type="curve"/>
      <point x="716" y="50" type="line"/>
      <point x="716" y="174"/>
      <point x="766" y="228"/>
      <point x="836" y="228" type="curve" smooth="yes"/>
      <point x="909" y="228"/>
      <point x="940" y="169"/>
    </contour>
  </outline>
</glyph>
<glyph name="h_h.liga.alt2" format="2">
  <advance width="1030"/>
  <outline>
    <contour>
      <point x="40" y="600" type="line"/>
      <point x="40" y="-200" type="line"/>
      <point x="140" y="-200" type="line"/>
      <point x="140" y="199" type="line"/>
      <point x="140" y="600" type="line"/>
    </contour>
    <contour>
      <point x="364" y="113" type="curve"/>
      <point x="364" y="-200" type="line"/>
      <point x="464" y="-200" type="line"/>
      <point x="464" y="113" type="line" smooth="yes"/>
      <point x="464" y="209"/>
      <point x="434" y="308"/>
      <point x="294" y="308" type="curve" smooth="yes"/>
      <point x="156" y="308"/>
      <point x="122" y="211"/>
      <point x="122" y="50" type="curve"/>
      <point x="140" y="50" type="line"/>
      <point x="140" y="174"/>
      <point x="190" y="228"/>
      <point x="260" y="228" type="curve" smooth="yes"/>
      <point x="333" y="228"/>
      <point x="364" y="169"/>
    </contour>
    <contour>
      <point x="566" y="600" type="line"/>
      <point x="566" y="-200" type="line"/>
      <point x="666" y="-200" type="line"/>
      <point x="666" y="199" type="line"/>
      <point x="666" y="600" type="line"/>
    </contour>
    <contour>
      <point x="890" y="113" type="curve"/>
      <point x="890" y="-200" type="line"/>
      <point x="990" y="-200" type="line"/>
      <point x="990" y="113" type="line" smooth="yes"/>
      <point x="990" y="209"/>
      <point x="960" y="308"/>
      <point x="820" y="308" type="curve" smooth="yes"/>
      <point x="682" y="308"/>
      <point x="648" y="211"/>
      <point x="648" y="50" type="curve"/>
      <point x="666" y="50" type="line"/>
      <point x="666" y="174"/>
      <point x="716" y="228"/>
      <point x="786" y="228" type="curve" smooth="yes"/>
      <point x="859" y="228"/>
      <point x="890" y="169"/>
    </contour>
  </outline>
</glyph>
<glyph name="h_h.liga.alt3" format="2">
  <advance width="988"/>
  <outline>
    <contour>
      <point x="40" y="800" type="line"/>
      <point x="40" y="0" type="line"/>
      <point x="140" y="0" type="line"/>
      <point x="140" y="399" type="line"/>
      <point x="140" y="800" type="line"/>
    </contour>
    <contour>
      <point x="364" y="313" type="curve"/>
      <point x="364" y="0" type="line"/>
      <point x="464" y="0" type="line"/>
      <point x="464" y="313" type="line" smooth="yes"/>
      <point x="464" y="409"/>
      <point x="434" y="508"/>
      <point x="294" y="508" type="curve" smooth="yes"/>
      <point x="156" y="508"/>
      <point x="122" y="411"/>
      <point x="122" y="250" type="curve"/>
      <point x="140" y="250" type="line"/>
      <point x="140" y="374"/>
      <point x="190" y="428"/>
      <point x="260" y="428" type="curve" smooth="yes"/>
      <point x="333" y="428"/>
      <point x="364" y="369"/>
    </contour>
    <contour>
      <point x="524" y="800" type="line"/>
      <point x="524" y="0" type="line"/>
      <point x="624" y="0" type="line"/>
      <point x="624" y="399" type="line"/>
      <point x="624" y="800" type="line"/>
    </contour>
    <contour>
      <point x="848" y="313" type="curve"/>
      <point x="848" y="0" type="line"/>
      <point x="948" y="0" type="line"/>
      <point x="948" y="313" type="line" smooth="yes"/>
      <point x="948" y="409"/>
      <point x="918" y="508"/>
      <point x="778" y="508" type="curve" smooth="yes"/>
      <point x="640" y="508"/>
      <point x="606" y="411"/>
      <point x="606" y="250" type="curve"/>
      <point x="624" y="250" type="line"/>
      <point x="624" y="374"/>
      <point x="674" y="428"/>
      <point x="744" y="428" type="curve" smooth="yes"/>
      <point x="817" y="428"/>
      <point x="848" y="369"/>
    </contour>
  </outline>
</glyph>
<glyph name="i.fina.alt" format="2">
  <advance width="200"/>
  <outline>
    <contour>
      <point x="49" y="300" type="line"/>
      <point x="49" y="-200" type="line"/>
      <point x="149" y="-200" type="line"/>
      <point x="149" y="300" type="line"/>
    </contour>
    <contour>
      <point x="101" y="352" type="curve" smooth="yes"/>
      <point x="138" y="352"/>
      <point x="160" y="378"/>
      <point x="160" y="415" type="curve" smooth="yes"/>
      <point x="160" y="452"/>
      <point x="138" y="477"/>
      <point x="101" y="477" type="curve" smooth="yes"/>
      <point x="64" y="477"/>
      <point x="40" y="452"/>
      <point x="40" y="415" type="curve" smooth="yes"/>
      <point x="40" y="378"/>
      <point x="64" y="352"/>
    </contour>
  </outline>
</glyph>
<glyph name="i.fina" format="2">
  <advance width="200"/>
  <outline>
    <contour>
      <point x="49" y="632" type="line"/>
      <point x="49" y="132" type="line"/>
      <point x="149" y="132" type="line"/>
      <point x="149" y="632" type="line"/>
    </contour>
    <contour>
      <point x="101" y="684" type="curve" smooth="yes"/>
      <point x="138" y="684"/>
      <point x="160" y="710"/>
      <point x="160" y="747" type="curve" smooth="yes"/>
      <point x="160" y="784"/>
      <point x="138" y="809"/>
      <point x="101" y="809" type="curve" smooth="yes"/>
      <point x="64" y="809"/>
      <point x="40" y="784"/>
      <point x="40" y="747" type="curve" smooth="yes"/>
      <point x="40" y="710"/>
      <point x="64" y="684"/>
    </contour>
  </outline>
</glyph>
<glyph name="i_i.liga.alt2" format="2">
  <advance width="390"/>
  <outline>
    <contour>
      <point x="49" y="300" type="line"/>
      <point x="49" y="-200" type="line"/>
      <point x="149" y="-200" type="line"/>
      <point x="149" y="300" type="line"/>
    </contour>
    <contour>
      <point x="101" y="352" type="curve" smooth="yes"/>
      <point x="138" y="352"/>
      <point x="160" y="378"/>
      <point x="160" y="415" type="curve" smooth="yes"/>
      <point x="160" y="452"/>
      <point x="138" y="477"/>
      <point x="101" y="477" type="curve" smooth="yes"/>
      <point x="64" y="477"/>
      <point x="40" y="452"/>
      <point x="40" y="415" type="curve" smooth="yes"/>
      <point x="40" y="378"/>
      <point x="64" y="352"/>
    </contour>
    <contour>
      <point x="239" y="300" type="line"/>
      <point x="239" y="-200" type="line"/>
      <point x="339" y="-200" type="line"/>
      <point x="339" y="300" type="line"/>
    </contour>
    <contour>
      <point x="291" y="352" type="curve" smooth="yes"/>
      <point x="328" y="352"/>
      <point x="350" y="378"/>
      <point x="350" y="415" type="curve" smooth="yes"/>
      <point x="350" y="452"/>
      <point x="328" y="477"/>
      <point x="291" y="477" type="curve" smooth="yes"/>
      <point x="254" y="477"/>
      <point x="230" y="452"/>
      <point x="230" y="415" type="curve" smooth="yes"/>
      <point x="230" y="378"/>
      <point x="254" y="352"/>
    </contour>
  </outline>
</glyph>
<glyph name="i_i.liga.alt3" format="2">
  <advance width="390"/>
  <outline>
    <contour>
      <point x="49" y="633" type="line"/>
      <point x="49" y="133" type="line"/>
      <point x="149" y="133" type="line"/>
      <point x="149" y="633" type="line"/>
    </contour>
    <contour>
      <point x="101" y="685" type="curve" smooth="yes"/>
      <point x="138" y="685"/>
      <point x="160" y="711"/>
      <point x="160" y="748" type="curve" smooth="yes"/>
      <point x="160" y="785"/>
      <point x="138" y="810"/>
      <point x="101" y="810" type="curve" smooth="yes"/>
      <point x="64" y="810"/>
      <point x="40" y="785"/>
      <point x="40" y="748" type="curve" smooth="yes"/>
      <point x="40" y="711"/>
      <point x="64" y="685"/>
    </contour>
    <contour>
      <point x="239" y="633" type="line"/>
      <point x="239" y="133" type="line"/>
      <point x="339" y="133" type="line"/>
      <point x="339" y="633" type="line"/>
    </contour>
    <contour>
      <point x="291" y="685" type="curve" smooth="yes"/>
      <point x="328" y="685"/>
      <point x="350" y="711"/>
      <point x="350" y="748" type="curve" smooth="yes"/>
      <point x="350" y="785"/>
      <point x="328" y="810"/>
      <point x="291" y="810" type="curve" smooth="yes"/>
      <point x="254" y="810"/>
      <point x="230" y="785"/>
      <point x="230" y="748" type="curve" smooth="yes"/>
      <point x="230" y="711"/>
      <point x="254" y="685"/>
    </contour>
  </outline>
</glyph>
